sporting_grotesque.ufo
<glyph name="exclam" format="1">
  <advance width="188"/>
  <unicode hex="0021"/>
  <outline>
    <contour>
      <point x="50" y="538" type="line"/>
      <point x="59" y="166" type="line"/>
      <point x="130" y="166" type="line"/>
      <point x="138" y="538" type="line"/>
    </contour>
    <component base="period" xOffset="-30"/>
  </outline>
</glyph>
<glyph name="quotedbl" format="1">
  <advance width="300"/>
  <unicode hex="0022"/>
  <outline>
    <contour>
      <point x="31" y="538" type="line"/>
      <point x="31" y="450" type="line"/>
      <point x="63" y="320" type="line"/>
      <point x="87" y="320" type="line"/>
      <point x="119" y="450" type="line"/>
      <point x="119" y="538" type="line"/>
    </contour>
    <contour>
      <point x="181" y="538" type="line"/>
      <point x="181" y="450" type="line"/>
      <point x="213" y="320" type="line"/>
      <point x="237" y="320" type="line"/>
      <point x="269" y="450" type="line"/>
      <point x="269" y="538" type="line"/>
    </contour>
  </outline>
</glyph>
<glyph name="numbersign" format="1">
  <advance width="432"/>
  <unicode hex="0023"/>
  <outline>
    <contour>
      <point x="40" y="377" type="line"/>
      <point x="40" y="347" type="line"/>
      <point x="136" y="347" type="line"/>
      <point x="101" y="217" type="line"/>
      <point x="0" y="217" type="line"/>
      <point x="0" y="187" type="line"/>
      <point x="93" y="187" type="line"/>
      <point x="43" y="0" type="line"/>
      <point x="74" y="0" type="line"/>
      <point x="124" y="187" type="line"/>
      <point x="253" y="187" type="line"/>
      <point x="203" y="0" type="line"/>
      <point x="234" y="0" type="line"/>
      <point x="284" y="187" type="line"/>
      <point x="392" y="187" type="line"/>
      <point x="392" y="217" type="line"/>
      <point x="292" y="217" type="line"/>
      <point x="327" y="347" type="line"/>
      <point x="432" y="347" type="line"/>
      <point x="432" y="377" type="line"/>
      <point x="335" y="377" type="line"/>
      <point x="381" y="545" type="line"/>
      <point x="350" y="545" type="line"/>
      <point x="304" y="377" type="line"/>
      <point x="175" y="377" type="line"/>
      <point x="221" y="545" type="line"/>
      <point x="190" y="545" type="line"/>
      <point x="144" y="377" type="line"/>
    </contour>
    <contour>
      <point x="167" y="347" type="line"/>
      <point x="296" y="347" type="line"/>
      <point x="261" y="217" type="line"/>
      <point x="132" y="217" type="line"/>
    </contour>
  </outline>
</glyph>
<glyph name="dollar" format="1">
  <advance width="598"/>
  <unicode hex="0024"/>
  <outline>
    <contour>
      <point x="324" y="-154" type="line"/>
      <point x="324" y="-9" type="line"/>
      <point x="328" y="-9"/>
      <point x="332" y="-10"/>
      <point x="337" y="-10" type="curve" smooth="yes"/>
      <point x="453" y="-10"/>
      <point x="568" y="44"/>
      <point x="568" y="145" type="curve" smooth="yes"/>
      <point x="568" y="225"/>
      <point x="513" y="279"/>
      <point x="413" y="297" type="curve" smooth="yes"/>
      <point x="324" y="313" type="line"/>
      <point x="324" y="478" type="line"/>
      <point x="427" y="468"/>
      <point x="480" y="402"/>
      <point x="480" y="402" type="curve"/>
      <point x="524" y="450" type="line"/>
      <point x="524" y="450"/>
      <point x="468" y="536"/>
      <point x="324" y="544" type="curve"/>
      <point x="324" y="700" type="line"/>
      <point x="294" y="700" type="line"/>
      <point x="294" y="545" type="line"/>
      <point x="155" y="542"/>
      <point x="79" y="464"/>
      <point x="79" y="397" type="curve" smooth="yes"/>
      <point x="79" y="324"/>
      <point x="120" y="282"/>
      <point x="209" y="265" type="curve"/>
      <point x="294" y="250" type="line"/>
      <point x="294" y="56" type="line"/>
      <point x="156" y="64"/>
      <point x="103" y="165"/>
      <point x="99" y="198" type="curve"/>
      <point x="30" y="171" type="line"/>
      <point x="34" y="144"/>
      <point x="82" y="8"/>
      <point x="294" y="-8" type="curve"/>
      <point x="294" y="-154" type="line"/>
    </contour>
    <contour>
      <point x="353" y="240" type="line" smooth="yes"/>
      <point x="432" y="226"/>
      <point x="473" y="191"/>
      <point x="473" y="144" type="curve" smooth="yes"/>
      <point x="473" y="99"/>
      <point x="417" y="59"/>
      <point x="324" y="56" type="curve"/>
      <point x="324" y="245" type="line"/>
    </contour>
    <contour>
      <point x="263" y="324" type="line" smooth="yes"/>
      <point x="200" y="335"/>
      <point x="174" y="356"/>
      <point x="174" y="394" type="curve" smooth="yes"/>
      <point x="174" y="445"/>
      <point x="224" y="477"/>
      <point x="294" y="479" type="curve"/>
      <point x="294" y="318" type="line"/>
    </contour>
  </outline>
</glyph>
<glyph name="percent" format="1">
  <advance width="650"/>
  <unicode hex="0025"/>
  <outline>
    <contour>
      <point x="220" y="-9" type="line"/>
      <point x="465" y="558" type="line"/>
      <point x="431" y="558" type="line"/>
      <point x="185" y="-9" type="line"/>
    </contour>
    <contour>
      <point x="346" y="155" type="curve"/>
      <point x="346" y="72"/>
      <point x="377" y="-10"/>
      <point x="498" y="-10" type="curve" smooth="yes"/>
      <point x="619" y="-10"/>
      <point x="650" y="72"/>
      <point x="650" y="155" type="curve" smooth="yes"/>
      <point x="650" y="238"/>
      <point x="619" y="320"/>
      <point x="498" y="320" type="curve" smooth="yes"/>
      <point x="377" y="320"/>
      <point x="346" y="238"/>
    </contour>
    <contour>
      <point x="435" y="155" type="curve"/>
      <point x="435" y="208"/>
      <point x="444" y="253"/>
      <point x="498" y="253" type="curve" smooth="yes"/>
      <point x="551" y="253"/>
      <point x="561" y="208"/>
      <point x="561" y="155" type="curve" smooth="yes"/>
      <point x="561" y="102"/>
      <point x="551" y="56"/>
      <point x="498" y="56" type="curve" smooth="yes"/>
      <point x="444" y="56"/>
      <point x="435" y="102"/>
    </contour>
    <contour>
      <point x="0" y="393" type="curve" smooth="yes"/>
      <point x="0" y="310"/>
      <point x="31" y="228"/>
      <point x="152" y="228" type="curve" smooth="yes"/>
      <point x="273" y="228"/>
      <point x="304" y="310"/>
      <point x="304" y="393" type="curve" smooth="yes"/>
      <point x="304" y="476"/>
      <point x="273" y="558"/>
      <point x="152" y="558" type="curve" smooth="yes"/>
      <point x="31" y="558"/>
      <point x="0" y="476"/>
    </contour>
    <contour>
      <point x="89" y="393" type="curve" smooth="yes"/>
      <point x="89" y="446"/>
      <point x="98" y="491"/>
      <point x="152" y="491" type="curve" smooth="yes"/>
      <point x="205" y="491"/>
      <point x="215" y="446"/>
      <point x="215" y="393" type="curve" smooth="yes"/>
      <point x="215" y="340"/>
      <point x="205" y="294"/>
      <point x="152" y="294" type="curve" smooth="yes"/>
      <point x="98" y="294"/>
      <point x="89" y="340"/>
    </contour>
  </outline>
</glyph>
<glyph name="ampersand" format="1">
  <advance width="603"/>
  <unicode hex="0026"/>
  <outline>
    <contour>
      <point x="50" y="472" type="line"/>
      <point x="50" y="472"/>
      <point x="138" y="403"/>
      <point x="229" y="274" type="curve"/>
      <point x="20" y="66" type="line"/>
      <point x="20" y="0" type="line"/>
      <point x="372" y="0" type="line"/>
      <point x="389" y="-48"/>
      <point x="403" y="-99"/>
      <point x="414" y="-154" type="curve"/>
      <point x="506" y="-154" type="line"/>
      <point x="496" y="-100"/>
      <point x="481" y="-48"/>
      <point x="463" y="0" type="curve"/>
      <point x="593" y="0" type="line"/>
      <point x="593" y="66" type="line"/>
      <point x="435" y="66" type="line"/>
      <point x="399" y="143"/>
      <point x="356" y="212"/>
      <point x="310" y="271" type="curve"/>
      <point x="506" y="482" type="line"/>
      <point x="506" y="538" type="line"/>
      <point x="50" y="538" type="line"/>
    </contour>
    <contour>
      <point x="427" y="472" type="line"/>
      <point x="273" y="318" type="line"/>
      <point x="217" y="385"/>
      <point x="162" y="436"/>
      <point x="121" y="472" type="curve"/>
    </contour>
    <contour>
      <point x="346" y="66" type="curve"/>
      <point x="119" y="66" type="line"/>
      <point x="264" y="221" type="line"/>
      <point x="293" y="175"/>
      <point x="321" y="123"/>
    </contour>
  </outline>
</glyph>
<glyph name="quotesingle" format="1">
  <advance width="300"/>
  <unicode hex="0027"/>
  <outline>
    <contour>
      <point x="106" y="538" type="line"/>
      <point x="106" y="450" type="line"/>
      <point x="138" y="320" type="line"/>
      <point x="162" y="320" type="line"/>
      <point x="194" y="450" type="line"/>
      <point x="194" y="538" type="line"/>
    </contour>
  </outline>
</glyph>
<glyph name="parenleft" format="1">
  <advance width="354"/>
  <unicode hex="0028"/>
  <outline>
    <contour>
      <point x="264" y="-112" type="line"/>
      <point x="187" y="-62"/>
      <point x="145" y="63"/>
      <point x="145" y="258" type="curve" smooth="yes"/>
      <point x="145" y="453"/>
      <point x="190" y="589"/>
      <point x="264" y="629" type="curve"/>
      <point x="244" y="650" type="line"/>
      <point x="143" y="610"/>
      <point x="50" y="458"/>
      <point x="50" y="258" type="curve" smooth="yes"/>
      <point x="50" y="58"/>
      <point x="153" y="-103"/>
      <point x="244" y="-133" type="curve"/>
    </contour>
  </outline>
</glyph>
<glyph name="parenright" format="1">
  <advance width="354"/>
  <unicode hex="0029"/>
  <outline>
    <contour>
      <point x="110" y="-133" type="line"/>
      <point x="201" y="-103"/>
      <point x="304" y="58"/>
      <point x="304" y="258" type="curve" smooth="yes"/>
      <point x="304" y="458"/>
      <point x="211" y="610"/>
      <point x="110" y="650" type="curve"/>
      <point x="90" y="629" type="line"/>
      <point x="164" y="589"/>
      <point x="209" y="453"/>
      <point x="209" y="258" type="curve" smooth="yes"/>
      <point x="209" y="63"/>
      <point x="167" y="-62"/>
      <point x="90" y="-112" type="curve"/>
    </contour>
  </outline>
</glyph>
<glyph name="asterisk" format="1">
  <advance width="300"/>
  <unicode hex="002A"/>
  <outline>
    <contour>
      <point x="167" y="442" type="line"/>
      <point x="163" y="520" type="line"/>
      <point x="214" y="462" type="line"/>
      <point x="235" y="483" type="line"/>
      <point x="176" y="534" type="line"/>
      <point x="254" y="529" type="line"/>
      <point x="254" y="559" type="line"/>
      <point x="177" y="553" type="line"/>
      <point x="235" y="606" type="line"/>
      <point x="214" y="627" type="line"/>
      <point x="163" y="567" type="line"/>
      <point x="167" y="647" type="line"/>
      <point x="137" y="647" type="line"/>
      <point x="141" y="567" type="line"/>
      <point x="90" y="628" type="line"/>
      <point x="69" y="607" type="line"/>
      <point x="127" y="552" type="line"/>
      <point x="49" y="559" type="line"/>
      <point x="49" y="529" type="line"/>
      <point x="127" y="530" type="line"/>
      <point x="69" y="482" type="line"/>
      <point x="90" y="461" type="line"/>
      <point x="143" y="519" type="line"/>
      <point x="137" y="442" type="line"/>
    </contour>
  </outline>
</glyph>
<glyph name="plus" format="1">
  <advance width="492"/>
  <unicode hex="002B"/>
  <outline>
    <contour>
      <point x="261" y="0" type="line"/>
      <point x="261" y="177" type="line"/>
      <point x="442" y="177" type="line"/>
      <point x="442" y="207" type="line"/>
      <point x="261" y="207" type="line"/>
      <point x="261" y="384" type="line"/>
      <point x="231" y="384" type="line"/>
      <point x="231" y="207" type="line"/>
      <point x="50" y="207" type="line"/>
      <point x="50" y="177" type="line"/>
      <point x="231" y="177" type="line"/>
      <point x="231" y="0" type="line"/>
    </contour>
  </outline>
</glyph>
<glyph name="comma" format="1">
  <advance width="248"/>
  <unicode hex="002C"/>
  <outline>
    <contour>
      <point x="70" y="87" type="line"/>
      <point x="70" y="0" type="line"/>
      <point x="130" y="0" type="line"/>
      <point x="130" y="-82"/>
      <point x="93" y="-91"/>
      <point x="60" y="-91" type="curve"/>
      <point x="84" y="-115" type="line"/>
      <point x="132" y="-115"/>
      <point x="178" y="-82"/>
      <point x="178" y="0" type="curve"/>
      <point x="178" y="87" type="line"/>
    </contour>
  </outline>
</glyph>
<glyph name="hyphen" format="1">
  <advance width="323"/>
  <unicode hex="002D"/>
  <outline>
    <contour>
      <point x="10" y="177" type="line"/>
      <point x="313" y="177" type="line"/>
      <point x="313" y="207" type="line"/>
      <point x="10" y="207" type="line"/>
    </contour>
  </outline>
</glyph>
<glyph name="slash" format="1">
  <advance width="300"/>
  <unicode hex="002F"/>
  <outline>
    <contour>
      <point x="54" y="-143" type="line"/>
      <point x="275" y="682" type="line"/>
      <point x="246" y="689" type="line"/>
      <point x="25" y="-136" type="line"/>
    </contour>
  </outline>
</glyph>
<glyph name="zero" format="1">
  <advance width="608"/>
  <unicode hex="0030"/>
  <outline>
    <contour>
      <point x="50" y="268" type="curve"/>
      <point x="50" y="114"/>
      <point x="143" y="-10"/>
      <point x="304" y="-10" type="curve" smooth="yes"/>
      <point x="465" y="-10"/>
      <point x="558" y="114"/>
      <point x="558" y="268" type="curve" smooth="yes"/>
      <point x="558" y="422"/>
      <point x="465" y="545"/>
      <point x="304" y="545" type="curve" smooth="yes"/>
      <point x="143" y="545"/>
      <point x="50" y="422"/>
    </contour>
    <contour>
      <point x="145" y="268" type="curve"/>
      <point x="145" y="386"/>
      <point x="190" y="479"/>
      <point x="304" y="479" type="curve" smooth="yes"/>
      <point x="418" y="479"/>
      <point x="463" y="386"/>
      <point x="463" y="268" type="curve" smooth="yes"/>
      <point x="463" y="150"/>
      <point x="417" y="56"/>
      <point x="304" y="56" type="curve" smooth="yes"/>
      <point x="190" y="56"/>
      <point x="145" y="150"/>
    </contour>
  </outline>
</glyph>
<glyph name="one" format="1">
  <advance width="430"/>
  <unicode hex="0031"/>
  <outline>
    <contour>
      <point x="370" y="0" type="line"/>
      <point x="370" y="538" type="line"/>
      <point x="301" y="538" type="line"/>
      <point x="271" y="426"/>
      <point x="164" y="400"/>
      <point x="40" y="400" type="curve"/>
      <point x="40" y="333" type="line"/>
      <point x="203" y="333"/>
      <point x="271" y="373"/>
      <point x="289" y="421" type="curve"/>
      <point x="285" y="0" type="line"/>
    </contour>
  </outline>
</glyph>
<glyph name="two" format="1">
  <advance width="576"/>
  <unicode hex="0032"/>
  <outline>
    <contour>
      <point x="520" y="379" type="curve"/>
      <point x="520" y="470"/>
      <point x="444" y="545"/>
      <point x="316" y="545" type="curve"/>
      <point x="150" y="545"/>
      <point x="79" y="450"/>
      <point x="66" y="360" type="curve"/>
      <point x="127" y="334" type="line"/>
      <point x="138" y="410"/>
      <point x="199" y="479"/>
      <point x="301" y="479" type="curve" smooth="yes"/>
      <point x="384" y="479"/>
      <point x="429" y="430"/>
      <point x="429" y="365" type="curve"/>
      <point x="429" y="236"/>
      <point x="210" y="136"/>
      <point x="50" y="66" type="curve"/>
      <point x="50" y="0" type="line"/>
      <point x="526" y="0" type="line"/>
      <point x="526" y="66" type="line"/>
      <point x="172" y="66" type="line"/>
      <point x="292" y="114"/>
      <point x="520" y="221"/>
    </contour>
  </outline>
</glyph>
<glyph name="three" format="1">
  <advance width="567"/>
  <unicode hex="0033"/>
  <outline>
    <contour>
      <point x="218" y="259" type="line"/>
      <point x="339" y="259"/>
      <point x="422" y="238"/>
      <point x="422" y="152" type="curve" smooth="yes"/>
      <point x="422" y="86"/>
      <point x="368" y="56"/>
      <point x="281" y="56" type="curve" smooth="yes"/>
      <point x="141" y="56"/>
      <point x="131" y="177"/>
      <point x="131" y="177" type="curve"/>
      <point x="59" y="135" type="line"/>
      <point x="59" y="135"/>
      <point x="83" y="-10"/>
      <point x="286" y="-10" type="curve" smooth="yes"/>
      <point x="416" y="-10"/>
      <point x="517" y="45"/>
      <point x="517" y="151" type="curve" smooth="yes"/>
      <point x="517" y="243"/>
      <point x="427" y="290"/>
      <point x="367" y="294" type="curve"/>
      <point x="426" y="303"/>
      <point x="491" y="341"/>
      <point x="491" y="413" type="curve" smooth="yes"/>
      <point x="491" y="491"/>
      <point x="406" y="545"/>
      <point x="309" y="545" type="curve"/>
      <point x="100" y="545"/>
      <point x="89" y="390"/>
      <point x="89" y="390" type="curve"/>
      <point x="160" y="372" type="line"/>
      <point x="160" y="372"/>
      <point x="170" y="479"/>
      <point x="294" y="479" type="curve"/>
      <point x="361" y="479"/>
      <point x="396" y="441"/>
      <point x="396" y="394" type="curve"/>
      <point x="396" y="338"/>
      <point x="338" y="306"/>
      <point x="269" y="306" type="curve" smooth="yes"/>
      <point x="218" y="306" type="line"/>
    </contour>
  </outline>
</glyph>
<glyph name="four" format="1">
  <advance width="572"/>
  <unicode hex="0034"/>
  <outline>
    <contour>
      <point x="8" y="165" type="line"/>
      <point x="369" y="165" type="line"/>
      <point x="369" y="0" type="line"/>
      <point x="454" y="0" type="line"/>
      <point x="454" y="165" type="line"/>
      <point x="552" y="165" type="line"/>
      <point x="552" y="231" type="line"/>
      <point x="454" y="231" type="line"/>
      <point x="449" y="538" type="line"/>
      <point x="340" y="538" type="line"/>
      <point x="8" y="203" type="line"/>
    </contour>
    <contour>
      <point x="371" y="471" type="line"/>
      <point x="369" y="231" type="line"/>
      <point x="126" y="231" type="line"/>
    </contour>
  </outline>
</glyph>
<glyph name="five" format="1">
  <advance width="593"/>
  <unicode hex="0035"/>
  <outline>
    <contour>
      <point x="480" y="538" type="line"/>
      <point x="144" y="538" type="line"/>
      <point x="96" y="253" type="line"/>
      <point x="163" y="253" type="line"/>
      <point x="163" y="253"/>
      <point x="213" y="298"/>
      <point x="307" y="298" type="curve"/>
      <point x="412" y="298"/>
      <point x="463" y="238"/>
      <point x="463" y="174" type="curve" smooth="yes"/>
      <point x="463" y="106"/>
      <point x="414" y="56"/>
      <point x="304" y="56" type="curve"/>
      <point x="157" y="56"/>
      <point x="144" y="177"/>
      <point x="144" y="177" type="curve"/>
      <point x="72" y="135" type="line"/>
      <point x="72" y="135"/>
      <point x="104" y="-10"/>
      <point x="316" y="-10" type="curve"/>
      <point x="459" y="-10"/>
      <point x="553" y="67"/>
      <point x="553" y="182" type="curve" smooth="yes"/>
      <point x="553" y="287"/>
      <point x="461" y="362"/>
      <point x="337" y="362" type="curve" smooth="yes"/>
      <point x="234" y="362"/>
      <point x="173" y="306"/>
      <point x="173" y="306" type="curve"/>
      <point x="208" y="472" type="line"/>
      <point x="480" y="472" type="line"/>
    </contour>
  </outline>
</glyph>
<glyph name="six" format="1">
  <advance width="581"/>
  <unicode hex="0036"/>
  <outline>
    <contour>
      <point x="319" y="479" type="curve" smooth="yes"/>
      <point x="395" y="479"/>
      <point x="431" y="427"/>
      <point x="431" y="427" type="curve"/>
      <point x="480" y="462" type="line"/>
      <point x="480" y="462"/>
      <point x="437" y="545"/>
      <point x="306" y="545" type="curve" smooth="yes"/>
      <point x="154" y="545"/>
      <point x="50" y="404"/>
      <point x="50" y="254" type="curve" smooth="yes"/>
      <point x="50" y="103"/>
      <point x="141" y="-10"/>
      <point x="306" y="-10" type="curve" smooth="yes"/>
      <point x="433" y="-10"/>
      <point x="531" y="53"/>
      <point x="531" y="170" type="curve" smooth="yes"/>
      <point x="531" y="264"/>
      <point x="447" y="335"/>
      <point x="338" y="335" type="curve" smooth="yes"/>
      <point x="225" y="335"/>
      <point x="152" y="267"/>
      <point x="140" y="248" type="curve"/>
      <point x="140" y="375"/>
      <point x="205" y="479"/>
    </contour>
    <contour>
      <point x="311" y="272" type="curve"/>
      <point x="385" y="272"/>
      <point x="436" y="224"/>
      <point x="436" y="157" type="curve" smooth="yes"/>
      <point x="436" y="104"/>
      <point x="392" y="56"/>
      <point x="309" y="56" type="curve" smooth="yes"/>
      <point x="206" y="56"/>
      <point x="157" y="133"/>
      <point x="142" y="211" type="curve"/>
      <point x="157" y="228"/>
      <point x="231" y="272"/>
    </contour>
  </outline>
</glyph>
<glyph name="seven" format="1">
  <advance width="496"/>
  <unicode hex="0037"/>
  <outline>
    <contour>
      <point x="496" y="538" type="line"/>
      <point x="10" y="538" type="line"/>
      <point x="10" y="472" type="line"/>
      <point x="410" y="472" type="line"/>
      <point x="410" y="472"/>
      <point x="146" y="302"/>
      <point x="63" y="0" type="curve"/>
      <point x="155" y="0" type="line"/>
      <point x="229" y="293"/>
      <point x="496" y="482"/>
      <point x="496" y="482" type="curve"/>
    </contour>
  </outline>
</glyph>
<glyph name="eight" format="1">
  <advance width="560"/>
  <unicode hex="0038"/>
  <outline>
    <contour>
      <point x="515" y="397" type="curve" smooth="yes"/>
      <point x="515" y="482"/>
      <point x="401" y="545"/>
      <point x="280" y="545" type="curve" smooth="yes"/>
      <point x="159" y="545"/>
      <point x="45" y="482"/>
      <point x="45" y="397" type="curve" smooth="yes"/>
      <point x="45" y="294"/>
      <point x="189" y="275"/>
      <point x="205" y="273" type="curve"/>
      <point x="189" y="270"/>
      <point x="30" y="247"/>
      <point x="30" y="148" type="curve" smooth="yes"/>
      <point x="30" y="48"/>
      <point x="149" y="-10"/>
      <point x="280" y="-10" type="curve" smooth="yes"/>
      <point x="411" y="-10"/>
      <point x="530" y="48"/>
      <point x="530" y="148" type="curve" smooth="yes"/>
      <point x="530" y="247"/>
      <point x="396" y="279"/>
      <point x="383" y="282" type="curve"/>
      <point x="395" y="284"/>
      <point x="515" y="314"/>
    </contour>
    <contour>
      <point x="435" y="148" type="curve" smooth="yes"/>
      <point x="435" y="90"/>
      <point x="364" y="56"/>
      <point x="280" y="56" type="curve" smooth="yes"/>
      <point x="196" y="56"/>
      <point x="125" y="90"/>
      <point x="125" y="148" type="curve" smooth="yes"/>
      <point x="125" y="230"/>
      <point x="234" y="253"/>
      <point x="262" y="253" type="curve" smooth="yes"/>
      <point x="336" y="253"/>
      <point x="435" y="226"/>
    </contour>
    <contour>
      <point x="140" y="397" type="curve" smooth="yes"/>
      <point x="140" y="440"/>
      <point x="187" y="479"/>
      <point x="280" y="479" type="curve" smooth="yes"/>
      <point x="374" y="479"/>
      <point x="420" y="440"/>
      <point x="420" y="397" type="curve" smooth="yes"/>
      <point x="420" y="328"/>
      <point x="331" y="304"/>
      <point x="304" y="304" type="curve" smooth="yes"/>
      <point x="288" y="304"/>
      <point x="140" y="306"/>
    </contour>
  </outline>
</glyph>
<glyph name="nine" format="1">
  <advance width="581"/>
  <unicode hex="0039"/>
  <outline>
    <contour>
      <point x="51" y="136" type="line"/>
      <point x="51" y="136"/>
      <point x="78" y="-10"/>
      <point x="267" y="-10" type="curve"/>
      <point x="450" y="-10"/>
      <point x="531" y="131"/>
      <point x="531" y="281" type="curve" smooth="yes"/>
      <point x="531" y="420"/>
      <point x="437" y="545"/>
      <point x="278" y="545" type="curve" smooth="yes"/>
      <point x="154" y="545"/>
      <point x="50" y="473"/>
      <point x="50" y="365" type="curve" smooth="yes"/>
      <point x="50" y="254"/>
      <point x="134" y="200"/>
      <point x="245" y="200" type="curve" smooth="yes"/>
      <point x="344" y="200"/>
      <point x="416" y="251"/>
      <point x="441" y="287" type="curve"/>
      <point x="453" y="155"/>
      <point x="370" y="56"/>
      <point x="265" y="56" type="curve"/>
      <point x="142" y="56"/>
      <point x="123" y="178"/>
      <point x="123" y="178" type="curve"/>
    </contour>
    <contour>
      <point x="266" y="263" type="curve"/>
      <point x="202" y="263"/>
      <point x="145" y="298"/>
      <point x="145" y="365" type="curve" smooth="yes"/>
      <point x="145" y="428"/>
      <point x="197" y="479"/>
      <point x="275" y="479" type="curve" smooth="yes"/>
      <point x="367" y="479"/>
      <point x="422" y="416"/>
      <point x="439" y="336" type="curve"/>
      <point x="411" y="296"/>
      <point x="326" y="263"/>
    </contour>
  </outline>
</glyph>
<glyph name="colon" format="1">
  <advance width="248"/>
  <unicode hex="003A"/>
  <outline>
    <contour>
      <point x="70" y="87" type="line"/>
      <point x="70" y="0" type="line"/>
      <point x="178" y="0" type="line"/>
      <point x="178" y="87" type="line"/>
    </contour>
    <contour>
      <point x="70" y="384" type="line"/>
      <point x="70" y="297" type="line"/>
      <point x="178" y="297" type="line"/>
      <point x="178" y="384" type="line"/>
    </contour>
  </outline>
</glyph>
<glyph name="semicolon" format="1">
  <advance width="248"/>
  <unicode hex="003B"/>
  <outline>
    <contour>
      <point x="70" y="384" type="line"/>
      <point x="70" y="297" type="line"/>
      <point x="178" y="297" type="line"/>
      <point x="178" y="384" type="line"/>
    </contour>
    <contour>
      <point x="70" y="87" type="line"/>
      <point x="70" y="0" type="line"/>
      <point x="130" y="0" type="line"/>
      <point x="130" y="-82"/>
      <point x="93" y="-91"/>
      <point x="60" y="-91" type="curve"/>
      <point x="84" y="-115" type="line"/>
      <point x="132" y="-115"/>
      <point x="178" y="-82"/>
      <point x="178" y="0" type="curve" smooth="yes"/>
      <point x="178" y="87" type="line"/>
    </contour>
  </outline>
</glyph>
<glyph name="less" format="1">
  <advance width="300"/>
  <unicode hex="003C"/>
  <outline>
    <contour>
      <point x="35" y="192" type="line"/>
      <point x="251" y="26" type="line"/>
      <point x="251" y="60" type="line"/>
      <point x="77" y="192" type="line"/>
      <point x="254" y="328" type="line"/>
      <point x="254" y="361" type="line"/>
    </contour>
  </outline>
</glyph>
<glyph name="greater" format="1">
  <advance width="300"/>
  <unicode hex="003E"/>
  <outline>
    <contour>
      <point x="35" y="361" type="line"/>
      <point x="35" y="328" type="line"/>
      <point x="212" y="192" type="line"/>
      <point x="38" y="60" type="line"/>
      <point x="38" y="26" type="line"/>
      <point x="254" y="192" type="line"/>
    </contour>
  </outline>
</glyph>
<glyph name="question" format="1">
  <advance width="576"/>
  <unicode hex="003F"/>
  <outline>
    <contour>
      <point x="520" y="379" type="curve"/>
      <point x="520" y="449"/>
      <point x="468" y="545"/>
      <point x="314" y="545" type="curve"/>
      <point x="90" y="545"/>
      <point x="66" y="360"/>
      <point x="66" y="360" type="curve"/>
      <point x="126" y="334" type="line"/>
      <point x="126" y="334"/>
      <point x="152" y="479"/>
      <point x="307" y="479" type="curve"/>
      <point x="384" y="479"/>
      <point x="429" y="425"/>
      <point x="429" y="371" type="curve"/>
      <point x="429" y="277"/>
      <point x="363" y="251"/>
      <point x="238" y="231" type="curve"/>
      <point x="239" y="166" type="line"/>
      <point x="310" y="166" type="line"/>
      <point x="310" y="220" type="line"/>
      <point x="450" y="240"/>
      <point x="520" y="280"/>
    </contour>
    <component base="period" xOffset="150"/>
  </outline>
</glyph>
<glyph name="at" format="1">
  <advance width="842"/>
  <unicode hex="0040"/>
  <outline>
    <contour>
      <point x="386" y="-120" type="line"/>
      <point x="160" y="-100"/>
      <point x="50" y="13"/>
      <point x="50" y="177" type="curve" smooth="yes"/>
      <point x="50" y="331"/>
      <point x="191" y="480"/>
      <point x="421" y="480" type="curve" smooth="yes"/>
      <point x="651" y="480"/>
      <point x="792" y="349"/>
      <point x="792" y="187" type="curve" smooth="yes"/>
      <point x="792" y="48"/>
      <point x="697" y="9"/>
      <point x="616" y="9" type="curve" smooth="yes"/>
      <point x="540" y="9"/>
      <point x="499" y="55"/>
      <point x="501" y="93" type="curve"/>
      <point x="501" y="93"/>
      <point x="465" y="9"/>
      <point x="356" y="9" type="curve"/>
      <point x="270" y="9"/>
      <point x="197" y="72"/>
      <point x="197" y="160" type="curve"/>
      <point x="197" y="281"/>
      <point x="301" y="358"/>
      <point x="417" y="358" type="curve"/>
      <point x="509" y="358"/>
      <point x="542" y="289"/>
      <point x="542" y="289" type="curve"/>
      <point x="593" y="342" type="line"/>
      <point x="634" y="342" type="line"/>
      <point x="571" y="111" type="line" smooth="yes"/>
      <point x="562" y="79"/>
      <point x="562" y="44"/>
      <point x="618" y="44" type="curve"/>
      <point x="671" y="44"/>
      <point x="749" y="62"/>
      <point x="749" y="187" type="curve" smooth="yes"/>
      <point x="749" y="335"/>
      <point x="633" y="451"/>
      <point x="421" y="451" type="curve" smooth="yes"/>
      <point x="219" y="451"/>
      <point x="93" y="317"/>
      <point x="93" y="177" type="curve" smooth="yes"/>
      <point x="93" y="28"/>
      <point x="176" y="-68"/>
      <point x="398" y="-88" type="curve"/>
    </contour>
    <contour>
      <point x="440" y="291" type="curve"/>
      <point x="356" y="291"/>
      <point x="289" y="243"/>
      <point x="289" y="170" type="curve"/>
      <point x="289" y="105"/>
      <point x="341" y="75"/>
      <point x="403" y="75" type="curve"/>
      <point x="445" y="75"/>
      <point x="479" y="86"/>
      <point x="488" y="121" type="curve" smooth="yes"/>
      <point x="525" y="261" type="line"/>
      <point x="525" y="261"/>
      <point x="514" y="291"/>
    </contour>
  </outline>
</glyph>
<glyph name="A" format="1">
  <advance width="646"/>
  <unicode hex="0041"/>
  <outline>
    <contour>
      <point x="323" y="578" type="move" name="top"/>
    </contour>
    <contour>
      <point x="0" y="0" type="line"/>
      <point x="89" y="0" type="line"/>
      <point x="166" y="175" type="line"/>
      <point x="478" y="175" type="line"/>
      <point x="478" y="177" type="line"/>
      <point x="558" y="0" type="line"/>
      <point x="646" y="0" type="line"/>
      <point x="397" y="538" type="line"/>
      <point x="249" y="538" type="line"/>
    </contour>
    <contour>
      <point x="300" y="474" type="line"/>
      <point x="323" y="470"/>
      <point x="345" y="474"/>
      <point x="345" y="474" type="curve"/>
      <point x="451" y="241" type="line"/>
      <point x="193" y="241" type="line"/>
    </contour>
  </outline>
</glyph>
<glyph name="B" format="1">
  <advance width="669"/>
  <unicode hex="0042"/>
  <outline>
    <contour>
      <point x="396" y="538" type="line" smooth="yes"/>
      <point x="511" y="538"/>
      <point x="609" y="494"/>
      <point x="609" y="403" type="curve" smooth="yes"/>
      <point x="609" y="329"/>
      <point x="524" y="293"/>
      <point x="484" y="290" type="curve"/>
      <point x="525" y="286"/>
      <point x="629" y="255"/>
      <point x="629" y="149" type="curve" smooth="yes"/>
      <point x="629" y="37"/>
      <point x="514" y="0"/>
      <point x="413" y="0" type="curve" smooth="yes"/>
      <point x="70" y="0" type="line"/>
      <point x="70" y="538" type="line"/>
    </contour>
    <contour>
      <point x="379" y="66" type="line" smooth="yes"/>
      <point x="481" y="66"/>
      <point x="541" y="75"/>
      <point x="541" y="147" type="curve" smooth="yes"/>
      <point x="541" y="231"/>
      <point x="481" y="243"/>
      <point x="377" y="243" type="curve" smooth="yes"/>
      <point x="158" y="243" type="line"/>
      <point x="158" y="66" type="line"/>
    </contour>
    <contour>
      <point x="159" y="309" type="line"/>
      <point x="376" y="309" type="line" smooth="yes"/>
      <point x="454" y="309"/>
      <point x="521" y="329"/>
      <point x="521" y="386" type="curve" smooth="yes"/>
      <point x="521" y="463"/>
      <point x="451" y="472"/>
      <point x="367" y="472" type="curve" smooth="yes"/>
      <point x="159" y="472" type="line"/>
    </contour>
  </outline>
</glyph>
<glyph name="C" format="1">
  <advance width="647"/>
  <unicode hex="0043"/>
  <outline>
    <contour>
      <point x="323" y="578" type="move" name="top"/>
    </contour>
    <contour>
      <point x="323" y="-20" type="move" name="bottom"/>
    </contour>
    <contour>
      <point x="522" y="207" type="line"/>
      <point x="522" y="207"/>
      <point x="514" y="56"/>
      <point x="328" y="56" type="curve" smooth="yes"/>
      <point x="200" y="56"/>
      <point x="124" y="142"/>
      <point x="124" y="268" type="curve" smooth="yes"/>
      <point x="124" y="394"/>
      <point x="200" y="479"/>
      <point x="328" y="479" type="curve"/>
      <point x="455" y="479"/>
      <point x="518" y="390"/>
      <point x="518" y="311" type="curve"/>
      <point x="589" y="329" type="line"/>
      <point x="589" y="421"/>
      <point x="500" y="545"/>
      <point x="328" y="545" type="curve"/>
      <point x="153" y="545"/>
      <point x="30" y="430"/>
      <point x="30" y="268" type="curve" smooth="yes"/>
      <point x="30" y="106"/>
      <point x="143" y="-10"/>
      <point x="329" y="-10" type="curve" smooth="yes"/>
      <point x="600" y="-10"/>
      <point x="606" y="207"/>
      <point x="606" y="207" type="curve"/>
    </contour>
  </outline>
</glyph>
<glyph name="D" format="1">
  <advance width="652"/>
  <unicode hex="0044"/>
  <outline>
    <contour>
      <point x="346" y="538" type="line" smooth="yes"/>
      <point x="481" y="538"/>
      <point x="609" y="471"/>
      <point x="609" y="333" type="curve"/>
      <point x="613" y="303"/>
      <point x="612" y="249"/>
      <point x="609" y="210" type="curve"/>
      <point x="609" y="68"/>
      <point x="480" y="0"/>
      <point x="347" y="0" type="curve" smooth="yes"/>
      <point x="70" y="0" type="line"/>
      <point x="70" y="538" type="line"/>
    </contour>
    <contour>
      <point x="521" y="315" type="curve" smooth="yes"/>
      <point x="514" y="407"/>
      <point x="461" y="472"/>
      <point x="317" y="472" type="curve" smooth="yes"/>
      <point x="158" y="472" type="line"/>
      <point x="158" y="66" type="line"/>
      <point x="316" y="66" type="line" smooth="yes"/>
      <point x="463" y="66"/>
      <point x="512" y="122"/>
      <point x="521" y="216" type="curve" smooth="yes"/>
      <point x="523" y="238"/>
      <point x="523" y="290"/>
    </contour>
  </outline>
</glyph>
<glyph name="E" format="1">
  <advance width="587"/>
  <unicode hex="0045"/>
  <outline>
    <contour>
      <point x="303" y="578" type="move" name="top"/>
    </contour>
    <contour>
      <point x="70" y="0" type="line"/>
      <point x="537" y="0" type="line"/>
      <point x="537" y="66" type="line"/>
      <point x="158" y="66" type="line"/>
      <point x="158" y="234" type="line"/>
      <point x="477" y="234" type="line"/>
      <point x="477" y="300" type="line"/>
      <point x="158" y="300" type="line"/>
      <point x="158" y="472" type="line"/>
      <point x="517" y="472" type="line"/>
      <point x="517" y="538" type="line"/>
      <point x="70" y="538" type="line"/>
    </contour>
  </outline>
</glyph>
<glyph name="F" format="1">
  <advance width="517"/>
  <unicode hex="0046"/>
  <outline>
    <contour>
      <point x="70" y="0" type="line"/>
      <point x="158" y="0" type="line"/>
      <point x="158" y="234" type="line"/>
      <point x="477" y="234" type="line"/>
      <point x="477" y="300" type="line"/>
      <point x="158" y="300" type="line"/>
      <point x="158" y="472" type="line"/>
      <point x="517" y="472" type="line"/>
      <point x="517" y="538" type="line"/>
      <point x="70" y="538" type="line"/>
    </contour>
  </outline>
</glyph>
<glyph name="G" format="1">
  <advance width="693"/>
  <unicode hex="0047"/>
  <outline>
    <contour>
      <point x="344" y="214" type="line"/>
      <point x="522" y="214" type="line"/>
      <point x="522" y="206" type="line"/>
      <point x="522" y="206"/>
      <point x="515" y="56"/>
      <point x="324" y="56" type="curve" smooth="yes"/>
      <point x="203" y="56"/>
      <point x="124" y="142"/>
      <point x="124" y="268" type="curve" smooth="yes"/>
      <point x="124" y="394"/>
      <point x="200" y="479"/>
      <point x="329" y="479" type="curve" smooth="yes"/>
      <point x="472" y="479"/>
      <point x="518" y="372"/>
      <point x="518" y="311" type="curve"/>
      <point x="589" y="329" type="line"/>
      <point x="589" y="409"/>
      <point x="510" y="545"/>
      <point x="331" y="545" type="curve" smooth="yes"/>
      <point x="153" y="545"/>
      <point x="30" y="430"/>
      <point x="30" y="268" type="curve" smooth="yes"/>
      <point x="30" y="96"/>
      <point x="158" y="-10"/>
      <point x="320" y="-10" type="curve"/>
      <point x="466" y="-10"/>
      <point x="534" y="81"/>
      <point x="547" y="177" type="curve"/>
      <point x="546" y="0" type="line"/>
      <point x="623" y="0" type="line"/>
      <point x="623" y="280" type="line"/>
      <point x="344" y="280" type="line"/>
    </contour>
  </outline>
</glyph>
<glyph name="H" format="1">
  <advance width="727"/>
  <unicode hex="0048"/>
  <outline>
    <contour>
      <point x="569" y="0" type="line"/>
      <point x="657" y="0" type="line"/>
      <point x="657" y="538" type="line"/>
      <point x="569" y="538" type="line"/>
      <point x="569" y="291" type="line"/>
      <point x="158" y="291" type="line"/>
      <point x="158" y="538" type="line"/>
      <point x="70" y="538" type="line"/>
      <point x="70" y="0" type="line"/>
      <point x="158" y="0" type="line"/>
      <point x="158" y="224" type="line"/>
      <point x="569" y="224" type="line"/>
    </contour>
  </outline>
</glyph>
<glyph name="I" format="1">
  <advance width="228"/>
  <unicode hex="0049"/>
  <outline>
    <contour>
      <point x="114" y="578" type="move" name="top"/>
    </contour>
    <contour>
      <point x="70" y="538" type="line"/>
      <point x="70" y="0" type="line"/>
      <point x="158" y="0" type="line"/>
      <point x="158" y="538" type="line"/>
    </contour>
  </outline>
</glyph>
<glyph name="J" format="1">
  <advance width="530"/>
  <unicode hex="004A"/>
  <outline>
    <contour>
      <point x="44" y="207" type="line"/>
      <point x="44" y="57"/>
      <point x="101" y="-9"/>
      <point x="250" y="-10" type="curve"/>
      <point x="400" y="-10"/>
      <point x="460" y="58"/>
      <point x="460" y="207" type="curve" smooth="yes"/>
      <point x="460" y="538" type="line"/>
      <point x="372" y="538" type="line"/>
      <point x="372" y="207" type="line" smooth="yes"/>
      <point x="372" y="106"/>
      <point x="344" y="56"/>
      <point x="250" y="56" type="curve" smooth="yes"/>
      <point x="139" y="56"/>
      <point x="131" y="136"/>
      <point x="131" y="207" type="curve"/>
    </contour>
  </outline>
</glyph>
<glyph name="K" format="1">
  <advance width="619"/>
  <unicode hex="004B"/>
  <outline>
    <contour>
      <point x="467" y="538" type="line"/>
      <point x="159" y="258" type="line"/>
      <point x="159" y="538" type="line"/>
      <point x="70" y="538" type="line"/>
      <point x="70" y="0" type="line"/>
      <point x="158" y="0" type="line"/>
      <point x="158" y="168" type="line"/>
      <point x="255" y="251" type="line"/>
      <point x="501" y="0" type="line"/>
      <point x="609" y="0" type="line"/>
      <point x="312" y="299" type="line"/>
      <point x="575" y="538" type="line"/>
    </contour>
  </outline>
</glyph>
<glyph name="L" format="1">
  <advance width="507"/>
  <unicode hex="004C"/>
  <outline>
    <contour>
      <point x="70" y="0" type="line"/>
      <point x="497" y="0" type="line"/>
      <point x="497" y="66" type="line"/>
      <point x="158" y="66" type="line"/>
      <point x="158" y="538" type="line"/>
      <point x="70" y="538" type="line"/>
    </contour>
  </outline>
</glyph>
<glyph name="M" format="1">
  <advance width="798"/>
  <unicode hex="004D"/>
  <outline>
    <contour>
      <point x="637" y="355" type="line"/>
      <point x="650" y="395" type="line"/>
      <point x="646" y="355" type="line"/>
      <point x="640" y="0" type="line"/>
      <point x="728" y="0" type="line"/>
      <point x="728" y="538" type="line"/>
      <point x="639" y="538" type="line"/>
      <point x="423" y="64" type="line"/>
      <point x="423" y="64"/>
      <point x="396" y="68"/>
      <point x="374" y="64" type="curve"/>
      <point x="159" y="538" type="line"/>
      <point x="70" y="538" type="line"/>
      <point x="70" y="0" type="line"/>
      <point x="158" y="0" type="line"/>
      <point x="153" y="355" type="line"/>
      <point x="147" y="394" type="line"/>
      <point x="161" y="355" type="line"/>
      <point x="323" y="0" type="line"/>
      <point x="472" y="0" type="line"/>
    </contour>
  </outline>
</glyph>
<glyph name="N" format="1">
  <advance width="680"/>
  <unicode hex="004E"/>
  <outline>
    <contour>
      <point x="610" y="538" type="line"/>
      <point x="522" y="538" type="line"/>
      <point x="522" y="61" type="line"/>
      <point x="159" y="538" type="line"/>
      <point x="70" y="538" type="line"/>
      <point x="70" y="0" type="line"/>
      <point x="158" y="0" type="line"/>
      <point x="154" y="416" type="line"/>
      <point x="467" y="0" type="line"/>
      <point x="610" y="0" type="line"/>
    </contour>
  </outline>
</glyph>
<glyph name="O" format="1">
  <advance width="708"/>
  <unicode hex="004F"/>
  <outline>
    <contour>
      <point x="354" y="578" type="move" name="top"/>
    </contour>
    <contour>
      <point x="40" y="268" type="curve"/>
      <point x="40" y="106"/>
      <point x="163" y="-10"/>
      <point x="354" y="-10" type="curve" smooth="yes"/>
      <point x="545" y="-10"/>
      <point x="668" y="106"/>
      <point x="668" y="268" type="curve" smooth="yes"/>
      <point x="668" y="430"/>
      <point x="545" y="545"/>
      <point x="354" y="545" type="curve" smooth="yes"/>
      <point x="163" y="545"/>
      <point x="40" y="430"/>
    </contour>
    <contour>
      <point x="135" y="268" type="curve"/>
      <point x="135" y="394"/>
      <point x="210" y="479"/>
      <point x="354" y="479" type="curve" smooth="yes"/>
      <point x="498" y="479"/>
      <point x="573" y="394"/>
      <point x="573" y="268" type="curve" smooth="yes"/>
      <point x="573" y="142"/>
      <point x="497" y="56"/>
      <point x="354" y="56" type="curve" smooth="yes"/>
      <point x="210" y="56"/>
      <point x="135" y="142"/>
    </contour>
  </outline>
</glyph>
<glyph name="P" format="1">
  <advance width="629"/>
  <unicode hex="0050"/>
  <outline>
    <contour>
      <point x="158" y="234" type="line"/>
      <point x="158" y="0" type="line"/>
      <point x="70" y="0" type="line"/>
      <point x="70" y="538" type="line"/>
      <point x="396" y="538" type="line" smooth="yes"/>
      <point x="511" y="538"/>
      <point x="609" y="497"/>
      <point x="609" y="384" type="curve" smooth="yes"/>
      <point x="609" y="283"/>
      <point x="514" y="234"/>
      <point x="395" y="234" type="curve"/>
    </contour>
    <contour>
      <point x="159" y="300" type="line"/>
      <point x="366" y="300" type="line" smooth="yes"/>
      <point x="451" y="300"/>
      <point x="521" y="312"/>
      <point x="521" y="384" type="curve" smooth="yes"/>
      <point x="521" y="462"/>
      <point x="451" y="472"/>
      <point x="367" y="472" type="curve" smooth="yes"/>
      <point x="159" y="472" type="line"/>
    </contour>
  </outline>
</glyph>
<glyph name="Q" format="1">
  <advance width="708"/>
  <unicode hex="0051"/>
  <outline>
    <contour>
      <point x="40" y="268" type="curve" smooth="yes"/>
      <point x="40" y="106"/>
      <point x="163" y="-10"/>
      <point x="354" y="-10" type="curve" smooth="yes"/>
      <point x="359" y="-10" type="line"/>
      <point x="628" y="-161" type="line"/>
      <point x="657" y="-84" type="line"/>
      <point x="424" y="-4" type="line"/>
      <point x="575" y="21"/>
      <point x="668" y="127"/>
      <point x="668" y="268" type="curve" smooth="yes"/>
      <point x="668" y="430"/>
      <point x="545" y="545"/>
      <point x="354" y="545" type="curve" smooth="yes"/>
      <point x="163" y="545"/>
      <point x="40" y="430"/>
    </contour>
    <contour>
      <point x="135" y="268" type="curve" smooth="yes"/>
      <point x="135" y="394"/>
      <point x="210" y="479"/>
      <point x="354" y="479" type="curve" smooth="yes"/>
      <point x="498" y="479"/>
      <point x="573" y="394"/>
      <point x="573" y="268" type="curve" smooth="yes"/>
      <point x="573" y="142"/>
      <point x="497" y="56"/>
      <point x="354" y="56" type="curve" smooth="yes"/>
      <point x="210" y="56"/>
      <point x="135" y="142"/>
    </contour>
  </outline>
</glyph>
<glyph name="R" format="1">
  <advance width="649"/>
  <unicode hex="0052"/>
  <outline>
    <contour>
      <point x="609" y="386" type="curve" smooth="yes"/>
      <point x="609" y="498"/>
      <point x="531" y="538"/>
      <point x="406" y="538" type="curve" smooth="yes"/>
      <point x="70" y="538" type="line"/>
      <point x="70" y="0" type="line"/>
      <point x="158" y="0" type="line"/>
      <point x="158" y="234" type="line"/>
      <point x="319" y="234" type="line"/>
      <point x="393" y="234"/>
      <point x="469" y="56"/>
      <point x="507" y="0" type="curve"/>
      <point x="609" y="0" type="line"/>
      <point x="544" y="88"/>
      <point x="479" y="234"/>
      <point x="411" y="234" type="curve"/>
      <point x="522" y="241"/>
      <point x="609" y="272"/>
    </contour>
    <contour>
      <point x="159" y="472" type="line"/>
      <point x="367" y="472" type="line" smooth="yes"/>
      <point x="471" y="472"/>
      <point x="521" y="457"/>
      <point x="521" y="387" type="curve" smooth="yes"/>
      <point x="521" y="318"/>
      <point x="477" y="300"/>
      <point x="366" y="300" type="curve" smooth="yes"/>
      <point x="159" y="300" type="line"/>
    </contour>
  </outline>
</glyph>
<glyph name="S" format="1">
  <advance width="598"/>
  <unicode hex="0053"/>
  <outline>
    <contour>
      <point x="262" y="325" type="line" smooth="yes"/>
      <point x="210" y="335"/>
      <point x="175" y="360"/>
      <point x="175" y="401" type="curve"/>
      <point x="175" y="450"/>
      <point x="232" y="479"/>
      <point x="304" y="479" type="curve"/>
      <point x="425" y="479"/>
      <point x="480" y="402"/>
      <point x="480" y="402" type="curve"/>
      <point x="528" y="454" type="line"/>
      <point x="528" y="454"/>
      <point x="468" y="545"/>
      <point x="307" y="545" type="curve"/>
      <point x="163" y="545"/>
      <point x="85" y="477"/>
      <point x="85" y="396" type="curve"/>
      <point x="85" y="329"/>
      <point x="130" y="286"/>
      <point x="209" y="270" type="curve" smooth="yes"/>
      <point x="353" y="240" type="line" smooth="yes"/>
      <point x="432" y="224"/>
      <point x="476" y="191"/>
      <point x="476" y="144" type="curve"/>
      <point x="476" y="94"/>
      <point x="429" y="56"/>
      <point x="336" y="56" type="curve" smooth="yes"/>
      <point x="170" y="56"/>
      <point x="121" y="185"/>
      <point x="121" y="185" type="curve"/>
      <point x="51" y="153" type="line"/>
      <point x="51" y="153"/>
      <point x="103" y="-10"/>
      <point x="337" y="-10" type="curve"/>
      <point x="453" y="-10"/>
      <point x="568" y="44"/>
      <point x="568" y="145" type="curve"/>
      <point x="568" y="219"/>
      <point x="522" y="273"/>
      <point x="412" y="295" type="curve" smooth="yes"/>
    </contour>
  </outline>
</glyph>
<glyph name="T" format="1">
  <advance width="626"/>
  <unicode hex="0054"/>
  <outline>
    <contour>
      <point x="606" y="538" type="line"/>
      <point x="20" y="538" type="line"/>
      <point x="20" y="472" type="line"/>
      <point x="269" y="472" type="line"/>
      <point x="269" y="0" type="line"/>
      <point x="357" y="0" type="line"/>
      <point x="357" y="472" type="line"/>
      <point x="606" y="472" type="line"/>
    </contour>
  </outline>
</glyph>
<glyph name="U" format="1">
  <advance width="676"/>
  <unicode hex="0055"/>
  <outline>
    <contour>
      <point x="338" y="578" type="move" name="top"/>
    </contour>
    <contour>
      <point x="70" y="538" type="line"/>
      <point x="70" y="222" type="line" smooth="yes"/>
      <point x="70" y="60"/>
      <point x="127" y="-10"/>
      <point x="338" y="-10" type="curve" smooth="yes"/>
      <point x="549" y="-10"/>
      <point x="606" y="60"/>
      <point x="606" y="222" type="curve" smooth="yes"/>
      <point x="606" y="538" type="line"/>
      <point x="518" y="538" type="line"/>
      <point x="518" y="222" type="line" smooth="yes"/>
      <point x="518" y="96"/>
      <point x="481" y="56"/>
      <point x="338" y="56" type="curve" smooth="yes"/>
      <point x="194" y="56"/>
      <point x="158" y="96"/>
      <point x="158" y="222" type="curve" smooth="yes"/>
      <point x="158" y="538" type="line"/>
    </contour>
  </outline>
</glyph>
<glyph name="V" format="1">
  <advance width="646"/>
  <unicode hex="0056"/>
  <outline>
    <contour>
      <point x="249" y="0" type="line"/>
      <point x="397" y="0" type="line"/>
      <point x="646" y="538" type="line"/>
      <point x="550" y="538" type="line"/>
      <point x="346" y="64" type="line"/>
      <point x="346" y="64"/>
      <point x="321" y="68"/>
      <point x="299" y="64" type="curve"/>
      <point x="96" y="538" type="line"/>
      <point x="0" y="538" type="line"/>
    </contour>
  </outline>
</glyph>
<glyph name="W" format="1">
  <advance width="899"/>
  <unicode hex="0057"/>
  <outline>
    <contour>
      <point x="449" y="433" type="line"/>
      <point x="582" y="0" type="line"/>
      <point x="700" y="0" type="line"/>
      <point x="899" y="538" type="line"/>
      <point x="812" y="538" type="line"/>
      <point x="640" y="66" type="line"/>
      <point x="639" y="66" type="line"/>
      <point x="501" y="530" type="line"/>
      <point x="398" y="530" type="line"/>
      <point x="259" y="66" type="line"/>
      <point x="258" y="66" type="line"/>
      <point x="87" y="538" type="line"/>
      <point x="0" y="538" type="line"/>
      <point x="199" y="0" type="line"/>
      <point x="317" y="0" type="line"/>
    </contour>
  </outline>
</glyph>
<glyph name="X" format="1">
  <advance width="588"/>
  <unicode hex="0058"/>
  <outline>
    <contour>
      <point x="488" y="0" type="line"/>
      <point x="588" y="0" type="line"/>
      <point x="348" y="272" type="line"/>
      <point x="577" y="538" type="line"/>
      <point x="468" y="538" type="line"/>
      <point x="296" y="325" type="line"/>
      <point x="120" y="538" type="line"/>
      <point x="11" y="538" type="line"/>
      <point x="245" y="277" type="line"/>
      <point x="0" y="0" type="line"/>
      <point x="100" y="0" type="line"/>
      <point x="296" y="224" type="line"/>
    </contour>
  </outline>
</glyph>
<glyph name="Y" format="1">
  <advance width="606"/>
  <unicode hex="0059"/>
  <outline>
    <contour>
      <point x="303" y="578" type="move" name="top"/>
    </contour>
    <contour>
      <point x="596" y="538" type="line"/>
      <point x="491" y="538" type="line"/>
      <point x="303" y="284" type="line"/>
      <point x="115" y="538" type="line"/>
      <point x="10" y="538" type="line"/>
      <point x="259" y="230" type="line"/>
      <point x="259" y="0" type="line"/>
      <point x="347" y="0" type="line"/>
      <point x="347" y="230" type="line"/>
    </contour>
  </outline>
</glyph>
<glyph name="Z" format="1">
  <advance width="506"/>
  <unicode hex="005A"/>
  <outline>
    <contour>
      <point x="496" y="66" type="line"/>
      <point x="109" y="66" type="line"/>
      <point x="496" y="482" type="line"/>
      <point x="496" y="538" type="line"/>
      <point x="40" y="538" type="line"/>
      <point x="40" y="472" type="line"/>
      <point x="387" y="472" type="line"/>
      <point x="10" y="66" type="line"/>
      <point x="10" y="0" type="line"/>
      <point x="496" y="0" type="line"/>
    </contour>
  </outline>
</glyph>
<glyph name="bracketleft" format="1">
  <advance width="246"/>
  <unicode hex="005B"/>
  <outline>
    <contour>
      <point x="226" y="-99" type="line"/>
      <point x="90" y="-99" type="line"/>
      <point x="90" y="619" type="line"/>
      <point x="226" y="619" type="line"/>
      <point x="226" y="649" type="line"/>
      <point x="60" y="649" type="line"/>
      <point x="60" y="-129" type="line"/>
      <point x="226" y="-129" type="line"/>
    </contour>
  </outline>
</glyph>
<glyph name="backslash" format="1">
  <advance width="300"/>
  <unicode hex="005C"/>
  <outline>
    <contour>
      <point x="275" y="-136" type="line"/>
      <point x="54" y="689" type="line"/>
      <point x="25" y="682" type="line"/>
      <point x="246" y="-143" type="line"/>
    </contour>
  </outline>
</glyph>
<glyph name="bracketright" format="1">
  <advance width="246"/>
  <unicode hex="005D"/>
  <outline>
    <contour>
      <point x="20" y="-129" type="line"/>
      <point x="186" y="-129" type="line"/>
      <point x="186" y="649" type="line"/>
      <point x="20" y="649" type="line"/>
      <point x="20" y="619" type="line"/>
      <point x="156" y="619" type="line"/>
      <point x="156" y="-99" type="line"/>
      <point x="20" y="-99" type="line"/>
    </contour>
  </outline>
</glyph>
<glyph name="underscore" format="1">
  <advance width="923"/>
  <unicode hex="005F"/>
  <outline>
    <contour>
      <point x="110" y="-94" type="line"/>
      <point x="813" y="-94" type="line"/>
      <point x="813" y="-64" type="line"/>
      <point x="110" y="-64" type="line"/>
    </contour>
  </outline>
</glyph>
<glyph name="grave" format="1">
  <advance width="833"/>
  <unicode hex="0060"/>
  <outline>
    <contour>
      <point x="416" y="424" type="move" name="_top"/>
    </contour>
    <contour>
      <point x="302" y="560" type="line"/>
      <point x="498" y="424" type="line"/>
      <point x="519" y="446" type="line"/>
      <point x="342" y="605" type="line"/>
    </contour>
  </outline>
</glyph>
<glyph name="a" format="1">
  <advance width="498"/>
  <unicode hex="0061"/>
  <outline>
    <contour>
      <point x="233" y="424" type="move" name="top"/>
    </contour>
    <contour>
      <point x="386" y="92" type="line" smooth="yes"/>
      <point x="385" y="68"/>
      <point x="394" y="56"/>
      <point x="420" y="56" type="curve"/>
      <point x="448" y="56"/>
      <point x="470" y="86"/>
      <point x="470" y="86" type="curve"/>
      <point x="488" y="32" type="line"/>
      <point x="488" y="32"/>
      <point x="469" y="-10"/>
      <point x="412" y="-10" type="curve" smooth="yes"/>
      <point x="369" y="-10"/>
      <point x="326" y="12"/>
      <point x="322" y="66" type="curve" smooth="yes"/>
      <point x="319" y="153" type="line"/>
      <point x="319" y="153"/>
      <point x="257" y="-10"/>
      <point x="128" y="-10" type="curve"/>
      <point x="71" y="-10"/>
      <point x="42" y="27"/>
      <point x="42" y="75" type="curve"/>
      <point x="42" y="139"/>
      <point x="106" y="235"/>
      <point x="312" y="259" type="curve"/>
      <point x="311" y="279" type="line" smooth="yes"/>
      <point x="310" y="304"/>
      <point x="288" y="333"/>
      <point x="230" y="333" type="curve" smooth="yes"/>
      <point x="147" y="333"/>
      <point x="115" y="272"/>
      <point x="115" y="272" type="curve"/>
      <point x="58" y="310" type="line"/>
      <point x="58" y="310"/>
      <point x="100" y="400"/>
      <point x="227" y="400" type="curve" smooth="yes"/>
      <point x="342" y="400"/>
      <point x="392" y="339"/>
      <point x="390" y="267" type="curve" smooth="yes"/>
    </contour>
    <contour>
      <point x="123" y="89" type="curve"/>
      <point x="123" y="68"/>
      <point x="137" y="56"/>
      <point x="158" y="56" type="curve"/>
      <point x="224" y="56"/>
      <point x="318" y="163"/>
      <point x="316" y="193" type="curve" smooth="yes"/>
      <point x="314" y="221" type="line"/>
      <point x="160" y="189"/>
      <point x="123" y="121"/>
    </contour>
  </outline>
</glyph>
<glyph name="b" format="1">
  <advance width="516"/>
  <unicode hex="0062"/>
  <outline>
    <contour>
      <point x="70" y="0" type="line"/>
      <point x="110" y="0" type="line"/>
      <point x="138" y="66" type="line"/>
      <point x="144" y="50"/>
      <point x="191" y="-10"/>
      <point x="287" y="-10" type="curve" smooth="yes"/>
      <point x="401" y="-10"/>
      <point x="483" y="74"/>
      <point x="483" y="196" type="curve" smooth="yes"/>
      <point x="483" y="303"/>
      <point x="410" y="400"/>
      <point x="304" y="400" type="curve" smooth="yes"/>
      <point x="226" y="400"/>
      <point x="174" y="336"/>
      <point x="153" y="285" type="curve"/>
      <point x="153" y="538" type="line"/>
      <point x="153" y="538"/>
      <point x="110" y="530"/>
      <point x="70" y="530" type="curve"/>
    </contour>
    <contour>
      <point x="273" y="333" type="curve" smooth="yes"/>
      <point x="361" y="333"/>
      <point x="394" y="258"/>
      <point x="394" y="196" type="curve" smooth="yes"/>
      <point x="394" y="101"/>
      <point x="331" y="56"/>
      <point x="262" y="56" type="curve" smooth="yes"/>
      <point x="175" y="56"/>
      <point x="153" y="103"/>
      <point x="153" y="103" type="curve"/>
      <point x="153" y="233" type="line" smooth="yes"/>
      <point x="153" y="247"/>
      <point x="179" y="333"/>
    </contour>
  </outline>
</glyph>
<glyph name="c" format="1">
  <advance width="488"/>
  <unicode hex="0063"/>
  <outline>
    <contour>
      <point x="368" y="149" type="line"/>
      <point x="368" y="149"/>
      <point x="368" y="56"/>
      <point x="256" y="56" type="curve"/>
      <point x="173" y="56"/>
      <point x="128" y="106"/>
      <point x="128" y="196" type="curve" smooth="yes"/>
      <point x="128" y="274"/>
      <point x="176" y="333"/>
      <point x="256" y="333" type="curve"/>
      <point x="336" y="333"/>
      <point x="377" y="275"/>
      <point x="367" y="207" type="curve"/>
      <point x="438" y="222" type="line"/>
      <point x="448" y="294"/>
      <point x="392" y="400"/>
      <point x="256" y="400" type="curve"/>
      <point x="114" y="400"/>
      <point x="40" y="303"/>
      <point x="40" y="194" type="curve" smooth="yes"/>
      <point x="40" y="64"/>
      <point x="131" y="-10"/>
      <point x="255" y="-10" type="curve"/>
      <point x="448" y="-10"/>
      <point x="447" y="149"/>
      <point x="447" y="149" type="curve"/>
    </contour>
  </outline>
</glyph>
<glyph name="d" format="1">
  <advance width="506"/>
  <unicode hex="0064"/>
  <outline>
    <contour>
      <point x="436" y="538" type="line"/>
      <point x="397" y="530"/>
      <point x="353" y="530"/>
      <point x="353" y="530" type="curve"/>
      <point x="353" y="295" type="line"/>
      <point x="339" y="334"/>
      <point x="291" y="400"/>
      <point x="202" y="400" type="curve"/>
      <point x="96" y="400"/>
      <point x="23" y="303"/>
      <point x="23" y="196" type="curve" smooth="yes"/>
      <point x="23" y="74"/>
      <point x="105" y="-10"/>
      <point x="219" y="-10" type="curve"/>
      <point x="315" y="-10"/>
      <point x="362" y="50"/>
      <point x="368" y="66" type="curve"/>
      <point x="396" y="0" type="line"/>
      <point x="436" y="0" type="line"/>
    </contour>
    <contour>
      <point x="233" y="333" type="curve"/>
      <point x="325" y="333"/>
      <point x="353" y="251"/>
      <point x="353" y="233" type="curve"/>
      <point x="353" y="103" type="line"/>
      <point x="353" y="103"/>
      <point x="331" y="56"/>
      <point x="244" y="56" type="curve"/>
      <point x="175" y="56"/>
      <point x="112" y="101"/>
      <point x="112" y="196" type="curve" smooth="yes"/>
      <point x="112" y="258"/>
      <point x="145" y="333"/>
    </contour>
  </outline>
</glyph>
<glyph name="e" format="1">
  <advance width="488"/>
  <unicode hex="0065"/>
  <outline>
    <contour>
      <point x="235" y="424" type="move" name="top"/>
    </contour>
    <contour>
      <point x="365" y="130" type="line"/>
      <point x="365" y="130"/>
      <point x="355" y="56"/>
      <point x="255" y="56" type="curve"/>
      <point x="135" y="56"/>
      <point x="124" y="159"/>
      <point x="124" y="189" type="curve"/>
      <point x="438" y="183" type="line"/>
      <point x="438" y="183"/>
      <point x="441" y="206"/>
      <point x="441" y="230" type="curve"/>
      <point x="441" y="313"/>
      <point x="378" y="400"/>
      <point x="253" y="400" type="curve" smooth="yes"/>
      <point x="144" y="400"/>
      <point x="40" y="329"/>
      <point x="40" y="188" type="curve" smooth="yes"/>
      <point x="40" y="87"/>
      <point x="113" y="-10"/>
      <point x="254" y="-10" type="curve"/>
      <point x="432" y="-10"/>
      <point x="445" y="130"/>
      <point x="445" y="130" type="curve"/>
    </contour>
    <contour>
      <point x="126" y="223" type="line"/>
      <point x="128" y="242"/>
      <point x="152" y="333"/>
      <point x="255" y="333" type="curve"/>
      <point x="369" y="333"/>
      <point x="369" y="230"/>
      <point x="369" y="230" type="curve"/>
    </contour>
  </outline>
</glyph>
<glyph name="f" format="1">
  <advance width="317"/>
  <unicode hex="0066"/>
  <outline>
    <contour>
      <point x="28" y="332" type="line"/>
      <point x="98" y="332" type="line"/>
      <point x="98" y="0" type="line"/>
      <point x="181" y="0" type="line"/>
      <point x="181" y="332" type="line"/>
      <point x="301" y="332" type="line"/>
      <point x="301" y="384" type="line"/>
      <point x="181" y="384" type="line"/>
      <point x="181" y="384"/>
      <point x="165" y="395"/>
      <point x="165" y="422" type="curve" smooth="yes"/>
      <point x="165" y="459"/>
      <point x="193" y="479"/>
      <point x="234" y="479" type="curve" smooth="yes"/>
      <point x="300" y="479"/>
      <point x="322" y="418"/>
      <point x="322" y="418" type="curve"/>
      <point x="367" y="466" type="line"/>
      <point x="367" y="466"/>
      <point x="337" y="545"/>
      <point x="227" y="545" type="curve" smooth="yes"/>
      <point x="159" y="545"/>
      <point x="92" y="503"/>
      <point x="92" y="439" type="curve" smooth="yes"/>
      <point x="92" y="397"/>
      <point x="109" y="384"/>
      <point x="110" y="384" type="curve"/>
      <point x="28" y="384" type="line"/>
    </contour>
  </outline>
</glyph>
<glyph name="g" format="1">
  <advance width="505"/>
  <unicode hex="0067"/>
  <outline>
    <contour>
      <point x="432" y="453" type="curve" smooth="yes"/>
      <point x="363" y="453"/>
      <point x="346" y="383"/>
      <point x="346" y="383" type="curve"/>
      <point x="346" y="383"/>
      <point x="309" y="400"/>
      <point x="247" y="400" type="curve" smooth="yes"/>
      <point x="105" y="400"/>
      <point x="49" y="329"/>
      <point x="49" y="261" type="curve"/>
      <point x="49" y="164"/>
      <point x="142" y="144"/>
      <point x="142" y="144" type="curve"/>
      <point x="142" y="142" type="line"/>
      <point x="114" y="142"/>
      <point x="40" y="129"/>
      <point x="40" y="73" type="curve"/>
      <point x="40" y="36"/>
      <point x="84" y="7"/>
      <point x="136" y="7" type="curve"/>
      <point x="136" y="3" type="line"/>
      <point x="63" y="3"/>
      <point x="30" y="-35"/>
      <point x="30" y="-71" type="curve"/>
      <point x="30" y="-107"/>
      <point x="56" y="-161"/>
      <point x="184" y="-161" type="curve" smooth="yes"/>
      <point x="274" y="-161" type="line" smooth="yes"/>
      <point x="418" y="-161"/>
      <point x="469" y="-106"/>
      <point x="469" y="-51" type="curve" smooth="yes"/>
      <point x="469" y="-39" type="line" smooth="yes"/>
      <point x="469" y="1"/>
      <point x="429" y="56"/>
      <point x="330" y="56" type="curve" smooth="yes"/>
      <point x="330" y="56"/>
      <point x="226" y="56"/>
      <point x="192" y="56" type="curve"/>
      <point x="154" y="56"/>
      <point x="130" y="68"/>
      <point x="130" y="93" type="curve" smooth="yes"/>
      <point x="130" y="119"/>
      <point x="158" y="133"/>
      <point x="183" y="133" type="curve"/>
      <point x="183" y="133"/>
      <point x="208" y="126"/>
      <point x="249" y="126" type="curve"/>
      <point x="369" y="126"/>
      <point x="445" y="175"/>
      <point x="445" y="260" type="curve" smooth="yes"/>
      <point x="445" y="309"/>
      <point x="410" y="354"/>
      <point x="368" y="373" type="curve"/>
      <point x="368" y="373"/>
      <point x="388" y="386"/>
      <point x="431" y="386" type="curve" smooth="yes"/>
      <point x="456" y="386"/>
      <point x="475" y="381"/>
      <point x="475" y="381" type="curve"/>
      <point x="475" y="448" type="line"/>
      <point x="475" y="448"/>
      <point x="455" y="453"/>
    </contour>
    <contour>
      <point x="310" y="-10" type="curve" smooth="yes"/>
      <point x="363" y="-14"/>
      <point x="381" y="-31"/>
      <point x="381" y="-66" type="curve" smooth="yes"/>
      <point x="381" y="-105"/>
      <point x="348" y="-119"/>
      <point x="245" y="-119" type="curve" smooth="yes"/>
      <point x="151" y="-119"/>
      <point x="119" y="-104"/>
      <point x="119" y="-68" type="curve" smooth="yes"/>
      <point x="119" y="-18"/>
      <point x="199" y="1"/>
      <point x="199" y="1" type="curve"/>
      <point x="216" y="-5"/>
      <point x="235" y="-4"/>
    </contour>
    <contour>
      <point x="138" y="262" type="curve"/>
      <point x="138" y="306"/>
      <point x="167" y="349"/>
      <point x="247" y="349" type="curve" smooth="yes"/>
      <point x="327" y="349"/>
      <point x="356" y="306"/>
      <point x="356" y="262" type="curve" smooth="yes"/>
      <point x="356" y="220"/>
      <point x="327" y="177"/>
      <point x="247" y="177" type="curve" smooth="yes"/>
      <point x="167" y="177"/>
      <point x="138" y="220"/>
    </contour>
  </outline>
</glyph>
<glyph name="h" format="1">
  <advance width="534"/>
  <unicode hex="0068"/>
  <outline>
    <contour>
      <point x="381" y="0" type="line"/>
      <point x="464" y="0" type="line"/>
      <point x="464" y="238" type="line" smooth="yes"/>
      <point x="464" y="335"/>
      <point x="417" y="400"/>
      <point x="314" y="400" type="curve" smooth="yes"/>
      <point x="218" y="400"/>
      <point x="171" y="329"/>
      <point x="153" y="289" type="curve"/>
      <point x="153" y="538" type="line"/>
      <point x="153" y="538"/>
      <point x="119" y="530"/>
      <point x="70" y="530" type="curve"/>
      <point x="70" y="0" type="line"/>
      <point x="154" y="0" type="line"/>
      <point x="154" y="233" type="line" smooth="yes"/>
      <point x="154" y="254"/>
      <point x="189" y="333"/>
      <point x="281" y="333" type="curve" smooth="yes"/>
      <point x="342" y="333"/>
      <point x="381" y="301"/>
      <point x="381" y="237" type="curve" smooth="yes"/>
    </contour>
  </outline>
</glyph>
<glyph name="i" format="1">
  <advance width="223"/>
  <unicode hex="0069"/>
  <outline>
    <contour>
      <point x="70" y="0" type="line"/>
      <point x="153" y="0" type="line"/>
      <point x="153" y="384" type="line"/>
      <point x="70" y="384" type="line"/>
    </contour>
    <contour>
      <point x="70" y="471" type="line"/>
      <point x="153" y="471" type="line"/>
      <point x="153" y="538" type="line"/>
      <point x="70" y="538" type="line"/>
    </contour>
  </outline>
</glyph>
<glyph name="j" format="1">
  <advance width="281"/>
  <unicode hex="006A"/>
  <outline>
    <contour>
      <point x="128" y="5" type="line"/>
      <point x="128" y="-72"/>
      <point x="108" y="-113"/>
      <point x="39" y="-86" type="curve"/>
      <point x="40" y="-153" type="line"/>
      <point x="122" y="-181"/>
      <point x="211" y="-132"/>
      <point x="211" y="0" type="curve"/>
      <point x="211" y="384" type="line"/>
      <point x="128" y="384" type="line"/>
    </contour>
    <contour>
      <point x="128" y="471" type="line"/>
      <point x="211" y="471" type="line"/>
      <point x="211" y="538" type="line"/>
      <point x="128" y="538" type="line"/>
    </contour>
  </outline>
</glyph>
<glyph name="k" format="1">
  <advance width="469"/>
  <unicode hex="006B"/>
  <outline>
    <contour>
      <point x="70" y="0" type="line"/>
      <point x="153" y="0" type="line"/>
      <point x="153" y="136" type="line"/>
      <point x="197" y="174" type="line"/>
      <point x="374" y="0" type="line"/>
      <point x="474" y="0" type="line"/>
      <point x="251" y="222" type="line"/>
      <point x="423" y="384" type="line"/>
      <point x="326" y="384" type="line"/>
      <point x="153" y="218" type="line"/>
      <point x="153" y="538" type="line"/>
      <point x="153" y="538"/>
      <point x="119" y="530"/>
      <point x="70" y="530" type="curve"/>
    </contour>
  </outline>
</glyph>
<glyph name="l" format="1">
  <advance width="223"/>
  <unicode hex="006C"/>
  <outline>
    <contour>
      <point x="70" y="0" type="line"/>
      <point x="153" y="0" type="line"/>
      <point x="153" y="538" type="line"/>
      <point x="153" y="538"/>
      <point x="119" y="530"/>
      <point x="70" y="530" type="curve"/>
    </contour>
  </outline>
</glyph>
<glyph name="m" format="1">
  <advance width="804"/>
  <unicode hex="006D"/>
  <outline>
    <contour>
      <point x="650" y="0" type="line"/>
      <point x="733" y="0" type="line"/>
      <point x="733" y="238" type="line"/>
      <point x="735" y="348"/>
      <point x="668" y="400"/>
      <point x="584" y="400" type="curve" smooth="yes"/>
      <point x="485" y="400"/>
      <point x="446" y="304"/>
      <point x="435" y="269" type="curve"/>
      <point x="428" y="344"/>
      <point x="382" y="400"/>
      <point x="301" y="400" type="curve"/>
      <point x="193" y="400"/>
      <point x="152" y="293"/>
      <point x="145" y="270" type="curve"/>
      <point x="110" y="384" type="line"/>
      <point x="70" y="384" type="line"/>
      <point x="70" y="0" type="line"/>
      <point x="153" y="0" type="line"/>
      <point x="153" y="233" type="line"/>
      <point x="159" y="267"/>
      <point x="193" y="333"/>
      <point x="271" y="333" type="curve"/>
      <point x="327" y="333"/>
      <point x="360" y="299"/>
      <point x="360" y="237" type="curve" smooth="yes"/>
      <point x="360" y="0" type="line"/>
      <point x="443" y="0" type="line"/>
      <point x="443" y="234" type="line" smooth="yes"/>
      <point x="443" y="243"/>
      <point x="467" y="333"/>
      <point x="560" y="333" type="curve"/>
      <point x="605" y="333"/>
      <point x="650" y="306"/>
      <point x="650" y="246" type="curve" smooth="yes"/>
    </contour>
  </outline>
</glyph>
<glyph name="n" format="1">
  <advance width="534"/>
  <unicode hex="006E"/>
  <outline>
    <contour>
      <point x="267" y="424" type="move" name="top"/>
    </contour>
    <contour>
      <point x="381" y="0" type="line"/>
      <point x="464" y="0" type="line"/>
      <point x="464" y="238" type="line" smooth="yes"/>
      <point x="464" y="335"/>
      <point x="417" y="400"/>
      <point x="314" y="400" type="curve"/>
      <point x="201" y="400"/>
      <point x="155" y="301"/>
      <point x="146" y="270" type="curve"/>
      <point x="111" y="384" type="line"/>
      <point x="71" y="384" type="line"/>
      <point x="71" y="0" type="line"/>
      <point x="154" y="0" type="line"/>
      <point x="154" y="233" type="line"/>
      <point x="154" y="250"/>
      <point x="189" y="333"/>
      <point x="281" y="333" type="curve"/>
      <point x="342" y="333"/>
      <point x="381" y="301"/>
      <point x="381" y="237" type="curve"/>
    </contour>
  </outline>
</glyph>
<glyph name="o" format="1">
  <advance width="544"/>
  <unicode hex="006F"/>
  <outline>
    <contour>
      <point x="272" y="424" type="move" name="top"/>
    </contour>
    <contour>
      <point x="40" y="195" type="curve"/>
      <point x="40" y="82"/>
      <point x="121" y="-10"/>
      <point x="272" y="-10" type="curve" smooth="yes"/>
      <point x="423" y="-10"/>
      <point x="504" y="82"/>
      <point x="504" y="195" type="curve" smooth="yes"/>
      <point x="504" y="308"/>
      <point x="423" y="400"/>
      <point x="272" y="400" type="curve" smooth="yes"/>
      <point x="121" y="400"/>
      <point x="40" y="308"/>
    </contour>
    <contour>
      <point x="129" y="195" type="curve"/>
      <point x="129" y="278"/>
      <point x="178" y="333"/>
      <point x="272" y="333" type="curve" smooth="yes"/>
      <point x="365" y="333"/>
      <point x="415" y="278"/>
      <point x="415" y="195" type="curve" smooth="yes"/>
      <point x="415" y="112"/>
      <point x="365" y="56"/>
      <point x="272" y="56" type="curve" smooth="yes"/>
      <point x="178" y="56"/>
      <point x="129" y="112"/>
    </contour>
  </outline>
</glyph>
<glyph name="p" format="1">
  <advance width="526"/>
  <unicode hex="0070"/>
  <outline>
    <contour>
      <point x="70" y="-154" type="line"/>
      <point x="153" y="-154" type="line"/>
      <point x="153" y="44" type="line"/>
      <point x="157" y="39"/>
      <point x="201" y="-10"/>
      <point x="285" y="-10" type="curve" smooth="yes"/>
      <point x="406" y="-10"/>
      <point x="483" y="80"/>
      <point x="483" y="195" type="curve" smooth="yes"/>
      <point x="483" y="306"/>
      <point x="405" y="400"/>
      <point x="305" y="400" type="curve" smooth="yes"/>
      <point x="209" y="400"/>
      <point x="157" y="325"/>
      <point x="145" y="270" type="curve"/>
      <point x="110" y="384" type="line"/>
      <point x="70" y="384" type="line"/>
    </contour>
    <contour>
      <point x="262" y="56" type="curve" smooth="yes"/>
      <point x="177" y="56"/>
      <point x="153" y="102"/>
      <point x="153" y="102" type="curve"/>
      <point x="153" y="234" type="line"/>
      <point x="157" y="259"/>
      <point x="186" y="333"/>
      <point x="271" y="333" type="curve" smooth="yes"/>
      <point x="355" y="333"/>
      <point x="394" y="266"/>
      <point x="394" y="195" type="curve" smooth="yes"/>
      <point x="394" y="106"/>
      <point x="334" y="56"/>
    </contour>
  </outline>
</glyph>
<glyph name="q" format="1">
  <advance width="526"/>
  <unicode hex="0071"/>
  <outline>
    <contour>
      <point x="456" y="384" type="line"/>
      <point x="416" y="384" type="line"/>
      <point x="381" y="270" type="line"/>
      <point x="369" y="325"/>
      <point x="317" y="400"/>
      <point x="221" y="400" type="curve" smooth="yes"/>
      <point x="121" y="400"/>
      <point x="43" y="306"/>
      <point x="43" y="195" type="curve" smooth="yes"/>
      <point x="43" y="80"/>
      <point x="120" y="-10"/>
      <point x="241" y="-10" type="curve" smooth="yes"/>
      <point x="325" y="-10"/>
      <point x="369" y="39"/>
      <point x="373" y="44" type="curve"/>
      <point x="373" y="-154" type="line"/>
      <point x="456" y="-154" type="line"/>
    </contour>
    <contour>
      <point x="264" y="56" type="curve" smooth="yes"/>
      <point x="192" y="56"/>
      <point x="132" y="106"/>
      <point x="132" y="195" type="curve" smooth="yes"/>
      <point x="132" y="266"/>
      <point x="171" y="333"/>
      <point x="255" y="333" type="curve" smooth="yes"/>
      <point x="340" y="333"/>
      <point x="369" y="259"/>
      <point x="373" y="234" type="curve"/>
      <point x="373" y="102" type="line"/>
      <point x="373" y="102"/>
      <point x="349" y="56"/>
    </contour>
  </outline>
</glyph>
<glyph name="r" format="1">
  <advance width="371"/>
  <unicode hex="0072"/>
  <outline>
    <contour>
      <point x="153" y="228" type="line" smooth="yes"/>
      <point x="153" y="250"/>
      <point x="176" y="333"/>
      <point x="236" y="333" type="curve"/>
      <point x="318" y="333"/>
      <point x="266" y="225"/>
      <point x="266" y="225" type="curve"/>
      <point x="342" y="241" type="line"/>
      <point x="342" y="241"/>
      <point x="390" y="400"/>
      <point x="264" y="400" type="curve"/>
      <point x="177" y="400"/>
      <point x="153" y="310"/>
      <point x="145" y="270" type="curve"/>
      <point x="110" y="384" type="line"/>
      <point x="70" y="384" type="line"/>
      <point x="70" y="0" type="line"/>
      <point x="153" y="0" type="line"/>
    </contour>
  </outline>
</glyph>
<glyph name="s" format="1">
  <advance width="448"/>
  <unicode hex="0073"/>
  <outline>
    <contour>
      <point x="335" y="272" type="line"/>
      <point x="335" y="272"/>
      <point x="300" y="333"/>
      <point x="217" y="333" type="curve"/>
      <point x="161" y="333"/>
      <point x="138" y="309"/>
      <point x="138" y="285" type="curve" smooth="yes"/>
      <point x="138" y="263"/>
      <point x="156" y="247"/>
      <point x="215" y="234" type="curve" smooth="yes"/>
      <point x="309" y="214" type="line" smooth="yes"/>
      <point x="386" y="198"/>
      <point x="427" y="164"/>
      <point x="427" y="111" type="curve"/>
      <point x="427" y="27"/>
      <point x="328" y="-10"/>
      <point x="250" y="-10" type="curve"/>
      <point x="116" y="-10"/>
      <point x="51" y="60"/>
      <point x="30" y="114" type="curve"/>
      <point x="93" y="144" type="line"/>
      <point x="112" y="99"/>
      <point x="156" y="56"/>
      <point x="253" y="56" type="curve"/>
      <point x="311" y="56"/>
      <point x="347" y="74"/>
      <point x="347" y="106" type="curve" smooth="yes"/>
      <point x="347" y="139"/>
      <point x="318" y="158"/>
      <point x="258" y="170" type="curve" smooth="yes"/>
      <point x="174" y="187" type="line" smooth="yes"/>
      <point x="104" y="201"/>
      <point x="61" y="238"/>
      <point x="61" y="288" type="curve"/>
      <point x="61" y="350"/>
      <point x="128" y="400"/>
      <point x="217" y="400" type="curve" smooth="yes"/>
      <point x="353" y="400"/>
      <point x="392" y="310"/>
      <point x="392" y="310" type="curve"/>
    </contour>
  </outline>
</glyph>
<glyph name="t" format="1">
  <advance width="373"/>
  <unicode hex="0074"/>
  <outline>
    <contour>
      <point x="19" y="333" type="line"/>
      <point x="118" y="333" type="line"/>
      <point x="118" y="130" type="line" smooth="yes"/>
      <point x="118" y="34"/>
      <point x="162" y="-10"/>
      <point x="242" y="-10" type="curve"/>
      <point x="302" y="-10"/>
      <point x="346" y="21"/>
      <point x="346" y="21" type="curve"/>
      <point x="322" y="76" type="line"/>
      <point x="322" y="76"/>
      <point x="296" y="56"/>
      <point x="259" y="56" type="curve"/>
      <point x="214" y="56"/>
      <point x="200" y="79"/>
      <point x="200" y="139" type="curve" smooth="yes"/>
      <point x="200" y="333" type="line"/>
      <point x="330" y="333" type="line"/>
      <point x="330" y="384" type="line"/>
      <point x="199" y="384" type="line"/>
      <point x="199" y="479" type="line"/>
      <point x="159" y="479" type="line"/>
      <point x="124" y="384" type="line"/>
      <point x="19" y="384" type="line"/>
    </contour>
  </outline>
</glyph>
<glyph name="u" format="1">
  <advance width="533"/>
  <unicode hex="0075"/>
  <outline>
    <contour>
      <point x="266" y="424" type="move" name="top"/>
    </contour>
    <contour>
      <point x="153" y="384" type="line"/>
      <point x="70" y="384" type="line"/>
      <point x="70" y="130" type="line"/>
      <point x="70" y="38"/>
      <point x="136" y="-10"/>
      <point x="224" y="-10" type="curve"/>
      <point x="322" y="-10"/>
      <point x="367" y="71"/>
      <point x="388" y="115" type="curve"/>
      <point x="423" y="0" type="line"/>
      <point x="463" y="0" type="line"/>
      <point x="463" y="384" type="line"/>
      <point x="380" y="384" type="line"/>
      <point x="380" y="156" type="line"/>
      <point x="380" y="121"/>
      <point x="336" y="56"/>
      <point x="239" y="56" type="curve"/>
      <point x="194" y="56"/>
      <point x="153" y="84"/>
      <point x="153" y="143" type="curve"/>
    </contour>
  </outline>
</glyph>
<glyph name="v" format="1">
  <advance width="468"/>
  <unicode hex="0076"/>
  <outline>
    <contour>
      <point x="458" y="384" type="line"/>
      <point x="364" y="384" type="line"/>
      <point x="234" y="60" type="line"/>
      <point x="105" y="384" type="line"/>
      <point x="10" y="384" type="line"/>
      <point x="188" y="0" type="line"/>
      <point x="279" y="0" type="line"/>
    </contour>
  </outline>
</glyph>
<glyph name="w" format="1">
  <advance width="733"/>
  <unicode hex="0077"/>
  <outline>
    <contour>
      <point x="179" y="0" type="line"/>
      <point x="270" y="0" type="line"/>
      <point x="367" y="322" type="line"/>
      <point x="463" y="0" type="line"/>
      <point x="554" y="0" type="line"/>
      <point x="723" y="384" type="line"/>
      <point x="640" y="384" type="line"/>
      <point x="509" y="66" type="line"/>
      <point x="412" y="384" type="line"/>
      <point x="321" y="384" type="line"/>
      <point x="224" y="66" type="line"/>
      <point x="93" y="384" type="line"/>
      <point x="10" y="384" type="line"/>
    </contour>
  </outline>
</glyph>
<glyph name="x" format="1">
  <advance width="464"/>
  <unicode hex="0078"/>
  <outline>
    <contour>
      <point x="10" y="0" type="line"/>
      <point x="116" y="0" type="line"/>
      <point x="232" y="141" type="line"/>
      <point x="348" y="0" type="line"/>
      <point x="454" y="0" type="line"/>
      <point x="279" y="191" type="line"/>
      <point x="454" y="384" type="line"/>
      <point x="351" y="384" type="line"/>
      <point x="232" y="242" type="line"/>
      <point x="113" y="384" type="line"/>
      <point x="10" y="384" type="line"/>
      <point x="184" y="191" type="line"/>
    </contour>
  </outline>
</glyph>
<glyph name="y" format="1">
  <advance width="453"/>
  <unicode hex="0079"/>
  <outline>
    <contour>
      <point x="226" y="424" type="move" name="top"/>
    </contour>
    <contour>
      <point x="166" y="-1" type="line" smooth="yes"/>
      <point x="129" y="-61"/>
      <point x="110" y="-94"/>
      <point x="66" y="-94" type="curve" smooth="yes"/>
      <point x="25" y="-94"/>
      <point x="12" y="-63"/>
      <point x="12" y="-61" type="curve"/>
      <point x="-10" y="-125" type="line"/>
      <point x="-10" y="-125"/>
      <point x="9" y="-161"/>
      <point x="67" y="-161" type="curve" smooth="yes"/>
      <point x="140" y="-161"/>
      <point x="180" y="-102"/>
      <point x="241" y="0" type="curve" smooth="yes"/>
      <point x="320" y="132"/>
      <point x="453" y="384"/>
      <point x="453" y="384" type="curve"/>
      <point x="364" y="384" type="line"/>
      <point x="225" y="108" type="line"/>
      <point x="86" y="384" type="line"/>
      <point x="-4" y="384" type="line"/>
      <point x="179" y="56" type="line"/>
      <point x="201" y="56" type="line"/>
    </contour>
  </outline>
</glyph>
<glyph name="z" format="1">
  <advance width="407"/>
  <unicode hex="007A"/>
  <outline>
    <contour>
      <point x="20" y="0" type="line"/>
      <point x="387" y="0" type="line"/>
      <point x="387" y="66" type="line"/>
      <point x="120" y="66" type="line"/>
      <point x="387" y="354" type="line"/>
      <point x="387" y="384" type="line"/>
      <point x="40" y="384" type="line"/>
      <point x="40" y="317" type="line"/>
      <point x="270" y="317" type="line"/>
      <point x="20" y="50" type="line"/>
    </contour>
  </outline>
</glyph>
<glyph name="braceleft" format="1">
  <advance width="286"/>
  <unicode hex="007B"/>
  <outline>
    <contour>
      <point x="152" y="353" type="curve"/>
      <point x="152" y="565" type="line" smooth="yes"/>
      <point x="152" y="594"/>
      <point x="167" y="603"/>
      <point x="188" y="603" type="curve" smooth="yes"/>
      <point x="207" y="603"/>
      <point x="226" y="588"/>
      <point x="226" y="588" type="curve"/>
      <point x="246" y="627" type="line"/>
      <point x="246" y="627"/>
      <point x="202" y="660"/>
      <point x="156" y="660" type="curve" smooth="yes"/>
      <point x="104" y="660"/>
      <point x="80" y="628"/>
      <point x="80" y="584" type="curve" smooth="yes"/>
      <point x="80" y="357" type="line" smooth="yes"/>
      <point x="80" y="303"/>
      <point x="20" y="286"/>
      <point x="20" y="286" type="curve"/>
      <point x="20" y="240" type="line"/>
      <point x="20" y="240"/>
      <point x="80" y="223"/>
      <point x="80" y="169" type="curve" smooth="yes"/>
      <point x="80" y="-60" type="line" smooth="yes"/>
      <point x="80" y="-104"/>
      <point x="104" y="-135"/>
      <point x="156" y="-135" type="curve" smooth="yes"/>
      <point x="202" y="-135"/>
      <point x="246" y="-103"/>
      <point x="246" y="-103" type="curve"/>
      <point x="226" y="-64" type="line"/>
      <point x="226" y="-64"/>
      <point x="206" y="-79"/>
      <point x="184" y="-79" type="curve" smooth="yes"/>
      <point x="160" y="-79"/>
      <point x="152" y="-70"/>
      <point x="152" y="-41" type="curve" smooth="yes"/>
      <point x="152" y="173" type="line" smooth="yes"/>
      <point x="152" y="242"/>
      <point x="79" y="262"/>
      <point x="75" y="263" type="curve"/>
      <point x="82" y="265"/>
      <point x="152" y="285"/>
    </contour>
  </outline>
</glyph>
<glyph name="bar" format="1">
  <advance width="300"/>
  <unicode hex="007C"/>
  <outline>
    <contour>
      <point x="165" y="-154" type="line"/>
      <point x="165" y="700" type="line"/>
      <point x="135" y="700" type="line"/>
      <point x="135" y="-154" type="line"/>
    </contour>
  </outline>
</glyph>
<glyph name="braceright" format="1">
  <advance width="286"/>
  <unicode hex="007D"/>
  <outline>
    <contour>
      <point x="134" y="173" type="curve"/>
      <point x="134" y="-41" type="line" smooth="yes"/>
      <point x="134" y="-70"/>
      <point x="126" y="-79"/>
      <point x="102" y="-79" type="curve" smooth="yes"/>
      <point x="80" y="-79"/>
      <point x="60" y="-64"/>
      <point x="60" y="-64" type="curve"/>
      <point x="40" y="-103" type="line"/>
      <point x="40" y="-103"/>
      <point x="84" y="-135"/>
      <point x="130" y="-135" type="curve" smooth="yes"/>
      <point x="182" y="-135"/>
      <point x="206" y="-104"/>
      <point x="206" y="-60" type="curve" smooth="yes"/>
      <point x="206" y="169" type="line" smooth="yes"/>
      <point x="206" y="223"/>
      <point x="266" y="240"/>
      <point x="266" y="240" type="curve"/>
      <point x="266" y="286" type="line"/>
      <point x="266" y="286"/>
      <point x="206" y="303"/>
      <point x="206" y="357" type="curve" smooth="yes"/>
      <point x="206" y="584" type="line" smooth="yes"/>
      <point x="206" y="628"/>
      <point x="182" y="660"/>
      <point x="130" y="660" type="curve" smooth="yes"/>
      <point x="84" y="660"/>
      <point x="40" y="627"/>
      <point x="40" y="627" type="curve"/>
      <point x="60" y="588" type="line"/>
      <point x="60" y="588"/>
      <point x="79" y="603"/>
      <point x="98" y="603" type="curve" smooth="yes"/>
      <point x="119" y="603"/>
      <point x="134" y="594"/>
      <point x="134" y="565" type="curve" smooth="yes"/>
      <point x="134" y="353" type="line" smooth="yes"/>
      <point x="134" y="284"/>
      <point x="207" y="264"/>
      <point x="210" y="263" type="curve"/>
      <point x="203" y="261"/>
      <point x="134" y="240"/>
    </contour>
  </outline>
</glyph>
<glyph name="exclamdown" format="1">
  <advance width="188"/>
  <unicode hex="00A1"/>
  <outline>
    <contour>
      <point x="138" y="-241" type="line"/>
      <point x="130" y="131" type="line"/>
      <point x="59" y="131" type="line"/>
      <point x="50" y="-241" type="line"/>
    </contour>
    <contour>
      <point x="40" y="384" type="line"/>
      <point x="40" y="297" type="line"/>
      <point x="148" y="297" type="line"/>
      <point x="148" y="384" type="line"/>
    </contour>
  </outline>
</glyph>
<glyph name="cent" format="1">
  <advance width="508"/>
  <unicode hex="00A2"/>
  <outline>
    <contour>
      <point x="279" y="-94" type="line"/>
      <point x="279" y="-9" type="line"/>
      <point x="458" y="-2"/>
      <point x="457" y="149"/>
      <point x="457" y="149" type="curve"/>
      <point x="378" y="149" type="line"/>
      <point x="378" y="149"/>
      <point x="378" y="63"/>
      <point x="279" y="56" type="curve"/>
      <point x="279" y="332" type="line"/>
      <point x="350" y="326"/>
      <point x="386" y="271"/>
      <point x="377" y="207" type="curve"/>
      <point x="448" y="222" type="line"/>
      <point x="457" y="291"/>
      <point x="405" y="393"/>
      <point x="279" y="400" type="curve"/>
      <point x="279" y="479" type="line"/>
      <point x="249" y="479" type="line"/>
      <point x="249" y="399" type="line"/>
      <point x="118" y="392"/>
      <point x="50" y="298"/>
      <point x="50" y="194" type="curve" smooth="yes"/>
      <point x="50" y="69"/>
      <point x="133" y="-3"/>
      <point x="249" y="-9" type="curve"/>
      <point x="249" y="-94" type="line"/>
    </contour>
    <contour>
      <point x="138" y="196" type="curve" smooth="yes"/>
      <point x="138" y="268"/>
      <point x="179" y="324"/>
      <point x="249" y="332" type="curve"/>
      <point x="249" y="57" type="line"/>
      <point x="177" y="63"/>
      <point x="138" y="112"/>
    </contour>
  </outline>
</glyph>
<glyph name="sterling" format="1">
  <advance width="521"/>
  <unicode hex="00A3"/>
  <outline>
    <contour>
      <point x="42" y="217" type="line"/>
      <point x="165" y="217" type="line"/>
      <point x="180" y="197"/>
      <point x="191" y="174"/>
      <point x="191" y="143" type="curve" smooth="yes"/>
      <point x="191" y="136"/>
      <point x="190" y="130"/>
      <point x="189" y="124" type="curve"/>
      <point x="164" y="144"/>
      <point x="137" y="161"/>
      <point x="90" y="161" type="curve" smooth="yes"/>
      <point x="31" y="161"/>
      <point x="0" y="126"/>
      <point x="0" y="76" type="curve" smooth="yes"/>
      <point x="0" y="21"/>
      <point x="39" y="-10"/>
      <point x="106" y="-10" type="curve" smooth="yes"/>
      <point x="158" y="-10"/>
      <point x="197" y="12"/>
      <point x="223" y="41" type="curve"/>
      <point x="255" y="13"/>
      <point x="291" y="-10"/>
      <point x="336" y="-10" type="curve" smooth="yes"/>
      <point x="480" y="-10"/>
      <point x="521" y="117"/>
      <point x="521" y="117" type="curve"/>
      <point x="453" y="151" type="line"/>
      <point x="453" y="151"/>
      <point x="423" y="56"/>
      <point x="335" y="56" type="curve" smooth="yes"/>
      <point x="296" y="56"/>
      <point x="270" y="65"/>
      <point x="248" y="78" type="curve"/>
      <point x="257" y="98"/>
      <point x="262" y="118"/>
      <point x="262" y="136" type="curve" smooth="yes"/>
      <point x="262" y="168"/>
      <point x="257" y="194"/>
      <point x="249" y="217" type="curve"/>
      <point x="365" y="217" type="line"/>
      <point x="365" y="247" type="line"/>
      <point x="236" y="247" type="line"/>
      <point x="197" y="320"/>
      <point x="128" y="345"/>
      <point x="128" y="402" type="curve" smooth="yes"/>
      <point x="128" y="444"/>
      <point x="171" y="479"/>
      <point x="259" y="479" type="curve" smooth="yes"/>
      <point x="373" y="479"/>
      <point x="436" y="402"/>
      <point x="436" y="402" type="curve"/>
      <point x="479" y="450" type="line"/>
      <point x="479" y="450"/>
      <point x="413" y="545"/>
      <point x="265" y="545" type="curve" smooth="yes"/>
      <point x="99" y="545"/>
      <point x="35" y="460"/>
      <point x="35" y="395" type="curve" smooth="yes"/>
      <point x="35" y="318"/>
      <point x="90" y="286"/>
      <point x="135" y="247" type="curve"/>
      <point x="42" y="247" type="line"/>
    </contour>
    <contour>
      <point x="102" y="36" type="curve" smooth="yes"/>
      <point x="72" y="36"/>
      <point x="53" y="55"/>
      <point x="53" y="78" type="curve" smooth="yes"/>
      <point x="53" y="101"/>
      <point x="66" y="120"/>
      <point x="95" y="120" type="curve" smooth="yes"/>
      <point x="124" y="120"/>
      <point x="149" y="104"/>
      <point x="174" y="83" type="curve"/>
      <point x="158" y="56"/>
      <point x="131" y="36"/>
    </contour>
  </outline>
</glyph>
<glyph name="brokenbar" format="1">
  <advance width="300"/>
  <unicode hex="00A6"/>
  <outline>
    <contour>
      <point x="165" y="208" type="line"/>
      <point x="135" y="208" type="line"/>
      <point x="135" y="-154" type="line"/>
      <point x="165" y="-154" type="line"/>
    </contour>
    <contour>
      <point x="165" y="338" type="line"/>
      <point x="165" y="700" type="line"/>
      <point x="135" y="700" type="line"/>
      <point x="135" y="338" type="line"/>
    </contour>
  </outline>
</glyph>
<glyph name="section" format="1">
  <advance width="448"/>
  <unicode hex="00A7"/>
  <outline>
    <contour>
      <point x="355" y="421" type="line"/>
      <point x="355" y="421"/>
      <point x="320" y="492"/>
      <point x="241" y="492" type="curve" smooth="yes"/>
      <point x="185" y="492"/>
      <point x="158" y="454"/>
      <point x="158" y="416" type="curve" smooth="yes"/>
      <point x="158" y="357"/>
      <point x="197" y="319"/>
      <point x="290" y="310" type="curve" smooth="yes"/>
      <point x="398" y="300"/>
      <point x="427" y="251"/>
      <point x="427" y="205" type="curve" smooth="yes"/>
      <point x="427" y="122"/>
      <point x="314" y="94"/>
      <point x="311" y="94" type="curve"/>
      <point x="320" y="91"/>
      <point x="405" y="58"/>
      <point x="405" y="-37" type="curve" smooth="yes"/>
      <point x="405" y="-99"/>
      <point x="340" y="-161"/>
      <point x="241" y="-161" type="curve" smooth="yes"/>
      <point x="107" y="-161"/>
      <point x="66" y="-68"/>
      <point x="66" y="-68" type="curve"/>
      <point x="121" y="-23" type="line"/>
      <point x="121" y="-23"/>
      <point x="157" y="-94"/>
      <point x="244" y="-94" type="curve" smooth="yes"/>
      <point x="300" y="-94"/>
      <point x="328" y="-58"/>
      <point x="328" y="-16" type="curve" smooth="yes"/>
      <point x="328" y="24"/>
      <point x="300" y="69"/>
      <point x="223" y="77" type="curve" smooth="yes"/>
      <point x="105" y="89"/>
      <point x="63" y="135"/>
      <point x="63" y="189" type="curve" smooth="yes"/>
      <point x="63" y="271"/>
      <point x="179" y="292"/>
      <point x="185" y="293" type="curve"/>
      <point x="175" y="295"/>
      <point x="81" y="321"/>
      <point x="81" y="426" type="curve" smooth="yes"/>
      <point x="81" y="494"/>
      <point x="149" y="559"/>
      <point x="249" y="559" type="curve" smooth="yes"/>
      <point x="373" y="559"/>
      <point x="409" y="467"/>
      <point x="409" y="467" type="curve"/>
    </contour>
    <contour>
      <point x="346" y="199" type="curve" smooth="yes"/>
      <point x="346" y="219"/>
      <point x="318" y="243"/>
      <point x="240" y="243" type="curve" smooth="yes"/>
      <point x="164" y="243"/>
      <point x="138" y="219"/>
      <point x="138" y="199" type="curve" smooth="yes"/>
      <point x="138" y="177"/>
      <point x="157" y="150"/>
      <point x="241" y="150" type="curve" smooth="yes"/>
      <point x="324" y="150"/>
      <point x="346" y="176"/>
    </contour>
  </outline>
</glyph>
<glyph name="copyright" format="1">
  <advance width="536"/>
  <unicode hex="00A9"/>
  <outline>
    <contour>
      <point x="17" y="190" type="curve" smooth="yes"/>
      <point x="17" y="51"/>
      <point x="130" y="-62"/>
      <point x="269" y="-62" type="curve" smooth="yes"/>
      <point x="408" y="-62"/>
      <point x="521" y="51"/>
      <point x="521" y="190" type="curve" smooth="yes"/>
      <point x="521" y="329"/>
      <point x="408" y="442"/>
      <point x="269" y="442" type="curve" smooth="yes"/>
      <point x="130" y="442"/>
      <point x="17" y="329"/>
    </contour>
    <contour>
      <point x="48" y="190" type="curve" smooth="yes"/>
      <point x="48" y="316"/>
      <point x="143" y="412"/>
      <point x="269" y="412" type="curve" smooth="yes"/>
      <point x="394" y="412"/>
      <point x="491" y="316"/>
      <point x="491" y="190" type="curve" smooth="yes"/>
      <point x="491" y="65"/>
      <point x="394" y="-32"/>
      <point x="269" y="-32" type="curve" smooth="yes"/>
      <point x="143" y="-32"/>
      <point x="48" y="65"/>
    </contour>
    <contour>
      <point x="347" y="145" type="line"/>
      <point x="361" y="113"/>
      <point x="317" y="92"/>
      <point x="278" y="92" type="curve" smooth="yes"/>
      <point x="221" y="92"/>
      <point x="183" y="119"/>
      <point x="183" y="191" type="curve" smooth="yes"/>
      <point x="183" y="253"/>
      <point x="225" y="288"/>
      <point x="275" y="288" type="curve" smooth="yes"/>
      <point x="320" y="288"/>
      <point x="362" y="253"/>
      <point x="314" y="213" type="curve"/>
      <point x="317" y="201" type="line"/>
      <point x="411" y="220" type="line"/>
      <point x="438" y="243"/>
      <point x="416" y="354"/>
      <point x="274" y="354" type="curve" smooth="yes"/>
      <point x="164" y="354"/>
      <point x="94" y="267"/>
      <point x="94" y="189" type="curve" smooth="yes"/>
      <point x="94" y="95"/>
      <point x="166" y="26"/>
      <point x="275" y="26" type="curve" smooth="yes"/>
      <point x="375" y="26"/>
      <point x="440" y="99"/>
      <point x="429" y="146" type="curve"/>
    </contour>
  </outline>
</glyph>
<glyph name="guillemotleft" format="1">
  <advance width="419"/>
  <unicode hex="00AB"/>
  <outline>
    <contour>
      <point x="20" y="192" type="line"/>
      <point x="236" y="26" type="line"/>
      <point x="236" y="90" type="line"/>
      <point x="102" y="192" type="line"/>
      <point x="239" y="298" type="line"/>
      <point x="239" y="361" type="line"/>
    </contour>
    <contour>
      <point x="160" y="192" type="line"/>
      <point x="376" y="26" type="line"/>
      <point x="376" y="90" type="line"/>
      <point x="242" y="192" type="line"/>
      <point x="379" y="298" type="line"/>
      <point x="379" y="361" type="line"/>
    </contour>
  </outline>
</glyph>
<glyph name="registered" format="1">
  <advance width="536"/>
  <unicode hex="00AE"/>
  <outline>
    <contour>
      <point x="17" y="190" type="curve" smooth="yes"/>
      <point x="17" y="51"/>
      <point x="130" y="-62"/>
      <point x="269" y="-62" type="curve" smooth="yes"/>
      <point x="408" y="-62"/>
      <point x="521" y="51"/>
      <point x="521" y="190" type="curve" smooth="yes"/>
      <point x="521" y="329"/>
      <point x="408" y="442"/>
      <point x="269" y="442" type="curve" smooth="yes"/>
      <point x="130" y="442"/>
      <point x="17" y="329"/>
    </contour>
    <contour>
      <point x="48" y="190" type="curve" smooth="yes"/>
      <point x="48" y="316"/>
      <point x="143" y="412"/>
      <point x="269" y="412" type="curve" smooth="yes"/>
      <point x="394" y="412"/>
      <point x="491" y="316"/>
      <point x="491" y="190" type="curve" smooth="yes"/>
      <point x="491" y="65"/>
      <point x="394" y="-32"/>
      <point x="269" y="-32" type="curve" smooth="yes"/>
      <point x="143" y="-32"/>
      <point x="48" y="65"/>
    </contour>
    <contour>
      <point x="412" y="252" type="curve"/>
      <point x="412" y="310"/>
      <point x="364" y="348"/>
      <point x="289" y="346" type="curve" smooth="yes"/>
      <point x="143" y="342" type="line"/>
      <point x="143" y="33" type="line"/>
      <point x="223" y="33" type="line"/>
      <point x="223" y="150" type="line"/>
      <point x="248" y="153" type="line"/>
      <point x="298" y="103"/>
      <point x="335" y="26"/>
      <point x="335" y="26" type="curve"/>
      <point x="382" y="41"/>
      <point x="415" y="60"/>
      <point x="415" y="60" type="curve"/>
      <point x="415" y="60"/>
      <point x="365" y="129"/>
      <point x="318" y="157" type="curve"/>
      <point x="318" y="157"/>
      <point x="412" y="158"/>
    </contour>
    <contour>
      <point x="224" y="284" type="line"/>
      <point x="277" y="284" type="line" smooth="yes"/>
      <point x="311" y="284"/>
      <point x="329" y="273"/>
      <point x="329" y="250" type="curve" smooth="yes"/>
      <point x="329" y="224"/>
      <point x="311" y="214"/>
      <point x="276" y="214" type="curve" smooth="yes"/>
      <point x="224" y="214" type="line"/>
    </contour>
  </outline>
</glyph>
<glyph name="degree" format="1">
  <advance width="833"/>
  <unicode hex="00B0"/>
  <outline>
    <contour>
      <point x="312" y="497" type="curve" smooth="yes"/>
      <point x="312" y="437"/>
      <point x="354" y="395"/>
      <point x="414" y="395" type="curve" smooth="yes"/>
      <point x="474" y="395"/>
      <point x="517" y="437"/>
      <point x="517" y="497" type="curve" smooth="yes"/>
      <point x="517" y="557"/>
      <point x="474" y="600"/>
      <point x="414" y="600" type="curve" smooth="yes"/>
      <point x="354" y="600"/>
      <point x="312" y="557"/>
    </contour>
    <contour>
      <point x="339" y="497" type="curve" smooth="yes"/>
      <point x="339" y="541"/>
      <point x="369" y="572"/>
      <point x="414" y="572" type="curve" smooth="yes"/>
      <point x="459" y="572"/>
      <point x="489" y="541"/>
      <point x="489" y="497" type="curve" smooth="yes"/>
      <point x="489" y="453"/>
      <point x="459" y="422"/>
      <point x="414" y="422" type="curve" smooth="yes"/>
      <point x="369" y="422"/>
      <point x="339" y="452"/>
    </contour>
  </outline>
</glyph>
<glyph name="acute" format="1">
  <advance width="833"/>
  <unicode hex="00B4"/>
  <outline>
    <contour>
      <point x="416" y="424" type="move" name="_top"/>
    </contour>
    <contour>
      <point x="501" y="605" type="line"/>
      <point x="324" y="446" type="line"/>
      <point x="345" y="424" type="line"/>
      <point x="541" y="560" type="line"/>
    </contour>
  </outline>
</glyph>
<glyph name="paragraph" format="1">
  <advance width="480"/>
  <unicode hex="00B6"/>
  <outline>
    <contour>
      <point x="223" y="-154" type="line"/>
      <point x="292" y="-154" type="line"/>
      <point x="292" y="472" type="line"/>
      <point x="352" y="472" type="line"/>
      <point x="352" y="-154" type="line"/>
      <point x="420" y="-154" type="line"/>
      <point x="420" y="538" type="line"/>
      <point x="223" y="538" type="line" smooth="yes"/>
      <point x="116" y="538"/>
      <point x="30" y="497"/>
      <point x="30" y="384" type="curve" smooth="yes"/>
      <point x="30" y="283"/>
      <point x="115" y="234"/>
      <point x="224" y="234" type="curve"/>
    </contour>
  </outline>
</glyph>
<glyph name="periodcentered" format="1">
  <advance width="377"/>
  <unicode hex="00B7"/>
  <outline>
    <contour>
      <point x="50" y="194" type="curve" smooth="yes"/>
      <point x="50" y="118"/>
      <point x="112" y="56"/>
      <point x="188" y="56" type="curve" smooth="yes"/>
      <point x="265" y="56"/>
      <point x="327" y="118"/>
      <point x="327" y="194" type="curve" smooth="yes"/>
      <point x="327" y="271"/>
      <point x="265" y="333"/>
      <point x="188" y="333" type="curve" smooth="yes"/>
      <point x="112" y="333"/>
      <point x="50" y="271"/>
    </contour>
  </outline>
</glyph>
<glyph name="cedilla" format="1">
  <advance width="833"/>
  <unicode hex="00B8"/>
  <outline>
    <contour>
      <point x="416" y="-20" type="move" name="_bottom"/>
    </contour>
    <contour>
      <point x="378" y="-154" type="line"/>
      <point x="517" y="-54" type="line"/>
      <point x="499" y="-22" type="line"/>
      <point x="341" y="-93" type="line"/>
    </contour>
  </outline>
</glyph>
<glyph name="guillemotright" format="1">
  <advance width="419"/>
  <unicode hex="00BB"/>
  <outline>
    <contour>
      <point x="40" y="361" type="line"/>
      <point x="40" y="298" type="line"/>
      <point x="177" y="192" type="line"/>
      <point x="43" y="90" type="line"/>
      <point x="43" y="26" type="line"/>
      <point x="259" y="192" type="line"/>
    </contour>
    <contour>
      <point x="180" y="361" type="line"/>
      <point x="180" y="298" type="line"/>
      <point x="317" y="192" type="line"/>
      <point x="183" y="90" type="line"/>
      <point x="183" y="26" type="line"/>
      <point x="399" y="192" type="line"/>
    </contour>
  </outline>
</glyph>
<glyph name="questiondown" format="1">
  <advance width="576"/>
  <unicode hex="00BF"/>
  <outline>
    <contour>
      <point x="520" y="-82" type="curve"/>
      <point x="520" y="17"/>
      <point x="450" y="57"/>
      <point x="310" y="77" type="curve"/>
      <point x="310" y="131" type="line"/>
      <point x="239" y="131" type="line"/>
      <point x="238" y="66" type="line"/>
      <point x="363" y="46"/>
      <point x="429" y="20"/>
      <point x="429" y="-74" type="curve"/>
      <point x="429" y="-128"/>
      <point x="384" y="-182"/>
      <point x="307" y="-182" type="curve"/>
      <point x="152" y="-182"/>
      <point x="126" y="-37"/>
      <point x="126" y="-37" type="curve"/>
      <point x="66" y="-63" type="line"/>
      <point x="66" y="-63"/>
      <point x="90" y="-248"/>
      <point x="314" y="-248" type="curve"/>
      <point x="468" y="-248"/>
      <point x="520" y="-152"/>
    </contour>
    <contour>
      <point x="220" y="384" type="line"/>
      <point x="220" y="297" type="line"/>
      <point x="328" y="297" type="line"/>
      <point x="328" y="384" type="line"/>
    </contour>
  </outline>
</glyph>
<glyph name="AE" format="1">
  <advance width="943"/>
  <unicode hex="00C6"/>
  <outline>
    <contour>
      <point x="251" y="235" type="line"/>
      <point x="406" y="235" type="line"/>
      <point x="406" y="0" type="line"/>
      <point x="873" y="0" type="line"/>
      <point x="873" y="66" type="line"/>
      <point x="494" y="66" type="line"/>
      <point x="494" y="234" type="line"/>
      <point x="813" y="234" type="line"/>
      <point x="813" y="300" type="line"/>
      <point x="494" y="300" type="line"/>
      <point x="494" y="472" type="line"/>
      <point x="853" y="472" type="line"/>
      <point x="853" y="538" type="line"/>
      <point x="249" y="538" type="line"/>
      <point x="0" y="0" type="line"/>
      <point x="89" y="0" type="line"/>
      <point x="300" y="474" type="line"/>
      <point x="323" y="470"/>
      <point x="406" y="472"/>
      <point x="406" y="472" type="curve"/>
      <point x="406" y="299" type="line"/>
      <point x="251" y="299" type="line"/>
    </contour>
  </outline>
</glyph>
<glyph name="multiply" format="1">
  <advance width="492"/>
  <unicode hex="00D7"/>
  <outline>
    <contour>
      <point x="392" y="67" type="line"/>
      <point x="267" y="192" type="line"/>
      <point x="395" y="320" type="line"/>
      <point x="374" y="341" type="line"/>
      <point x="246" y="213" type="line"/>
      <point x="121" y="338" type="line"/>
      <point x="100" y="317" type="line"/>
      <point x="225" y="192" type="line"/>
      <point x="97" y="64" type="line"/>
      <point x="118" y="43" type="line"/>
      <point x="246" y="171" type="line"/>
      <point x="371" y="46" type="line"/>
    </contour>
  </outline>
</glyph>
<glyph name="Oslash" format="1">
  <advance width="708"/>
  <unicode hex="00D8"/>
  <outline>
    <contour>
      <point x="90" y="268" type="curve" smooth="yes"/>
      <point x="90" y="138"/>
      <point x="169" y="37"/>
      <point x="300" y="3" type="curve"/>
      <point x="263" y="-136" type="line"/>
      <point x="292" y="-143" type="line"/>
      <point x="329" y="-3" type="line"/>
      <point x="353" y="-7"/>
      <point x="378" y="-10"/>
      <point x="404" y="-10" type="curve" smooth="yes"/>
      <point x="595" y="-10"/>
      <point x="718" y="106"/>
      <point x="718" y="268" type="curve" smooth="yes"/>
      <point x="718" y="409"/>
      <point x="625" y="514"/>
      <point x="475" y="539" type="curve"/>
      <point x="513" y="682" type="line"/>
      <point x="484" y="689" type="line"/>
      <point x="445" y="543" type="line"/>
      <point x="432" y="544"/>
      <point x="418" y="545"/>
      <point x="404" y="545" type="curve" smooth="yes"/>
      <point x="213" y="545"/>
      <point x="90" y="430"/>
    </contour>
    <contour>
      <point x="623" y="268" type="curve" smooth="yes"/>
      <point x="623" y="142"/>
      <point x="547" y="56"/>
      <point x="404" y="56" type="curve" smooth="yes"/>
      <point x="383" y="56"/>
      <point x="364" y="57"/>
      <point x="347" y="61" type="curve"/>
      <point x="457" y="474" type="line"/>
      <point x="566" y="455"/>
      <point x="623" y="377"/>
    </contour>
    <contour>
      <point x="185" y="268" type="curve" smooth="yes"/>
      <point x="185" y="394"/>
      <point x="260" y="479"/>
      <point x="404" y="479" type="curve" smooth="yes"/>
      <point x="412" y="479"/>
      <point x="420" y="478"/>
      <point x="427" y="478" type="curve"/>
      <point x="317" y="68" type="line"/>
      <point x="230" y="96"/>
      <point x="185" y="170"/>
    </contour>
  </outline>
</glyph>
<glyph name="germandbls" format="1">
  <advance width="523"/>
  <unicode hex="00DF"/>
  <outline>
    <contour>
      <point x="223" y="263" type="line"/>
      <point x="311" y="263"/>
      <point x="394" y="224"/>
      <point x="394" y="138" type="curve" smooth="yes"/>
      <point x="394" y="91"/>
      <point x="361" y="56"/>
      <point x="302" y="56" type="curve" smooth="yes"/>
      <point x="245" y="56"/>
      <point x="218" y="83"/>
      <point x="218" y="83" type="curve"/>
      <point x="218" y="26" type="line"/>
      <point x="218" y="26"/>
      <point x="254" y="-10"/>
      <point x="329" y="-10" type="curve" smooth="yes"/>
      <point x="423" y="-10"/>
      <point x="483" y="44"/>
      <point x="483" y="127" type="curve" smooth="yes"/>
      <point x="483" y="290"/>
      <point x="302" y="306"/>
      <point x="302" y="306" type="curve"/>
      <point x="302" y="306"/>
      <point x="387" y="351"/>
      <point x="387" y="427" type="curve" smooth="yes"/>
      <point x="387" y="504"/>
      <point x="327" y="545"/>
      <point x="251" y="545" type="curve" smooth="yes"/>
      <point x="138" y="545"/>
      <point x="111" y="458"/>
      <point x="111" y="384" type="curve"/>
      <point x="28" y="384" type="line"/>
      <point x="28" y="332" type="line"/>
      <point x="98" y="332" type="line"/>
      <point x="98" y="0" type="line"/>
      <point x="181" y="0" type="line"/>
      <point x="181" y="384" type="line" smooth="yes"/>
      <point x="181" y="444"/>
      <point x="203" y="479"/>
      <point x="242" y="479" type="curve" smooth="yes"/>
      <point x="275" y="479"/>
      <point x="303" y="460"/>
      <point x="303" y="413" type="curve" smooth="yes"/>
      <point x="303" y="341"/>
      <point x="223" y="313"/>
      <point x="223" y="313" type="curve"/>
    </contour>
  </outline>
</glyph>
<glyph name="ae" format="1">
  <advance width="764"/>
  <unicode hex="00E6"/>
  <outline>
    <contour>
      <point x="645" y="149" type="line"/>
      <point x="645" y="149"/>
      <point x="641" y="56"/>
      <point x="535" y="56" type="curve" smooth="yes"/>
      <point x="453" y="56"/>
      <point x="392" y="100"/>
      <point x="392" y="183" type="curve"/>
      <point x="714" y="183" type="line"/>
      <point x="714" y="183"/>
      <point x="717" y="209"/>
      <point x="717" y="230" type="curve" smooth="yes"/>
      <point x="717" y="315"/>
      <point x="655" y="400"/>
      <point x="527" y="400" type="curve" smooth="yes"/>
      <point x="470" y="400"/>
      <point x="389" y="370"/>
      <point x="369" y="299" type="curve"/>
      <point x="357" y="371"/>
      <point x="300" y="400"/>
      <point x="227" y="400" type="curve" smooth="yes"/>
      <point x="100" y="400"/>
      <point x="58" y="310"/>
      <point x="58" y="310" type="curve"/>
      <point x="115" y="272" type="line"/>
      <point x="115" y="272"/>
      <point x="147" y="333"/>
      <point x="230" y="333" type="curve" smooth="yes"/>
      <point x="288" y="333"/>
      <point x="310" y="304"/>
      <point x="311" y="279" type="curve" smooth="yes"/>
      <point x="312" y="232" type="line"/>
      <point x="106" y="232"/>
      <point x="42" y="139"/>
      <point x="42" y="75" type="curve" smooth="yes"/>
      <point x="42" y="27"/>
      <point x="71" y="-10"/>
      <point x="128" y="-10" type="curve" smooth="yes"/>
      <point x="254" y="-10"/>
      <point x="324" y="145"/>
      <point x="328" y="152" type="curve"/>
      <point x="328" y="69"/>
      <point x="399" y="-10"/>
      <point x="520" y="-10" type="curve" smooth="yes"/>
      <point x="720" y="-10"/>
      <point x="724" y="149"/>
      <point x="724" y="149" type="curve"/>
    </contour>
    <contour>
      <point x="396" y="230" type="line"/>
      <point x="412" y="299"/>
      <point x="470" y="333"/>
      <point x="527" y="333" type="curve" smooth="yes"/>
      <point x="644" y="333"/>
      <point x="645" y="230"/>
      <point x="645" y="230" type="curve"/>
    </contour>
    <contour>
      <point x="123" y="89" type="curve" smooth="yes"/>
      <point x="123" y="121"/>
      <point x="159" y="184"/>
      <point x="314" y="184" type="curve"/>
      <point x="316" y="176" type="line"/>
      <point x="318" y="146"/>
      <point x="224" y="56"/>
      <point x="158" y="56" type="curve" smooth="yes"/>
      <point x="137" y="56"/>
      <point x="123" y="68"/>
    </contour>
  </outline>
</glyph>
<glyph name="divide" format="1">
  <advance width="412"/>
  <unicode hex="00F7"/>
  <outline>
    <contour>
      <point x="182" y="67" type="line"/>
      <point x="182" y="20" type="line"/>
      <point x="230" y="20" type="line"/>
      <point x="230" y="67" type="line"/>
    </contour>
    <contour>
      <point x="182" y="364" type="line"/>
      <point x="182" y="317" type="line"/>
      <point x="230" y="317" type="line"/>
      <point x="230" y="364" type="line"/>
    </contour>
    <component base="minus" xOffset="-40"/>
  </outline>
</glyph>
<glyph name="oslash" format="1">
  <advance width="544"/>
  <unicode hex="00F8"/>
  <outline>
    <contour>
      <point x="40" y="195" type="curve" smooth="yes"/>
      <point x="40" y="101"/>
      <point x="95" y="22"/>
      <point x="200" y="-2" type="curve"/>
      <point x="164" y="-136" type="line"/>
      <point x="193" y="-143" type="line"/>
      <point x="229" y="-7" type="line"/>
      <point x="243" y="-9"/>
      <point x="257" y="-10"/>
      <point x="272" y="-10" type="curve" smooth="yes"/>
      <point x="423" y="-10"/>
      <point x="504" y="82"/>
      <point x="504" y="195" type="curve" smooth="yes"/>
      <point x="504" y="290"/>
      <point x="446" y="371"/>
      <point x="337" y="393" type="curve"/>
      <point x="379" y="551" type="line"/>
      <point x="350" y="558" type="line"/>
      <point x="307" y="398" type="line"/>
      <point x="296" y="399"/>
      <point x="284" y="400"/>
      <point x="272" y="400" type="curve" smooth="yes"/>
      <point x="121" y="400"/>
      <point x="40" y="308"/>
    </contour>
    <contour>
      <point x="415" y="195" type="curve" smooth="yes"/>
      <point x="415" y="112"/>
      <point x="365" y="56"/>
      <point x="272" y="56" type="curve" smooth="yes"/>
      <point x="263" y="56"/>
      <point x="255" y="56"/>
      <point x="247" y="57" type="curve"/>
      <point x="319" y="327" type="line"/>
      <point x="382" y="311"/>
      <point x="415" y="262"/>
    </contour>
    <contour>
      <point x="129" y="195" type="curve" smooth="yes"/>
      <point x="129" y="278"/>
      <point x="178" y="333"/>
      <point x="272" y="333" type="curve" smooth="yes"/>
      <point x="278" y="333"/>
      <point x="284" y="332"/>
      <point x="289" y="332" type="curve"/>
      <point x="217" y="63" type="line"/>
      <point x="159" y="81"/>
      <point x="129" y="130"/>
    </contour>
  </outline>
</glyph>
<glyph name="dotlessi" format="1">
  <advance width="223"/>
  <unicode hex="0131"/>
  <outline>
    <contour>
      <point x="111" y="424" type="move" name="top"/>
    </contour>
    <contour>
      <point x="70" y="0" type="line"/>
      <point x="153" y="0" type="line"/>
      <point x="153" y="384" type="line"/>
      <point x="70" y="384" type="line"/>
    </contour>
  </outline>
</glyph>
<glyph name="OE" format="1">
  <advance width="1022"/>
  <unicode hex="0152"/>
  <outline>
    <contour>
      <point x="40" y="268" type="curve" smooth="yes"/>
      <point x="40" y="106"/>
      <point x="163" y="-10"/>
      <point x="354" y="-10" type="curve" smooth="yes"/>
      <point x="386" y="-10"/>
      <point x="417" y="-6"/>
      <point x="445" y="0" type="curve"/>
      <point x="952" y="0" type="line"/>
      <point x="952" y="66" type="line"/>
      <point x="580" y="66" type="line"/>
      <point x="628" y="108"/>
      <point x="658" y="166"/>
      <point x="666" y="234" type="curve"/>
      <point x="892" y="234" type="line"/>
      <point x="892" y="300" type="line"/>
      <point x="666" y="300" type="line"/>
      <point x="659" y="369"/>
      <point x="628" y="429"/>
      <point x="577" y="472" type="curve"/>
      <point x="932" y="472" type="line"/>
      <point x="932" y="538" type="line"/>
      <point x="432" y="538" type="line"/>
      <point x="407" y="542"/>
      <point x="381" y="545"/>
      <point x="354" y="545" type="curve" smooth="yes"/>
      <point x="163" y="545"/>
      <point x="40" y="430"/>
    </contour>
    <contour>
      <point x="223" y="234" type="line"/>
      <point x="571" y="234" type="line"/>
      <point x="558" y="127"/>
      <point x="483" y="56"/>
      <point x="354" y="56" type="curve" smooth="yes"/>
      <point x="210" y="56"/>
      <point x="135" y="142"/>
      <point x="135" y="268" type="curve" smooth="yes"/>
      <point x="135" y="394"/>
      <point x="210" y="479"/>
      <point x="354" y="479" type="curve" smooth="yes"/>
      <point x="485" y="479"/>
      <point x="559" y="408"/>
      <point x="571" y="300" type="curve"/>
      <point x="223" y="300" type="line"/>
    </contour>
  </outline>
</glyph>
<glyph name="oe" format="1">
  <advance width="711"/>
  <unicode hex="0153"/>
  <outline>
    <contour>
      <point x="456" y="424" type="move" name="top"/>
    </contour>
    <contour>
      <point x="128" y="195" type="curve" smooth="yes"/>
      <point x="128" y="244"/>
      <point x="151" y="333"/>
      <point x="268" y="333" type="curve" smooth="yes"/>
      <point x="472" y="333" type="line" smooth="yes"/>
      <point x="589" y="333"/>
      <point x="590" y="230"/>
      <point x="590" y="230" type="curve"/>
      <point x="383" y="230" type="line"/>
      <point x="383" y="183" type="line"/>
      <point x="659" y="183" type="line"/>
      <point x="659" y="183"/>
      <point x="662" y="209"/>
      <point x="662" y="230" type="curve" smooth="yes"/>
      <point x="662" y="315"/>
      <point x="600" y="400"/>
      <point x="472" y="400" type="curve" smooth="yes"/>
      <point x="418" y="400"/>
      <point x="379" y="384"/>
      <point x="379" y="384" type="curve"/>
      <point x="379" y="384"/>
      <point x="331" y="400"/>
      <point x="264" y="400" type="curve" smooth="yes"/>
      <point x="111" y="400"/>
      <point x="40" y="296"/>
      <point x="40" y="195" type="curve" smooth="yes"/>
      <point x="40" y="101"/>
      <point x="101" y="-10"/>
      <point x="270" y="-10" type="curve" smooth="yes"/>
      <point x="314" y="-10"/>
      <point x="376" y="0"/>
      <point x="376" y="0" type="curve"/>
      <point x="376" y="0"/>
      <point x="437" y="-10"/>
      <point x="482" y="-10" type="curve" smooth="yes"/>
      <point x="665" y="-10"/>
      <point x="669" y="149"/>
      <point x="669" y="149" type="curve"/>
      <point x="590" y="149" type="line"/>
      <point x="590" y="149"/>
      <point x="586" y="56"/>
      <point x="480" y="56" type="curve" smooth="yes"/>
      <point x="270" y="56" type="line" smooth="yes"/>
      <point x="144" y="56"/>
      <point x="128" y="159"/>
    </contour>
  </outline>
</glyph>
<glyph name="tilde" format="1">
  <advance width="833"/>
  <unicode hex="02DC"/>
  <outline>
    <contour>
      <point x="416" y="424" type="move" name="_top"/>
    </contour>
    <contour>
      <point x="470" y="548" type="curve" smooth="yes"/>
      <point x="421" y="548"/>
      <point x="403" y="510"/>
      <point x="351" y="510" type="curve"/>
      <point x="303" y="510"/>
      <point x="265" y="546"/>
      <point x="265" y="546" type="curve"/>
      <point x="265" y="491" type="line"/>
      <point x="265" y="491"/>
      <point x="283" y="461"/>
      <point x="351" y="461" type="curve"/>
      <point x="413" y="461"/>
      <point x="421" y="496"/>
      <point x="474" y="498" type="curve"/>
      <point x="521" y="498"/>
      <point x="554" y="471"/>
      <point x="554" y="471" type="curve"/>
      <point x="554" y="522" type="line"/>
      <point x="554" y="522"/>
      <point x="518" y="548"/>
    </contour>
  </outline>
</glyph>
<glyph name="endash" format="1">
  <advance width="923"/>
  <unicode hex="2013"/>
  <outline>
    <contour>
      <point x="110" y="177" type="line"/>
      <point x="813" y="177" type="line"/>
      <point x="813" y="207" type="line"/>
      <point x="110" y="207" type="line"/>
    </contour>
  </outline>
</glyph>
<glyph name="emdash" format="1">
  <advance width="923"/>
  <unicode hex="2014"/>
  <outline>
    <contour>
      <point x="50" y="177" type="line"/>
      <point x="873" y="177" type="line"/>
      <point x="873" y="207" type="line"/>
      <point x="50" y="207" type="line"/>
    </contour>
  </outline>
</glyph>
<glyph name="quoteleft" format="1">
  <advance width="300"/>
  <unicode hex="2018"/>
  <outline>
    <contour>
      <point x="199" y="335" type="line"/>
      <point x="199" y="423" type="line"/>
      <point x="139" y="423" type="line"/>
      <point x="139" y="503"/>
      <point x="176" y="513"/>
      <point x="209" y="513" type="curve"/>
      <point x="185" y="538" type="line"/>
      <point x="137" y="538"/>
      <point x="91" y="503"/>
      <point x="91" y="423" type="curve"/>
      <point x="91" y="335" type="line"/>
    </contour>
  </outline>
</glyph>
<glyph name="quoteright" format="1">
  <advance width="300"/>
  <unicode hex="2019"/>
  <outline>
    <contour>
      <point x="101" y="538" type="line"/>
      <point x="101" y="450" type="line"/>
      <point x="161" y="450" type="line"/>
      <point x="161" y="370"/>
      <point x="124" y="360"/>
      <point x="91" y="360" type="curve"/>
      <point x="115" y="335" type="line"/>
      <point x="163" y="335"/>
      <point x="209" y="370"/>
      <point x="209" y="450" type="curve"/>
      <point x="209" y="538" type="line"/>
    </contour>
  </outline>
</glyph>
<glyph name="quotesinglbase" format="1">
  <advance width="300"/>
  <unicode hex="201A"/>
  <outline>
    <contour>
      <point x="101" y="88" type="line"/>
      <point x="101" y="0" type="line"/>
      <point x="161" y="0" type="line"/>
      <point x="161" y="-80"/>
      <point x="124" y="-90"/>
      <point x="91" y="-90" type="curve"/>
      <point x="115" y="-115" type="line"/>
      <point x="163" y="-115"/>
      <point x="209" y="-80"/>
      <point x="209" y="0" type="curve"/>
      <point x="209" y="88" type="line"/>
    </contour>
  </outline>
</glyph>
<glyph name="quotedblleft" format="1">
  <advance width="300"/>
  <unicode hex="201C"/>
  <outline>
    <contour>
      <point x="273" y="335" type="line"/>
      <point x="273" y="423" type="line"/>
      <point x="213" y="423" type="line"/>
      <point x="213" y="503"/>
      <point x="250" y="513"/>
      <point x="283" y="513" type="curve"/>
      <point x="259" y="538" type="line"/>
      <point x="211" y="538"/>
      <point x="165" y="503"/>
      <point x="165" y="423" type="curve"/>
      <point x="165" y="335" type="line"/>
    </contour>
    <contour>
      <point x="125" y="335" type="line"/>
      <point x="125" y="423" type="line"/>
      <point x="65" y="423" type="line"/>
      <point x="65" y="503"/>
      <point x="102" y="513"/>
      <point x="135" y="513" type="curve"/>
      <point x="111" y="538" type="line"/>
      <point x="63" y="538"/>
      <point x="17" y="503"/>
      <point x="17" y="423" type="curve" smooth="yes"/>
      <point x="17" y="335" type="line"/>
    </contour>
  </outline>
</glyph>
<glyph name="quotedblright" format="1">
  <advance width="300"/>
  <unicode hex="201D"/>
  <outline>
    <contour>
      <point x="27" y="538" type="line"/>
      <point x="27" y="450" type="line"/>
      <point x="87" y="450" type="line"/>
      <point x="87" y="370"/>
      <point x="50" y="360"/>
      <point x="17" y="360" type="curve"/>
      <point x="41" y="335" type="line"/>
      <point x="89" y="335"/>
      <point x="135" y="370"/>
      <point x="135" y="450" type="curve"/>
      <point x="135" y="538" type="line"/>
    </contour>
    <contour>
      <point x="175" y="538" type="line"/>
      <point x="175" y="450" type="line"/>
      <point x="235" y="450" type="line"/>
      <point x="235" y="370"/>
      <point x="198" y="360"/>
      <point x="165" y="360" type="curve"/>
      <point x="189" y="335" type="line"/>
      <point x="237" y="335"/>
      <point x="283" y="370"/>
      <point x="283" y="450" type="curve" smooth="yes"/>
      <point x="283" y="538" type="line"/>
    </contour>
  </outline>
</glyph>
<glyph name="quotedblbase" format="1">
  <advance width="300"/>
  <unicode hex="201E"/>
  <outline>
    <contour>
      <point x="27" y="88" type="line"/>
      <point x="27" y="0" type="line"/>
      <point x="87" y="0" type="line"/>
      <point x="87" y="-80"/>
      <point x="50" y="-90"/>
      <point x="17" y="-90" type="curve"/>
      <point x="41" y="-115" type="line"/>
      <point x="89" y="-115"/>
      <point x="135" y="-80"/>
      <point x="135" y="0" type="curve"/>
      <point x="135" y="88" type="line"/>
    </contour>
    <contour>
      <point x="175" y="88" type="line"/>
      <point x="175" y="0" type="line"/>
      <point x="235" y="0" type="line"/>
      <point x="235" y="-80"/>
      <point x="198" y="-90"/>
      <point x="165" y="-90" type="curve"/>
      <point x="189" y="-115" type="line"/>
      <point x="237" y="-115"/>
      <point x="283" y="-80"/>
      <point x="283" y="0" type="curve" smooth="yes"/>
      <point x="283" y="88" type="line"/>
    </contour>
  </outline>
</glyph>
<glyph name="dagger" format="1">
  <advance width="305"/>
  <unicode hex="2020"/>
  <outline>
    <contour>
      <point x="305" y="320" type="line"/>
      <point x="305" y="384" type="line"/>
      <point x="194" y="384" type="line"/>
      <point x="184" y="545" type="line"/>
      <point x="121" y="545" type="line"/>
      <point x="111" y="384" type="line"/>
      <point x="0" y="384" type="line"/>
      <point x="0" y="320" type="line"/>
      <point x="111" y="320" type="line"/>
      <point x="111" y="-154" type="line"/>
      <point x="194" y="-154" type="line"/>
      <point x="194" y="320" type="line"/>
    </contour>
  </outline>
</glyph>
<glyph name="bullet" format="1">
  <advance width="447"/>
  <unicode hex="2022"/>
  <outline>
    <contour>
      <point x="418" y="180" type="curve"/>
      <point x="165" y="433" type="line"/>
      <point x="153" y="431"/>
      <point x="146" y="426"/>
      <point x="136" y="422" type="curve"/>
      <point x="407" y="151" type="line"/>
      <point x="412" y="160"/>
      <point x="414" y="170"/>
    </contour>
    <contour>
      <point x="400" y="138" type="curve"/>
      <point x="122" y="416" type="line"/>
      <point x="102" y="401" type="line"/>
      <point x="385" y="117" type="line"/>
      <point x="392" y="124"/>
      <point x="397" y="130"/>
    </contour>
    <contour>
      <point x="426" y="230" type="curve"/>
      <point x="216" y="440" type="line"/>
      <point x="204" y="441"/>
      <point x="191" y="440"/>
      <point x="178" y="437" type="curve"/>
      <point x="422" y="192" type="line"/>
      <point x="426" y="206"/>
      <point x="426" y="219"/>
    </contour>
    <contour>
      <point x="368" y="95" type="line"/>
      <point x="376" y="102" type="line"/>
      <point x="88" y="390" type="line"/>
      <point x="81" y="382" type="line"/>
      <point x="73" y="375" type="line"/>
      <point x="361" y="87" type="line"/>
    </contour>
    <contour>
      <point x="418" y="300" type="curve"/>
      <point x="286" y="431" type="line"/>
      <point x="267" y="438"/>
      <point x="246" y="442"/>
      <point x="226" y="442" type="curve"/>
      <point x="427" y="241" type="line"/>
      <point x="426" y="262"/>
      <point x="424" y="281"/>
    </contour>
    <contour>
      <point x="342" y="74" type="curve"/>
      <point x="59" y="358" type="line"/>
      <point x="50" y="345" type="line"/>
      <point x="330" y="66" type="line"/>
      <point x="335" y="68"/>
      <point x="339" y="71"/>
    </contour>
    <contour>
      <point x="31" y="306" type="curve"/>
      <point x="291" y="47" type="line"/>
      <point x="304" y="53" type="line"/>
      <point x="38" y="320" type="line"/>
      <point x="35" y="316"/>
      <point x="33" y="310"/>
    </contour>
    <contour>
      <point x="258" y="38" type="line"/>
      <point x="23" y="274" type="line"/>
      <point x="22" y="262" type="line"/>
      <point x="248" y="35" type="line"/>
    </contour>
    <contour>
      <point x="367" y="382" type="curve" smooth="yes"/>
      <point x="345" y="404"/>
      <point x="322" y="420"/>
      <point x="294" y="430" type="curve"/>
      <point x="416" y="308" type="line"/>
      <point x="407" y="335"/>
      <point x="389" y="360"/>
    </contour>
    <contour>
      <point x="23" y="206" type="line"/>
      <point x="192" y="37" type="line"/>
      <point x="200" y="35" type="line"/>
      <point x="21" y="214" type="line"/>
    </contour>
    <contour>
      <point x="79" y="94" type="curve"/>
      <point x="92" y="83" type="line"/>
      <point x="64" y="111" type="line"/>
      <point x="69" y="104"/>
      <point x="73" y="99"/>
    </contour>
  </outline>
</glyph>
<glyph name="ellipsis" format="1">
  <advance width="544"/>
  <unicode hex="2026"/>
  <outline>
    <contour>
      <point x="50" y="87" type="line"/>
      <point x="50" y="0" type="line"/>
      <point x="158" y="0" type="line"/>
      <point x="158" y="87" type="line"/>
    </contour>
    <contour>
      <point x="218" y="82" type="line"/>
      <point x="218" y="0" type="line"/>
      <point x="326" y="0" type="line"/>
      <point x="326" y="82" type="line"/>
    </contour>
    <contour>
      <point x="386" y="77" type="line"/>
      <point x="386" y="0" type="line"/>
      <point x="494" y="0" type="line"/>
      <point x="494" y="77" type="line"/>
    </contour>
  </outline>
</glyph>
<glyph name="guilsinglleft" format="1">
  <advance width="259"/>
  <unicode hex="2039"/>
  <outline>
    <contour>
      <point x="0" y="192" type="line"/>
      <point x="216" y="26" type="line"/>
      <point x="216" y="90" type="line"/>
      <point x="82" y="192" type="line"/>
      <point x="219" y="298" type="line"/>
      <point x="219" y="361" type="line"/>
    </contour>
  </outline>
</glyph>
<glyph name="guilsinglright" format="1">
  <advance width="259"/>
  <unicode hex="203A"/>
  <outline>
    <contour>
      <point x="40" y="361" type="line"/>
      <point x="40" y="298" type="line"/>
      <point x="177" y="192" type="line"/>
      <point x="43" y="90" type="line"/>
      <point x="43" y="26" type="line"/>
      <point x="259" y="192" type="line"/>
    </contour>
  </outline>
</glyph>
<glyph name="Euro" format="1">
  <advance width="647"/>
  <unicode hex="20AC"/>
  <outline>
    <contour>
      <point x="323" y="578" type="move" name="top"/>
    </contour>
    <contour>
      <point x="323" y="-20" type="move" name="bottom"/>
    </contour>
    <contour>
      <point x="0" y="277" type="line"/>
      <point x="50" y="277" type="line"/>
      <point x="50" y="268" type="line" smooth="yes"/>
      <point x="50" y="257"/>
      <point x="50" y="247"/>
      <point x="51" y="237" type="curve"/>
      <point x="0" y="237" type="line"/>
      <point x="0" y="207" type="line"/>
      <point x="55" y="207" type="line"/>
      <point x="80" y="77"/>
      <point x="187" y="-10"/>
      <point x="349" y="-10" type="curve" smooth="yes"/>
      <point x="620" y="-10"/>
      <point x="626" y="207"/>
      <point x="626" y="207" type="curve"/>
      <point x="542" y="207" type="line"/>
      <point x="542" y="207"/>
      <point x="534" y="56"/>
      <point x="348" y="56" type="curve" smooth="yes"/>
      <point x="242" y="56"/>
      <point x="171" y="115"/>
      <point x="150" y="207" type="curve"/>
      <point x="403" y="207" type="line"/>
      <point x="403" y="237" type="line"/>
      <point x="146" y="237" type="line"/>
      <point x="145" y="247"/>
      <point x="144" y="257"/>
      <point x="144" y="268" type="curve" smooth="yes"/>
      <point x="144" y="277" type="line"/>
      <point x="403" y="277" type="line"/>
      <point x="403" y="307" type="line"/>
      <point x="147" y="307" type="line"/>
      <point x="161" y="411"/>
      <point x="234" y="479"/>
      <point x="348" y="479" type="curve" smooth="yes"/>
      <point x="475" y="479"/>
      <point x="538" y="390"/>
      <point x="538" y="311" type="curve"/>
      <point x="609" y="329" type="line"/>
      <point x="609" y="421"/>
      <point x="520" y="545"/>
      <point x="348" y="545" type="curve" smooth="yes"/>
      <point x="187" y="545"/>
      <point x="70" y="448"/>
      <point x="52" y="307" type="curve"/>
      <point x="0" y="307" type="line"/>
    </contour>
  </outline>
</glyph>
<glyph name="uni21E8" format="1">
  <advance width="802"/>
  <unicode hex="21E8"/>
  <outline>
    <contour>
      <point x="513" y="87" type="line"/>
      <point x="513" y="5" type="line"/>
      <point x="543" y="5" type="line"/>
      <point x="802" y="222" type="line"/>
      <point x="802" y="244" type="line"/>
      <point x="543" y="461" type="line"/>
      <point x="513" y="461" type="line"/>
      <point x="513" y="379" type="line"/>
      <point x="100" y="379" type="line"/>
      <point x="100" y="87" type="line"/>
    </contour>
    <contour>
      <point x="543" y="346" type="line"/>
      <point x="543" y="417" type="line"/>
      <point x="767" y="233" type="line"/>
      <point x="543" y="49" type="line"/>
      <point x="543" y="120" type="line"/>
      <point x="130" y="120" type="line"/>
      <point x="130" y="346" type="line"/>
    </contour>
  </outline>
</glyph>
<glyph name="uni21E9" format="1">
  <advance width="496"/>
  <unicode hex="21E9"/>
  <outline>
    <contour>
      <point x="102" y="210" type="line"/>
      <point x="20" y="210" type="line"/>
      <point x="20" y="180" type="line"/>
      <point x="237" y="-79" type="line"/>
      <point x="259" y="-79" type="line"/>
      <point x="476" y="180" type="line"/>
      <point x="476" y="210" type="line"/>
      <point x="394" y="210" type="line"/>
      <point x="394" y="623" type="line"/>
      <point x="102" y="623" type="line"/>
    </contour>
    <contour>
      <point x="361" y="180" type="line"/>
      <point x="432" y="180" type="line"/>
      <point x="248" y="-44" type="line"/>
      <point x="64" y="180" type="line"/>
      <point x="135" y="180" type="line"/>
      <point x="135" y="593" type="line"/>
      <point x="361" y="593" type="line"/>
    </contour>
  </outline>
</glyph>
<glyph name="minus" format="1">
  <advance width="492"/>
  <unicode hex="2212"/>
  <outline>
    <contour>
      <point x="50" y="207" type="line"/>
      <point x="50" y="177" type="line"/>
      <point x="442" y="177" type="line"/>
      <point x="442" y="207" type="line"/>
    </contour>
  </outline>
</glyph>
<glyph name="uni2461" format="1">
  <advance width="670"/>
  <unicode hex="2461"/>
  <outline>
    <contour>
      <point x="502" y="372" type="curve"/>
      <point x="502" y="430"/>
      <point x="444" y="493"/>
      <point x="345" y="493" type="curve"/>
      <point x="217" y="493"/>
      <point x="172" y="380"/>
      <point x="172" y="334" type="curve"/>
      <point x="217" y="314" type="line"/>
      <point x="217" y="357"/>
      <point x="256" y="440"/>
      <point x="342" y="440" type="curve" smooth="yes"/>
      <point x="396" y="440"/>
      <point x="431" y="407"/>
      <point x="431" y="359" type="curve"/>
      <point x="431" y="301"/>
      <point x="354" y="240"/>
      <point x="175" y="140" type="curve"/>
      <point x="175" y="87" type="line"/>
      <point x="496" y="87" type="line"/>
      <point x="496" y="140" type="line"/>
      <point x="248" y="140" type="line"/>
      <point x="400" y="211"/>
      <point x="502" y="270"/>
    </contour>
    <contour>
      <point x="20" y="269" type="curve" smooth="yes"/>
      <point x="20" y="95"/>
      <point x="161" y="-46"/>
      <point x="335" y="-46" type="curve" smooth="yes"/>
      <point x="509" y="-46"/>
      <point x="650" y="95"/>
      <point x="650" y="269" type="curve" smooth="yes"/>
      <point x="650" y="443"/>
      <point x="509" y="584"/>
      <point x="335" y="584" type="curve" smooth="yes"/>
      <point x="161" y="584"/>
      <point x="20" y="443"/>
    </contour>
    <contour>
      <point x="51" y="269" type="curve" smooth="yes"/>
      <point x="51" y="426"/>
      <point x="178" y="553"/>
      <point x="335" y="553" type="curve" smooth="yes"/>
      <point x="492" y="553"/>
      <point x="619" y="426"/>
      <point x="619" y="269" type="curve" smooth="yes"/>
      <point x="619" y="112"/>
      <point x="492" y="-15"/>
      <point x="335" y="-15" type="curve" smooth="yes"/>
      <point x="178" y="-15"/>
      <point x="51" y="112"/>
    </contour>
  </outline>
</glyph>
<glyph name="uni2462" format="1">
  <advance width="670"/>
  <unicode hex="2462"/>
  <outline>
    <contour>
      <point x="302" y="260" type="line"/>
      <point x="362" y="260"/>
      <point x="446" y="247"/>
      <point x="450" y="179" type="curve" smooth="yes"/>
      <point x="453" y="121"/>
      <point x="385" y="98"/>
      <point x="338" y="98" type="curve" smooth="yes"/>
      <point x="234" y="98"/>
      <point x="201" y="170"/>
      <point x="208" y="208" type="curve"/>
      <point x="154" y="189" type="line"/>
      <point x="142" y="135"/>
      <point x="202" y="45"/>
      <point x="341" y="45" type="curve" smooth="yes"/>
      <point x="432" y="45"/>
      <point x="526" y="95"/>
      <point x="526" y="173" type="curve" smooth="yes"/>
      <point x="526" y="248"/>
      <point x="454" y="279"/>
      <point x="406" y="282" type="curve"/>
      <point x="453" y="287"/>
      <point x="513" y="315"/>
      <point x="513" y="375" type="curve" smooth="yes"/>
      <point x="513" y="431"/>
      <point x="445" y="489"/>
      <point x="341" y="489" type="curve" smooth="yes"/>
      <point x="230" y="489"/>
      <point x="171" y="416"/>
      <point x="159" y="368" type="curve"/>
      <point x="211" y="344" type="line"/>
      <point x="225" y="391"/>
      <point x="263" y="436"/>
      <point x="337" y="436" type="curve"/>
      <point x="400" y="436"/>
      <point x="437" y="412"/>
      <point x="437" y="369" type="curve"/>
      <point x="437" y="314"/>
      <point x="374" y="298"/>
      <point x="327" y="298" type="curve" smooth="yes"/>
      <point x="302" y="298" type="line"/>
    </contour>
    <contour>
      <point x="20" y="269" type="curve" smooth="yes"/>
      <point x="20" y="95"/>
      <point x="161" y="-46"/>
      <point x="335" y="-46" type="curve" smooth="yes"/>
      <point x="509" y="-46"/>
      <point x="650" y="95"/>
      <point x="650" y="269" type="curve" smooth="yes"/>
      <point x="650" y="443"/>
      <point x="509" y="584"/>
      <point x="335" y="584" type="curve" smooth="yes"/>
      <point x="161" y="584"/>
      <point x="20" y="443"/>
    </contour>
    <contour>
      <point x="51" y="269" type="curve" smooth="yes"/>
      <point x="51" y="426"/>
      <point x="178" y="553"/>
      <point x="335" y="553" type="curve" smooth="yes"/>
      <point x="492" y="553"/>
      <point x="619" y="426"/>
      <point x="619" y="269" type="curve" smooth="yes"/>
      <point x="619" y="112"/>
      <point x="492" y="-15"/>
      <point x="335" y="-15" type="curve" smooth="yes"/>
      <point x="178" y="-15"/>
      <point x="51" y="112"/>
    </contour>
  </outline>
</glyph>
<glyph name="uni2463" format="1">
  <advance width="670"/>
  <unicode hex="2463"/>
  <outline>
    <contour>
      <point x="95" y="182" type="line"/>
      <point x="368" y="182" type="line"/>
      <point x="368" y="50" type="line"/>
      <point x="436" y="50" type="line"/>
      <point x="436" y="182" type="line"/>
      <point x="518" y="182" type="line"/>
      <point x="518" y="235" type="line"/>
      <point x="436" y="235" type="line"/>
      <point x="432" y="480" type="line"/>
      <point x="350" y="480" type="line"/>
      <point x="95" y="212" type="line"/>
    </contour>
    <contour>
      <point x="370" y="432" type="line"/>
      <point x="368" y="235" type="line"/>
      <point x="184" y="235" type="line"/>
    </contour>
    <contour>
      <point x="20" y="269" type="curve" smooth="yes"/>
      <point x="20" y="95"/>
      <point x="161" y="-46"/>
      <point x="335" y="-46" type="curve" smooth="yes"/>
      <point x="509" y="-46"/>
      <point x="650" y="95"/>
      <point x="650" y="269" type="curve" smooth="yes"/>
      <point x="650" y="443"/>
      <point x="509" y="584"/>
      <point x="335" y="584" type="curve" smooth="yes"/>
      <point x="161" y="584"/>
      <point x="20" y="443"/>
    </contour>
    <contour>
      <point x="51" y="269" type="curve" smooth="yes"/>
      <point x="51" y="426"/>
      <point x="178" y="553"/>
      <point x="335" y="553" type="curve" smooth="yes"/>
      <point x="492" y="553"/>
      <point x="619" y="426"/>
      <point x="619" y="269" type="curve" smooth="yes"/>
      <point x="619" y="112"/>
      <point x="492" y="-15"/>
      <point x="335" y="-15" type="curve" smooth="yes"/>
      <point x="178" y="-15"/>
      <point x="51" y="112"/>
    </contour>
  </outline>
</glyph>
<glyph name="uni2464" format="1">
  <advance width="670"/>
  <unicode hex="2464"/>
  <outline>
    <contour>
      <point x="472" y="480" type="line"/>
      <point x="203" y="480" type="line"/>
      <point x="154" y="252" type="line"/>
      <point x="218" y="252" type="line"/>
      <point x="218" y="252"/>
      <point x="266" y="288"/>
      <point x="342" y="288" type="curve"/>
      <point x="426" y="288"/>
      <point x="458" y="242"/>
      <point x="458" y="191" type="curve" smooth="yes"/>
      <point x="458" y="136"/>
      <point x="406" y="95"/>
      <point x="335" y="95" type="curve"/>
      <point x="228" y="95"/>
      <point x="194" y="167"/>
      <point x="190" y="205" type="curve"/>
      <point x="136" y="186" type="line"/>
      <point x="136" y="120"/>
      <point x="208" y="42"/>
      <point x="339" y="42" type="curve"/>
      <point x="447" y="42"/>
      <point x="530" y="102"/>
      <point x="530" y="187" type="curve" smooth="yes"/>
      <point x="530" y="282"/>
      <point x="457" y="340"/>
      <point x="358" y="340" type="curve" smooth="yes"/>
      <point x="275" y="340"/>
      <point x="226" y="295"/>
      <point x="226" y="295" type="curve"/>
      <point x="254" y="428" type="line"/>
      <point x="472" y="428" type="line"/>
    </contour>
    <contour>
      <point x="20" y="269" type="curve" smooth="yes"/>
      <point x="20" y="95"/>
      <point x="161" y="-46"/>
      <point x="335" y="-46" type="curve" smooth="yes"/>
      <point x="509" y="-46"/>
      <point x="650" y="95"/>
      <point x="650" y="269" type="curve" smooth="yes"/>
      <point x="650" y="443"/>
      <point x="509" y="584"/>
      <point x="335" y="584" type="curve" smooth="yes"/>
      <point x="161" y="584"/>
      <point x="20" y="443"/>
    </contour>
    <contour>
      <point x="51" y="269" type="curve" smooth="yes"/>
      <point x="51" y="426"/>
      <point x="178" y="553"/>
      <point x="335" y="553" type="curve" smooth="yes"/>
      <point x="492" y="553"/>
      <point x="619" y="426"/>
      <point x="619" y="269" type="curve" smooth="yes"/>
      <point x="619" y="112"/>
      <point x="492" y="-15"/>
      <point x="335" y="-15" type="curve" smooth="yes"/>
      <point x="178" y="-15"/>
      <point x="51" y="112"/>
    </contour>
  </outline>
</glyph>
<glyph name="uni2465" format="1">
  <advance width="670"/>
  <unicode hex="2465"/>
  <outline>
    <contour>
      <point x="347" y="432" type="curve" smooth="yes"/>
      <point x="408" y="432"/>
      <point x="437" y="391"/>
      <point x="437" y="391" type="curve"/>
      <point x="476" y="419" type="line"/>
      <point x="476" y="419"/>
      <point x="442" y="485"/>
      <point x="337" y="485" type="curve" smooth="yes"/>
      <point x="215" y="485"/>
      <point x="132" y="372"/>
      <point x="132" y="252" type="curve" smooth="yes"/>
      <point x="132" y="141"/>
      <point x="207" y="41"/>
      <point x="334" y="41" type="curve" smooth="yes"/>
      <point x="434" y="41"/>
      <point x="517" y="99"/>
      <point x="517" y="185" type="curve" smooth="yes"/>
      <point x="517" y="265"/>
      <point x="450" y="317"/>
      <point x="362" y="317" type="curve" smooth="yes"/>
      <point x="272" y="317"/>
      <point x="214" y="263"/>
      <point x="204" y="247" type="curve"/>
      <point x="204" y="349"/>
      <point x="256" y="432"/>
    </contour>
    <contour>
      <point x="327" y="267" type="curve"/>
      <point x="388" y="267"/>
      <point x="441" y="239"/>
      <point x="441" y="185" type="curve" smooth="yes"/>
      <point x="441" y="135"/>
      <point x="399" y="94"/>
      <point x="337" y="94" type="curve" smooth="yes"/>
      <point x="263" y="94"/>
      <point x="218" y="147"/>
      <point x="206" y="218" type="curve"/>
      <point x="218" y="231"/>
      <point x="277" y="267"/>
    </contour>
    <contour>
      <point x="20" y="269" type="curve" smooth="yes"/>
      <point x="20" y="95"/>
      <point x="161" y="-46"/>
      <point x="335" y="-46" type="curve" smooth="yes"/>
      <point x="509" y="-46"/>
      <point x="650" y="95"/>
      <point x="650" y="269" type="curve" smooth="yes"/>
      <point x="650" y="443"/>
      <point x="509" y="584"/>
      <point x="335" y="584" type="curve" smooth="yes"/>
      <point x="161" y="584"/>
      <point x="20" y="443"/>
    </contour>
    <contour>
      <point x="51" y="269" type="curve" smooth="yes"/>
      <point x="51" y="426"/>
      <point x="178" y="553"/>
      <point x="335" y="553" type="curve" smooth="yes"/>
      <point x="492" y="553"/>
      <point x="619" y="426"/>
      <point x="619" y="269" type="curve" smooth="yes"/>
      <point x="619" y="112"/>
      <point x="492" y="-15"/>
      <point x="335" y="-15" type="curve" smooth="yes"/>
      <point x="178" y="-15"/>
      <point x="51" y="112"/>
    </contour>
  </outline>
</glyph>
<glyph name="uni2466" format="1">
  <advance width="670"/>
  <unicode hex="2466"/>
  <outline>
    <contour>
      <point x="502" y="470" type="line"/>
      <point x="193" y="470" type="line"/>
      <point x="193" y="418" type="line"/>
      <point x="433" y="418" type="line"/>
      <point x="433" y="418"/>
      <point x="302" y="282"/>
      <point x="235" y="40" type="curve"/>
      <point x="309" y="40" type="line"/>
      <point x="368" y="274"/>
      <point x="502" y="426"/>
      <point x="502" y="426" type="curve"/>
    </contour>
    <contour>
      <point x="20" y="269" type="curve" smooth="yes"/>
      <point x="20" y="95"/>
      <point x="161" y="-46"/>
      <point x="335" y="-46" type="curve" smooth="yes"/>
      <point x="509" y="-46"/>
      <point x="650" y="95"/>
      <point x="650" y="269" type="curve" smooth="yes"/>
      <point x="650" y="443"/>
      <point x="509" y="584"/>
      <point x="335" y="584" type="curve" smooth="yes"/>
      <point x="161" y="584"/>
      <point x="20" y="443"/>
    </contour>
    <contour>
      <point x="51" y="269" type="curve" smooth="yes"/>
      <point x="51" y="426"/>
      <point x="178" y="553"/>
      <point x="335" y="553" type="curve" smooth="yes"/>
      <point x="492" y="553"/>
      <point x="619" y="426"/>
      <point x="619" y="269" type="curve" smooth="yes"/>
      <point x="619" y="112"/>
      <point x="492" y="-15"/>
      <point x="335" y="-15" type="curve" smooth="yes"/>
      <point x="178" y="-15"/>
      <point x="51" y="112"/>
    </contour>
  </outline>
</glyph>
<glyph name="uni2467" format="1">
  <advance width="670"/>
  <unicode hex="2467"/>
  <outline>
    <contour>
      <point x="20" y="269" type="curve" smooth="yes"/>
      <point x="20" y="95"/>
      <point x="161" y="-46"/>
      <point x="335" y="-46" type="curve" smooth="yes"/>
      <point x="509" y="-46"/>
      <point x="650" y="95"/>
      <point x="650" y="269" type="curve" smooth="yes"/>
      <point x="650" y="443"/>
      <point x="509" y="584"/>
      <point x="335" y="584" type="curve" smooth="yes"/>
      <point x="161" y="584"/>
      <point x="20" y="443"/>
    </contour>
    <contour>
      <point x="51" y="269" type="curve" smooth="yes"/>
      <point x="51" y="426"/>
      <point x="178" y="553"/>
      <point x="335" y="553" type="curve" smooth="yes"/>
      <point x="492" y="553"/>
      <point x="619" y="426"/>
      <point x="619" y="269" type="curve" smooth="yes"/>
      <point x="619" y="112"/>
      <point x="492" y="-15"/>
      <point x="335" y="-15" type="curve" smooth="yes"/>
      <point x="178" y="-15"/>
      <point x="51" y="112"/>
    </contour>
    <contour>
      <point x="523" y="372" type="curve" smooth="yes"/>
      <point x="523" y="440"/>
      <point x="432" y="490"/>
      <point x="335" y="490" type="curve" smooth="yes"/>
      <point x="238" y="490"/>
      <point x="147" y="440"/>
      <point x="147" y="372" type="curve" smooth="yes"/>
      <point x="147" y="291"/>
      <point x="256" y="274"/>
      <point x="274" y="272" type="curve"/>
      <point x="256" y="269"/>
      <point x="135" y="250"/>
      <point x="135" y="172" type="curve" smooth="yes"/>
      <point x="135" y="92"/>
      <point x="230" y="46"/>
      <point x="335" y="46" type="curve" smooth="yes"/>
      <point x="440" y="46"/>
      <point x="535" y="92"/>
      <point x="535" y="172" type="curve" smooth="yes"/>
      <point x="535" y="254"/>
      <point x="423" y="279"/>
      <point x="418" y="280" type="curve"/>
      <point x="427" y="282"/>
      <point x="523" y="305"/>
    </contour>
    <contour>
      <point x="459" y="172" type="curve" smooth="yes"/>
      <point x="459" y="126"/>
      <point x="402" y="99"/>
      <point x="335" y="99" type="curve" smooth="yes"/>
      <point x="268" y="99"/>
      <point x="211" y="126"/>
      <point x="211" y="172" type="curve" smooth="yes"/>
      <point x="211" y="238"/>
      <point x="298" y="256"/>
      <point x="321" y="256" type="curve" smooth="yes"/>
      <point x="380" y="256"/>
      <point x="459" y="235"/>
    </contour>
    <contour>
      <point x="223" y="372" type="curve" smooth="yes"/>
      <point x="223" y="406"/>
      <point x="261" y="437"/>
      <point x="335" y="437" type="curve" smooth="yes"/>
      <point x="410" y="437"/>
      <point x="447" y="406"/>
      <point x="447" y="372" type="curve" smooth="yes"/>
      <point x="447" y="316"/>
      <point x="376" y="297"/>
      <point x="354" y="297" type="curve" smooth="yes"/>
      <point x="341" y="297"/>
      <point x="223" y="299"/>
    </contour>
  </outline>
</glyph>
<glyph name="uni2468" format="1">
  <advance width="670"/>
  <unicode hex="2468"/>
  <outline>
    <contour>
      <point x="332" y="99" type="curve"/>
      <point x="234" y="99"/>
      <point x="211" y="177"/>
      <point x="213" y="209" type="curve"/>
      <point x="159" y="190" type="line"/>
      <point x="155" y="143"/>
      <point x="199" y="46"/>
      <point x="334" y="46" type="curve" smooth="yes"/>
      <point x="477" y="46"/>
      <point x="542" y="159"/>
      <point x="542" y="279" type="curve" smooth="yes"/>
      <point x="542" y="390"/>
      <point x="467" y="490"/>
      <point x="339" y="490" type="curve" smooth="yes"/>
      <point x="240" y="490"/>
      <point x="157" y="432"/>
      <point x="157" y="346" type="curve" smooth="yes"/>
      <point x="157" y="266"/>
      <point x="224" y="214"/>
      <point x="301" y="214" type="curve" smooth="yes"/>
      <point x="392" y="214"/>
      <point x="450" y="255"/>
      <point x="470" y="284" type="curve"/>
      <point x="479" y="178"/>
      <point x="418" y="99"/>
    </contour>
    <contour>
      <point x="330" y="264" type="curve"/>
      <point x="279" y="264"/>
      <point x="233" y="292"/>
      <point x="233" y="346" type="curve" smooth="yes"/>
      <point x="233" y="396"/>
      <point x="275" y="437"/>
      <point x="337" y="437" type="curve" smooth="yes"/>
      <point x="411" y="437"/>
      <point x="455" y="387"/>
      <point x="468" y="323" type="curve"/>
      <point x="446" y="291"/>
      <point x="378" y="264"/>
    </contour>
    <contour>
      <point x="20" y="269" type="curve" smooth="yes"/>
      <point x="20" y="95"/>
      <point x="161" y="-46"/>
      <point x="335" y="-46" type="curve" smooth="yes"/>
      <point x="509" y="-46"/>
      <point x="650" y="95"/>
      <point x="650" y="269" type="curve" smooth="yes"/>
      <point x="650" y="443"/>
      <point x="509" y="584"/>
      <point x="335" y="584" type="curve" smooth="yes"/>
      <point x="161" y="584"/>
      <point x="20" y="443"/>
    </contour>
    <contour>
      <point x="51" y="269" type="curve" smooth="yes"/>
      <point x="51" y="426"/>
      <point x="178" y="553"/>
      <point x="335" y="553" type="curve" smooth="yes"/>
      <point x="492" y="553"/>
      <point x="619" y="426"/>
      <point x="619" y="269" type="curve" smooth="yes"/>
      <point x="619" y="112"/>
      <point x="492" y="-15"/>
      <point x="335" y="-15" type="curve" smooth="yes"/>
      <point x="178" y="-15"/>
      <point x="51" y="112"/>
    </contour>
  </outline>
</glyph>
<glyph name="uni2469" format="1">
  <advance width="670"/>
  <unicode hex="2469"/>
  <outline>
    <contour>
      <point x="134" y="267" type="curve"/>
      <point x="134" y="144"/>
      <point x="208" y="45"/>
      <point x="337" y="45" type="curve" smooth="yes"/>
      <point x="466" y="45"/>
      <point x="540" y="144"/>
      <point x="540" y="267" type="curve" smooth="yes"/>
      <point x="540" y="391"/>
      <point x="466" y="489"/>
      <point x="337" y="489" type="curve" smooth="yes"/>
      <point x="208" y="489"/>
      <point x="134" y="391"/>
    </contour>
    <contour>
      <point x="210" y="267" type="curve"/>
      <point x="210" y="362"/>
      <point x="246" y="436"/>
      <point x="337" y="436" type="curve" smooth="yes"/>
      <point x="428" y="436"/>
      <point x="464" y="362"/>
      <point x="464" y="267" type="curve" smooth="yes"/>
      <point x="464" y="173"/>
      <point x="428" y="98"/>
      <point x="337" y="98" type="curve" smooth="yes"/>
      <point x="246" y="98"/>
      <point x="210" y="173"/>
    </contour>
    <contour>
      <point x="20" y="269" type="curve" smooth="yes"/>
      <point x="20" y="95"/>
      <point x="161" y="-46"/>
      <point x="335" y="-46" type="curve" smooth="yes"/>
      <point x="509" y="-46"/>
      <point x="650" y="95"/>
      <point x="650" y="269" type="curve" smooth="yes"/>
      <point x="650" y="443"/>
      <point x="509" y="584"/>
      <point x="335" y="584" type="curve" smooth="yes"/>
      <point x="161" y="584"/>
      <point x="20" y="443"/>
    </contour>
    <contour>
      <point x="51" y="269" type="curve" smooth="yes"/>
      <point x="51" y="426"/>
      <point x="178" y="553"/>
      <point x="335" y="553" type="curve" smooth="yes"/>
      <point x="492" y="553"/>
      <point x="619" y="426"/>
      <point x="619" y="269" type="curve" smooth="yes"/>
      <point x="619" y="112"/>
      <point x="492" y="-15"/>
      <point x="335" y="-15" type="curve" smooth="yes"/>
      <point x="178" y="-15"/>
      <point x="51" y="112"/>
    </contour>
  </outline>
</glyph>
<glyph name="AE.smcp" format="1">
  <advance width="839"/>
  <outline>
    <contour>
      <point x="220" y="206" type="line"/>
      <point x="355" y="206" type="line"/>
      <point x="355" y="0" type="line"/>
      <point x="771" y="0" type="line"/>
      <point x="771" y="64" type="line"/>
      <point x="439" y="64" type="line"/>
      <point x="439" y="205" type="line"/>
      <point x="719" y="205" type="line"/>
      <point x="719" y="269" type="line"/>
      <point x="439" y="269" type="line"/>
      <point x="439" y="414" type="line"/>
      <point x="753" y="414" type="line"/>
      <point x="753" y="479" type="line"/>
      <point x="220" y="479" type="line"/>
      <point x="-2" y="0" type="line"/>
      <point x="83" y="0" type="line"/>
      <point x="143" y="137"/>
      <point x="208" y="278"/>
      <point x="268" y="415" type="curve"/>
      <point x="279" y="413"/>
      <point x="298" y="413"/>
      <point x="319" y="413" type="curve" smooth="yes"/>
      <point x="337" y="413"/>
      <point x="352" y="414"/>
      <point x="355" y="414" type="curve"/>
      <point x="355" y="268" type="line"/>
      <point x="220" y="268" type="line"/>
    </contour>
  </outline>
</glyph>
<glyph name="A.smcp" format="1">
  <advance width="575"/>
  <outline>
    <contour>
      <point x="287" y="600" type="move" name="top"/>
    </contour>
    <contour>
      <point x="-5" y="0" type="line"/>
      <point x="81" y="0" type="line"/>
      <point x="150" y="153" type="line"/>
      <point x="423" y="153" type="line"/>
      <point x="495" y="0" type="line"/>
      <point x="580" y="0" type="line"/>
      <point x="355" y="479" type="line"/>
      <point x="220" y="479" type="line"/>
    </contour>
    <contour>
      <point x="269" y="418" type="line"/>
      <point x="289" y="414"/>
      <point x="306" y="420"/>
      <point x="306" y="420" type="curve"/>
      <point x="337" y="352"/>
      <point x="365" y="285"/>
      <point x="396" y="217" type="curve"/>
      <point x="177" y="217" type="line"/>
    </contour>
  </outline>
</glyph>
<glyph name="B.alt" format="1">
  <advance width="800"/>
  <outline>
    <contour>
      <point x="528" y="538" type="line" smooth="yes"/>
      <point x="647" y="538"/>
      <point x="746" y="494"/>
      <point x="746" y="403" type="curve" smooth="yes"/>
      <point x="746" y="327"/>
      <point x="658" y="292"/>
      <point x="610" y="289" type="curve"/>
      <point x="659" y="292"/>
      <point x="766" y="252"/>
      <point x="766" y="153" type="curve" smooth="yes"/>
      <point x="766" y="13"/>
      <point x="611" y="0"/>
      <point x="539" y="0" type="curve" smooth="yes"/>
      <point x="0" y="0" type="line"/>
      <point x="0" y="76" type="line"/>
      <point x="0" y="76"/>
      <point x="263" y="66"/>
      <point x="516" y="66" type="curve" smooth="yes"/>
      <point x="588" y="66"/>
      <point x="678" y="63"/>
      <point x="678" y="150" type="curve" smooth="yes"/>
      <point x="678" y="219"/>
      <point x="632" y="243"/>
      <point x="528" y="243" type="curve" smooth="yes"/>
      <point x="295" y="243" type="line"/>
      <point x="295" y="105" type="line"/>
      <point x="207" y="105" type="line"/>
      <point x="207" y="538" type="line"/>
    </contour>
    <contour>
      <point x="296" y="309" type="line"/>
      <point x="501" y="309" type="line" smooth="yes"/>
      <point x="591" y="309"/>
      <point x="658" y="327"/>
      <point x="658" y="384" type="curve" smooth="yes"/>
      <point x="658" y="465"/>
      <point x="583" y="472"/>
      <point x="499" y="472" type="curve" smooth="yes"/>
      <point x="296" y="472" type="line"/>
    </contour>
  </outline>
</glyph>
<glyph name="B.smcp" format="1">
  <advance width="595"/>
  <outline>
    <contour>
      <point x="352" y="479" type="line"/>
      <point x="457" y="479"/>
      <point x="545" y="442"/>
      <point x="545" y="359" type="curve" smooth="yes"/>
      <point x="545" y="302"/>
      <point x="487" y="269"/>
      <point x="448" y="258" type="curve"/>
      <point x="492" y="248"/>
      <point x="563" y="216"/>
      <point x="563" y="133" type="curve" smooth="yes"/>
      <point x="563" y="31"/>
      <point x="458" y="0"/>
      <point x="368" y="0" type="curve"/>
      <point x="59" y="0" type="line"/>
      <point x="59" y="479" type="line"/>
    </contour>
    <contour>
      <point x="337" y="65" type="line"/>
      <point x="426" y="65"/>
      <point x="478" y="70"/>
      <point x="478" y="131" type="curve" smooth="yes"/>
      <point x="478" y="203"/>
      <point x="426" y="213"/>
      <point x="336" y="213" type="curve"/>
      <point x="144" y="213" type="line"/>
      <point x="144" y="65" type="line"/>
    </contour>
    <contour>
      <point x="145" y="278" type="line"/>
      <point x="335" y="278" type="line"/>
      <point x="402" y="278"/>
      <point x="461" y="295"/>
      <point x="461" y="344" type="curve" smooth="yes"/>
      <point x="461" y="409"/>
      <point x="399" y="414"/>
      <point x="327" y="414" type="curve"/>
      <point x="145" y="414" type="line"/>
    </contour>
  </outline>
</glyph>
<glyph name="C.smcp" format="1">
  <advance width="576"/>
  <outline>
    <contour>
      <point x="287" y="514" type="move" name="top"/>
    </contour>
    <contour>
      <point x="287" y="-18" type="move" name="bottom"/>
    </contour>
    <contour>
      <point x="462" y="187" type="line"/>
      <point x="462" y="187"/>
      <point x="454" y="56"/>
      <point x="292" y="56" type="curve" smooth="yes"/>
      <point x="180" y="56"/>
      <point x="113" y="128"/>
      <point x="113" y="239" type="curve" smooth="yes"/>
      <point x="113" y="349"/>
      <point x="180" y="420"/>
      <point x="292" y="420" type="curve" smooth="yes"/>
      <point x="403" y="420"/>
      <point x="458" y="343"/>
      <point x="458" y="273" type="curve"/>
      <point x="527" y="290" type="line"/>
      <point x="527" y="375"/>
      <point x="447" y="485"/>
      <point x="292" y="485" type="curve" smooth="yes"/>
      <point x="134" y="485"/>
      <point x="24" y="385"/>
      <point x="24" y="239" type="curve" smooth="yes"/>
      <point x="24" y="92"/>
      <point x="125" y="-9"/>
      <point x="293" y="-9" type="curve" smooth="yes"/>
      <point x="537" y="-9"/>
      <point x="542" y="187"/>
      <point x="542" y="187" type="curve"/>
    </contour>
  </outline>
</glyph>
<glyph name="D.smcp" format="1">
  <advance width="580"/>
  <outline>
    <contour>
      <point x="308" y="479" type="line"/>
      <point x="428" y="479"/>
      <point x="542" y="418"/>
      <point x="545" y="296" type="curve"/>
      <point x="547" y="284"/>
      <point x="548" y="266"/>
      <point x="548" y="249" type="curve" smooth="yes"/>
      <point x="548" y="229"/>
      <point x="547" y="205"/>
      <point x="545" y="187" type="curve"/>
      <point x="542" y="62"/>
      <point x="428" y="0"/>
      <point x="309" y="0" type="curve"/>
      <point x="59" y="0" type="line"/>
      <point x="59" y="479" type="line"/>
    </contour>
    <contour>
      <point x="461" y="280" type="curve"/>
      <point x="454" y="360"/>
      <point x="408" y="414"/>
      <point x="282" y="414" type="curve"/>
      <point x="144" y="414" type="line"/>
      <point x="144" y="65" type="line"/>
      <point x="281" y="65" type="line"/>
      <point x="407" y="65"/>
      <point x="451" y="115"/>
      <point x="461" y="192" type="curve"/>
      <point x="461" y="202"/>
      <point x="462" y="221"/>
      <point x="462" y="235" type="curve" smooth="yes"/>
      <point x="462" y="252"/>
      <point x="461" y="269"/>
    </contour>
  </outline>
</glyph>
<glyph name="E.smcp" format="1">
  <advance width="540"/>
  <outline>
    <contour>
      <point x="270" y="600" type="move" name="top"/>
    </contour>
    <contour>
      <point x="59" y="0" type="line"/>
      <point x="478" y="0" type="line"/>
      <point x="478" y="65" type="line"/>
      <point x="144" y="65" type="line"/>
      <point x="144" y="205" type="line"/>
      <point x="425" y="205" type="line"/>
      <point x="425" y="270" type="line"/>
      <point x="144" y="270" type="line"/>
      <point x="144" y="414" type="line"/>
      <point x="460" y="414" type="line"/>
      <point x="460" y="479" type="line"/>
      <point x="59" y="479" type="line"/>
    </contour>
  </outline>
</glyph>
<glyph name="F.smcp" format="1">
  <advance width="460"/>
  <outline>
    <contour>
      <point x="59" y="0" type="line"/>
      <point x="144" y="0" type="line"/>
      <point x="144" y="205" type="line"/>
      <point x="425" y="205" type="line"/>
      <point x="425" y="270" type="line"/>
      <point x="144" y="270" type="line"/>
      <point x="144" y="414" type="line"/>
      <point x="460" y="414" type="line"/>
      <point x="460" y="479" type="line"/>
      <point x="59" y="479" type="line"/>
    </contour>
  </outline>
</glyph>
<glyph name="G.smcp" format="1">
  <advance width="617"/>
  <outline>
    <contour>
      <point x="303" y="187" type="line"/>
      <point x="462" y="187" type="line"/>
      <point x="462" y="183" type="line"/>
      <point x="462" y="183"/>
      <point x="455" y="56"/>
      <point x="288" y="56" type="curve" smooth="yes"/>
      <point x="183" y="56"/>
      <point x="113" y="128"/>
      <point x="113" y="239" type="curve" smooth="yes"/>
      <point x="113" y="349"/>
      <point x="180" y="420"/>
      <point x="293" y="420" type="curve" smooth="yes"/>
      <point x="418" y="420"/>
      <point x="458" y="327"/>
      <point x="458" y="273" type="curve"/>
      <point x="527" y="290" type="line"/>
      <point x="527" y="363"/>
      <point x="456" y="485"/>
      <point x="295" y="485" type="curve" smooth="yes"/>
      <point x="134" y="485"/>
      <point x="24" y="385"/>
      <point x="24" y="239" type="curve" smooth="yes"/>
      <point x="24" y="83"/>
      <point x="139" y="-9"/>
      <point x="285" y="-9" type="curve" smooth="yes"/>
      <point x="400" y="-9"/>
      <point x="463" y="53"/>
      <point x="484" y="128" type="curve"/>
      <point x="483" y="-3" type="line"/>
      <point x="557" y="-3" type="line"/>
      <point x="557" y="252" type="line"/>
      <point x="303" y="252" type="line"/>
    </contour>
  </outline>
</glyph>
<glyph name="H.smcp" format="1">
  <advance width="647"/>
  <outline>
    <contour>
      <point x="503" y="0" type="line"/>
      <point x="588" y="0" type="line"/>
      <point x="588" y="479" type="line"/>
      <point x="503" y="479" type="line"/>
      <point x="503" y="262" type="line"/>
      <point x="144" y="262" type="line"/>
      <point x="144" y="479" type="line"/>
      <point x="59" y="479" type="line"/>
      <point x="59" y="0" type="line"/>
      <point x="144" y="0" type="line"/>
      <point x="144" y="196" type="line"/>
      <point x="503" y="196" type="line"/>
    </contour>
  </outline>
</glyph>
<glyph name="I.smcp" format="1">
  <advance width="203"/>
  <outline>
    <contour>
      <point x="101" y="600" type="move" name="top"/>
    </contour>
    <contour>
      <point x="59" y="479" type="line"/>
      <point x="59" y="0" type="line"/>
      <point x="144" y="0" type="line"/>
      <point x="144" y="479" type="line"/>
    </contour>
  </outline>
</glyph>
<glyph name="J.smcp" format="1">
  <advance width="472"/>
  <outline>
    <contour>
      <point x="36" y="187" type="line"/>
      <point x="36" y="50"/>
      <point x="88" y="-8"/>
      <point x="222" y="-9" type="curve"/>
      <point x="358" y="-9"/>
      <point x="412" y="50"/>
      <point x="412" y="184" type="curve"/>
      <point x="412" y="479" type="line"/>
      <point x="328" y="479" type="line"/>
      <point x="328" y="184" type="line"/>
      <point x="328" y="96"/>
      <point x="304" y="56"/>
      <point x="222" y="56" type="curve" smooth="yes"/>
      <point x="127" y="56"/>
      <point x="120" y="124"/>
      <point x="120" y="187" type="curve"/>
    </contour>
  </outline>
</glyph>
<glyph name="K.smcp" format="1">
  <advance width="551"/>
  <outline>
    <contour>
      <point x="415" y="479" type="line"/>
      <point x="145" y="237" type="line"/>
      <point x="145" y="479" type="line"/>
      <point x="59" y="479" type="line"/>
      <point x="59" y="0" type="line"/>
      <point x="144" y="0" type="line"/>
      <point x="144" y="149" type="line"/>
      <point x="227" y="219" type="line"/>
      <point x="445" y="0" type="line"/>
      <point x="549" y="0" type="line"/>
      <point x="282" y="266" type="line"/>
      <point x="519" y="479" type="line"/>
    </contour>
  </outline>
</glyph>
<glyph name="L.smcp" format="1">
  <advance width="451"/>
  <outline>
    <contour>
      <point x="59" y="0" type="line"/>
      <point x="445" y="0" type="line"/>
      <point x="445" y="65" type="line"/>
      <point x="144" y="65" type="line"/>
      <point x="144" y="479" type="line"/>
      <point x="59" y="479" type="line"/>
    </contour>
  </outline>
</glyph>
<glyph name="M.smcp" format="1">
  <advance width="710"/>
  <outline>
    <contour>
      <point x="397" y="-75" type="move" name="top"/>
    </contour>
    <contour>
      <point x="570" y="315" type="line"/>
      <point x="573" y="326" type="line"/>
      <point x="572" y="314"/>
      <point x="573" y="328"/>
      <point x="572" y="316" type="curve"/>
      <point x="567" y="0" type="line"/>
      <point x="651" y="0" type="line"/>
      <point x="651" y="479" type="line"/>
      <point x="567" y="479" type="line"/>
      <point x="374" y="63" type="line"/>
      <point x="374" y="63"/>
      <point x="353" y="65"/>
      <point x="335" y="63" type="curve"/>
      <point x="144" y="479" type="line"/>
      <point x="59" y="479" type="line"/>
      <point x="59" y="0" type="line"/>
      <point x="144" y="0" type="line"/>
      <point x="139" y="316" type="line"/>
      <point x="139" y="317" type="line"/>
      <point x="139" y="316"/>
      <point x="140" y="315"/>
      <point x="140" y="315" type="curve"/>
      <point x="285" y="0" type="line"/>
      <point x="422" y="0" type="line"/>
    </contour>
  </outline>
</glyph>
<glyph name="N.smcp" format="1">
  <advance width="605"/>
  <outline>
    <contour>
      <point x="302" y="600" type="move" name="top"/>
    </contour>
    <contour>
      <point x="546" y="479" type="line"/>
      <point x="462" y="479" type="line"/>
      <point x="462" y="63" type="line"/>
      <point x="143" y="479" type="line"/>
      <point x="59" y="479" type="line"/>
      <point x="59" y="0" type="line"/>
      <point x="144" y="0" type="line"/>
      <point x="140" y="362" type="line"/>
      <point x="415" y="0" type="line"/>
      <point x="546" y="0" type="line"/>
    </contour>
  </outline>
</glyph>
<glyph name="OE.smcp" format="1">
  <advance width="910"/>
  <outline>
    <contour>
      <point x="36" y="238" type="curve" smooth="yes"/>
      <point x="36" y="94"/>
      <point x="144" y="-9"/>
      <point x="314" y="-9" type="curve" smooth="yes"/>
      <point x="343" y="-9"/>
      <point x="371" y="-6"/>
      <point x="397" y="0" type="curve"/>
      <point x="840" y="0" type="line"/>
      <point x="840" y="64" type="line"/>
      <point x="520" y="64" type="line"/>
      <point x="559" y="100"/>
      <point x="583" y="149"/>
      <point x="590" y="205" type="curve"/>
      <point x="788" y="205" type="line"/>
      <point x="788" y="269" type="line"/>
      <point x="590" y="269" type="line"/>
      <point x="583" y="326"/>
      <point x="558" y="374"/>
      <point x="519" y="410" type="curve"/>
      <point x="823" y="410" type="line"/>
      <point x="823" y="474" type="line"/>
      <point x="377" y="474" type="line"/>
      <point x="357" y="477"/>
      <point x="336" y="479"/>
      <point x="314" y="479" type="curve" smooth="yes"/>
      <point x="144" y="479"/>
      <point x="36" y="382"/>
    </contour>
    <contour>
      <point x="195" y="205" type="line"/>
      <point x="501" y="205" type="line"/>
      <point x="488" y="114"/>
      <point x="424" y="55"/>
      <point x="314" y="55" type="curve" smooth="yes"/>
      <point x="189" y="55"/>
      <point x="124" y="129"/>
      <point x="124" y="238" type="curve" smooth="yes"/>
      <point x="124" y="347"/>
      <point x="189" y="415"/>
      <point x="314" y="415" type="curve" smooth="yes"/>
      <point x="426" y="415"/>
      <point x="489" y="360"/>
      <point x="501" y="269" type="curve"/>
      <point x="195" y="269" type="line"/>
    </contour>
  </outline>
</glyph>
<glyph name="O.alt" format="1">
  <advance width="708"/>
  <outline>
    <contour>
      <point x="253" y="0" type="curve"/>
      <point x="253" y="66" type="line"/>
      <point x="510" y="21"/>
      <point x="573" y="147"/>
      <point x="573" y="268" type="curve" smooth="yes"/>
      <point x="573" y="394"/>
      <point x="498" y="479"/>
      <point x="354" y="479" type="curve" smooth="yes"/>
      <point x="210" y="479"/>
      <point x="136" y="386"/>
      <point x="136" y="288" type="curve" smooth="yes"/>
      <point x="136" y="197"/>
      <point x="182" y="159"/>
      <point x="234" y="159" type="curve" smooth="yes"/>
      <point x="351" y="159"/>
      <point x="374" y="293"/>
      <point x="375" y="331" type="curve"/>
      <point x="425" y="285" type="line"/>
      <point x="424" y="249"/>
      <point x="416" y="93"/>
      <point x="217" y="93" type="curve" smooth="yes"/>
      <point x="126" y="93"/>
      <point x="40" y="151"/>
      <point x="40" y="287" type="curve" smooth="yes"/>
      <point x="40" y="430"/>
      <point x="163" y="545"/>
      <point x="354" y="545" type="curve" smooth="yes"/>
      <point x="545" y="545"/>
      <point x="668" y="430"/>
      <point x="668" y="268" type="curve" smooth="yes"/>
      <point x="668" y="126"/>
      <point x="577" y="-55"/>
    </contour>
  </outline>
</glyph>
<glyph name="O.smcp" format="1">
  <advance width="630"/>
  <outline>
    <contour>
      <point x="315" y="600" type="move" name="top"/>
    </contour>
    <contour>
      <point x="33" y="239" type="curve" smooth="yes"/>
      <point x="33" y="92"/>
      <point x="143" y="-9"/>
      <point x="315" y="-9" type="curve" smooth="yes"/>
      <point x="487" y="-9"/>
      <point x="598" y="92"/>
      <point x="598" y="239" type="curve" smooth="yes"/>
      <point x="598" y="385"/>
      <point x="487" y="485"/>
      <point x="315" y="485" type="curve" smooth="yes"/>
      <point x="143" y="485"/>
      <point x="33" y="385"/>
    </contour>
    <contour>
      <point x="123" y="239" type="curve" smooth="yes"/>
      <point x="123" y="349"/>
      <point x="189" y="420"/>
      <point x="315" y="420" type="curve" smooth="yes"/>
      <point x="441" y="420"/>
      <point x="507" y="349"/>
      <point x="507" y="239" type="curve" smooth="yes"/>
      <point x="507" y="128"/>
      <point x="440" y="56"/>
      <point x="315" y="56" type="curve" smooth="yes"/>
      <point x="189" y="56"/>
      <point x="123" y="128"/>
    </contour>
  </outline>
</glyph>
<glyph name="Oslash.smcp" format="1">
  <advance width="630"/>
  <outline>
    <contour>
      <point x="33" y="239" type="curve" smooth="yes"/>
      <point x="33" y="117"/>
      <point x="108" y="27"/>
      <point x="231" y="0" type="curve"/>
      <point x="195" y="-136" type="line"/>
      <point x="224" y="-143" type="line"/>
      <point x="261" y="-5" type="line"/>
      <point x="278" y="-8"/>
      <point x="296" y="-9"/>
      <point x="315" y="-9" type="curve" smooth="yes"/>
      <point x="487" y="-9"/>
      <point x="598" y="92"/>
      <point x="598" y="239" type="curve" smooth="yes"/>
      <point x="598" y="362"/>
      <point x="518" y="453"/>
      <point x="390" y="478" type="curve"/>
      <point x="426" y="613" type="line"/>
      <point x="397" y="620" type="line"/>
      <point x="360" y="482" type="line"/>
      <point x="346" y="484"/>
      <point x="331" y="485"/>
      <point x="315" y="485" type="curve" smooth="yes"/>
      <point x="143" y="485"/>
      <point x="33" y="385"/>
    </contour>
    <contour>
      <point x="507" y="239" type="curve" smooth="yes"/>
      <point x="507" y="128"/>
      <point x="440" y="56"/>
      <point x="315" y="56" type="curve" smooth="yes"/>
      <point x="302" y="56"/>
      <point x="289" y="56"/>
      <point x="278" y="58" type="curve"/>
      <point x="373" y="414" type="line"/>
      <point x="461" y="395"/>
      <point x="507" y="330"/>
    </contour>
    <contour>
      <point x="123" y="239" type="curve" smooth="yes"/>
      <point x="123" y="349"/>
      <point x="189" y="420"/>
      <point x="315" y="420" type="curve" smooth="yes"/>
      <point x="325" y="420"/>
      <point x="334" y="420"/>
      <point x="343" y="419" type="curve"/>
      <point x="248" y="64" type="line"/>
      <point x="166" y="85"/>
      <point x="123" y="149"/>
    </contour>
  </outline>
</glyph>
<glyph name="P.smcp" format="1">
  <advance width="560"/>
  <outline>
    <contour>
      <point x="143" y="205" type="line"/>
      <point x="143" y="0" type="line"/>
      <point x="59" y="0" type="line"/>
      <point x="59" y="479" type="line"/>
      <point x="352" y="479" type="line"/>
      <point x="457" y="479"/>
      <point x="545" y="444"/>
      <point x="545" y="342" type="curve" smooth="yes"/>
      <point x="545" y="250"/>
      <point x="459" y="205"/>
      <point x="352" y="205" type="curve"/>
    </contour>
    <contour>
      <point x="144" y="270" type="line"/>
      <point x="326" y="270" type="line"/>
      <point x="399" y="270"/>
      <point x="461" y="281"/>
      <point x="461" y="342" type="curve" smooth="yes"/>
      <point x="461" y="408"/>
      <point x="399" y="414"/>
      <point x="327" y="414" type="curve"/>
      <point x="144" y="414" type="line"/>
    </contour>
  </outline>
</glyph>
<glyph name="Q.smcp" format="1">
  <advance width="630"/>
  <outline>
    <contour>
      <point x="33" y="239" type="curve" smooth="yes"/>
      <point x="33" y="92"/>
      <point x="143" y="-9"/>
      <point x="315" y="-9" type="curve" smooth="yes"/>
      <point x="318" y="-9" type="line"/>
      <point x="561" y="-148" type="line"/>
      <point x="589" y="-73" type="line"/>
      <point x="389" y="-2" type="line"/>
      <point x="518" y="23"/>
      <point x="598" y="114"/>
      <point x="598" y="239" type="curve" smooth="yes"/>
      <point x="598" y="385"/>
      <point x="487" y="485"/>
      <point x="315" y="485" type="curve" smooth="yes"/>
      <point x="143" y="485"/>
      <point x="33" y="385"/>
    </contour>
    <contour>
      <point x="123" y="239" type="curve" smooth="yes"/>
      <point x="123" y="349"/>
      <point x="189" y="420"/>
      <point x="315" y="420" type="curve" smooth="yes"/>
      <point x="441" y="420"/>
      <point x="507" y="349"/>
      <point x="507" y="239" type="curve" smooth="yes"/>
      <point x="507" y="128"/>
      <point x="440" y="56"/>
      <point x="315" y="56" type="curve" smooth="yes"/>
      <point x="189" y="56"/>
      <point x="123" y="128"/>
    </contour>
  </outline>
</glyph>
<glyph name="R.smcp" format="1">
  <advance width="578"/>
  <outline>
    <contour>
      <point x="545" y="344" type="curve" smooth="yes"/>
      <point x="545" y="445"/>
      <point x="475" y="479"/>
      <point x="361" y="479" type="curve"/>
      <point x="59" y="479" type="line"/>
      <point x="59" y="0" type="line"/>
      <point x="144" y="0" type="line"/>
      <point x="144" y="205" type="line"/>
      <point x="284" y="205" type="line"/>
      <point x="332" y="205"/>
      <point x="383" y="117"/>
      <point x="419" y="52" type="curve" smooth="yes"/>
      <point x="428" y="35"/>
      <point x="437" y="19"/>
      <point x="450" y="0" type="curve"/>
      <point x="548" y="0" type="line"/>
      <point x="532" y="22"/>
      <point x="512" y="53"/>
      <point x="496" y="79" type="curve" smooth="yes"/>
      <point x="461" y="134"/>
      <point x="423" y="188"/>
      <point x="387" y="206" type="curve"/>
      <point x="481" y="214"/>
      <point x="545" y="245"/>
    </contour>
    <contour>
      <point x="145" y="414" type="line"/>
      <point x="327" y="414" type="line"/>
      <point x="417" y="414"/>
      <point x="461" y="405"/>
      <point x="461" y="344" type="curve" smooth="yes"/>
      <point x="461" y="285"/>
      <point x="423" y="270"/>
      <point x="326" y="270" type="curve"/>
      <point x="145" y="270" type="line"/>
    </contour>
  </outline>
</glyph>
<glyph name="S.alt" format="1">
  <advance width="598"/>
  <outline>
    <contour>
      <point x="338" y="216" type="line"/>
      <point x="338" y="216"/>
      <point x="307" y="243"/>
      <point x="227" y="243" type="curve" smooth="yes"/>
      <point x="129" y="243"/>
      <point x="80" y="176"/>
      <point x="80" y="114" type="curve" smooth="yes"/>
      <point x="80" y="18"/>
      <point x="174" y="-42"/>
      <point x="320" y="-42" type="curve" smooth="yes"/>
      <point x="462" y="-42"/>
      <point x="581" y="28"/>
      <point x="581" y="142" type="curve" smooth="yes"/>
      <point x="581" y="222"/>
      <point x="497" y="276"/>
      <point x="406" y="314" type="curve" smooth="yes"/>
      <point x="249" y="379" type="line" smooth="yes"/>
      <point x="235" y="385"/>
      <point x="234" y="394"/>
      <point x="249" y="398" type="curve" smooth="yes"/>
      <point x="529" y="471" type="line"/>
      <point x="517" y="546" type="line"/>
      <point x="200" y="434" type="line" smooth="yes"/>
      <point x="171" y="424"/>
      <point x="156" y="407"/>
      <point x="156" y="387" type="curve" smooth="yes"/>
      <point x="156" y="364"/>
      <point x="174" y="346"/>
      <point x="223" y="326" type="curve" smooth="yes"/>
      <point x="412" y="249"/>
      <point x="486" y="222"/>
      <point x="486" y="138" type="curve" smooth="yes"/>
      <point x="486" y="61"/>
      <point x="397" y="24"/>
      <point x="323" y="24" type="curve" smooth="yes"/>
      <point x="219" y="24"/>
      <point x="164" y="63"/>
      <point x="164" y="112" type="curve" smooth="yes"/>
      <point x="164" y="152"/>
      <point x="195" y="178"/>
      <point x="248" y="178" type="curve" smooth="yes"/>
      <point x="299" y="178"/>
      <point x="337" y="152"/>
      <point x="337" y="152" type="curve"/>
    </contour>
  </outline>
</glyph>
<glyph name="S.smcp" format="1">
  <advance width="532"/>
  <outline>
    <contour>
      <point x="228" y="291" type="line"/>
      <point x="173" y="301"/>
      <point x="151" y="319"/>
      <point x="151" y="351" type="curve" smooth="yes"/>
      <point x="151" y="396"/>
      <point x="197" y="420"/>
      <point x="259" y="420" type="curve" smooth="yes"/>
      <point x="366" y="420"/>
      <point x="420" y="354"/>
      <point x="420" y="354" type="curve"/>
      <point x="463" y="400" type="line"/>
      <point x="463" y="400"/>
      <point x="407" y="485"/>
      <point x="262" y="485" type="curve" smooth="yes"/>
      <point x="131" y="485"/>
      <point x="60" y="416"/>
      <point x="60" y="353" type="curve" smooth="yes"/>
      <point x="60" y="286"/>
      <point x="98" y="248"/>
      <point x="178" y="233" type="curve"/>
      <point x="307" y="211" type="line"/>
      <point x="306" y="211" type="line"/>
      <point x="375" y="198"/>
      <point x="411" y="168"/>
      <point x="411" y="128" type="curve" smooth="yes"/>
      <point x="411" y="88"/>
      <point x="358" y="56"/>
      <point x="270" y="56" type="curve" smooth="yes"/>
      <point x="137" y="56"/>
      <point x="87" y="150"/>
      <point x="83" y="180" type="curve"/>
      <point x="17" y="154" type="line"/>
      <point x="20" y="127"/>
      <point x="69" y="-9"/>
      <point x="293" y="-9" type="curve" smooth="yes"/>
      <point x="398" y="-9"/>
      <point x="501" y="37"/>
      <point x="501" y="129" type="curve" smooth="yes"/>
      <point x="501" y="201"/>
      <point x="449" y="250"/>
      <point x="361" y="267" type="curve"/>
    </contour>
  </outline>
</glyph>
<glyph name="T.smcp" format="1">
  <advance width="557"/>
  <outline>
    <contour>
      <point x="542" y="479" type="line"/>
      <point x="15" y="479" type="line"/>
      <point x="15" y="414" type="line"/>
      <point x="236" y="414" type="line"/>
      <point x="236" y="0" type="line"/>
      <point x="321" y="0" type="line"/>
      <point x="321" y="414" type="line"/>
      <point x="542" y="414" type="line"/>
    </contour>
  </outline>
</glyph>
<glyph name="U.smcp" format="1">
  <advance width="602"/>
  <outline>
    <contour>
      <point x="301" y="600" type="move" name="top"/>
    </contour>
    <contour>
      <point x="59" y="479" type="line"/>
      <point x="59" y="198" type="line"/>
      <point x="59" y="51"/>
      <point x="111" y="-9"/>
      <point x="301" y="-9" type="curve" smooth="yes"/>
      <point x="491" y="-9"/>
      <point x="542" y="51"/>
      <point x="542" y="198" type="curve"/>
      <point x="542" y="479" type="line"/>
      <point x="458" y="479" type="line"/>
      <point x="458" y="198" type="line"/>
      <point x="458" y="87"/>
      <point x="426" y="56"/>
      <point x="301" y="56" type="curve" smooth="yes"/>
      <point x="175" y="56"/>
      <point x="144" y="87"/>
      <point x="144" y="198" type="curve"/>
      <point x="144" y="479" type="line"/>
    </contour>
  </outline>
</glyph>
<glyph name="V.smcp" format="1">
  <advance width="575"/>
  <outline>
    <contour>
      <point x="220" y="0" type="line"/>
      <point x="355" y="0" type="line"/>
      <point x="580" y="479" type="line"/>
      <point x="487" y="479" type="line"/>
      <point x="428" y="340"/>
      <point x="365" y="203"/>
      <point x="306" y="64" type="curve"/>
      <point x="306" y="64"/>
      <point x="285" y="66"/>
      <point x="268" y="64" type="curve"/>
      <point x="87" y="479" type="line"/>
      <point x="-5" y="479" type="line"/>
    </contour>
  </outline>
</glyph>
<glyph name="W.smcp" format="1">
  <advance width="800"/>
  <outline>
    <contour>
      <point x="400" y="374" type="line"/>
      <point x="516" y="0" type="line"/>
      <point x="625" y="0" type="line"/>
      <point x="804" y="479" type="line"/>
      <point x="721" y="479" type="line"/>
      <point x="570" y="73" type="line"/>
      <point x="448" y="472" type="line"/>
      <point x="352" y="472" type="line"/>
      <point x="231" y="72" type="line"/>
      <point x="79" y="479" type="line"/>
      <point x="-4" y="479" type="line"/>
      <point x="175" y="0" type="line"/>
      <point x="284" y="0" type="line"/>
    </contour>
  </outline>
</glyph>
<glyph name="X.smcp" format="1">
  <advance width="523"/>
  <outline>
    <contour>
      <point x="433" y="0" type="line"/>
      <point x="529" y="0" type="line"/>
      <point x="458" y="79"/>
      <point x="385" y="162"/>
      <point x="314" y="242" type="curve"/>
      <point x="520" y="479" type="line"/>
      <point x="416" y="479" type="line"/>
      <point x="263" y="293" type="line"/>
      <point x="108" y="479" type="line"/>
      <point x="4" y="479" type="line"/>
      <point x="214" y="247" type="line"/>
      <point x="-6" y="0" type="line"/>
      <point x="90" y="0" type="line"/>
      <point x="263" y="195" type="line"/>
    </contour>
  </outline>
</glyph>
<glyph name="Y.smcp" format="1">
  <advance width="539"/>
  <outline>
    <contour>
      <point x="269" y="600" type="move" name="top"/>
    </contour>
    <contour>
      <point x="536" y="479" type="line"/>
      <point x="436" y="479" type="line"/>
      <point x="270" y="258" type="line"/>
      <point x="103" y="479" type="line"/>
      <point x="3" y="479" type="line"/>
      <point x="228" y="204" type="line"/>
      <point x="228" y="0" type="line"/>
      <point x="312" y="0" type="line"/>
      <point x="312" y="204" type="line"/>
    </contour>
  </outline>
</glyph>
<glyph name="Z.smcp" format="1">
  <advance width="450"/>
  <outline>
    <contour>
      <point x="444" y="65" type="line"/>
      <point x="104" y="65" type="line"/>
      <point x="444" y="425" type="line"/>
      <point x="444" y="479" type="line"/>
      <point x="33" y="479" type="line"/>
      <point x="33" y="414" type="line"/>
      <point x="338" y="414" type="line"/>
      <point x="6" y="63" type="line"/>
      <point x="6" y="0" type="line"/>
      <point x="444" y="0" type="line"/>
    </contour>
  </outline>
</glyph>
<glyph name="acute.case" format="1">
  <advance width="833"/>
  <outline>
    <contour>
      <point x="416" y="424" type="move" name="_top"/>
    </contour>
    <contour>
      <point x="528" y="576" type="line"/>
      <point x="307" y="487" type="line"/>
      <point x="319" y="459" type="line"/>
      <point x="550" y="520" type="line"/>
    </contour>
  </outline>
</glyph>
<glyph name="circumflex.case" format="1">
  <advance width="833"/>
  <outline>
    <contour>
      <point x="416" y="424" type="move" name="_top"/>
    </contour>
    <contour>
      <point x="411" y="595" type="line"/>
      <point x="234" y="436" type="line"/>
      <point x="255" y="414" type="line"/>
      <point x="411" y="522" type="line"/>
      <point x="567" y="414" type="line"/>
      <point x="588" y="436" type="line"/>
    </contour>
  </outline>
</glyph>
<glyph name="dieresis.case" format="1">
  <advance width="248"/>
  <outline>
    <contour>
      <point x="124" y="424" type="move" name="_top"/>
    </contour>
    <contour>
      <point x="-22" y="538" type="line"/>
      <point x="-22" y="471" type="line"/>
      <point x="86" y="471" type="line"/>
      <point x="86" y="538" type="line"/>
    </contour>
    <contour>
      <point x="153" y="538" type="line"/>
      <point x="153" y="471" type="line"/>
      <point x="261" y="471" type="line"/>
      <point x="261" y="538" type="line"/>
    </contour>
  </outline>
</glyph>
<glyph name="grave.case" format="1">
  <advance width="833"/>
  <outline>
    <contour>
      <point x="416" y="424" type="move" name="_top"/>
    </contour>
    <contour>
      <point x="293" y="520" type="line"/>
      <point x="524" y="459" type="line"/>
      <point x="536" y="487" type="line"/>
      <point x="315" y="576" type="line"/>
    </contour>
  </outline>
</glyph>
<glyph name="one.susp_prop" format="1">
  <advance width="543"/>
  <outline>
    <contour>
      <point x="40" y="66" type="line"/>
      <point x="40" y="0" type="line"/>
      <point x="503" y="0" type="line"/>
      <point x="503" y="66" type="line"/>
      <point x="310" y="66" type="line"/>
      <point x="310" y="400" type="line"/>
      <point x="100" y="314" type="line"/>
      <point x="100" y="251" type="line"/>
      <point x="234" y="303" type="line"/>
      <point x="234" y="66" type="line"/>
    </contour>
  </outline>
</glyph>
<glyph name="ring.case" format="1">
  <advance width="833"/>
  <outline>
    <contour>
      <point x="416" y="424" type="move" name="_top"/>
    </contour>
    <contour>
      <point x="342" y="497" type="curve" smooth="yes"/>
      <point x="342" y="457"/>
      <point x="374" y="425"/>
      <point x="414" y="425" type="curve" smooth="yes"/>
      <point x="454" y="425"/>
      <point x="487" y="457"/>
      <point x="487" y="497" type="curve" smooth="yes"/>
      <point x="487" y="537"/>
      <point x="454" y="570"/>
      <point x="414" y="570" type="curve" smooth="yes"/>
      <point x="374" y="570"/>
      <point x="342" y="537"/>
    </contour>
    <contour>
      <point x="369" y="497" type="curve" smooth="yes"/>
      <point x="369" y="521"/>
      <point x="389" y="542"/>
      <point x="414" y="542" type="curve" smooth="yes"/>
      <point x="439" y="542"/>
      <point x="459" y="521"/>
      <point x="459" y="497" type="curve" smooth="yes"/>
      <point x="459" y="473"/>
      <point x="439" y="452"/>
      <point x="414" y="452" type="curve" smooth="yes"/>
      <point x="389" y="452"/>
      <point x="369" y="472"/>
    </contour>
  </outline>
</glyph>
<glyph name="two.susp_prop" format="1">
  <advance width="576"/>
  <outline>
    <contour>
      <point x="480" y="282" type="curve"/>
      <point x="480" y="344"/>
      <point x="429" y="400"/>
      <point x="329" y="400" type="curve"/>
      <point x="169" y="400"/>
      <point x="97" y="292"/>
      <point x="97" y="292" type="curve"/>
      <point x="130" y="233" type="line"/>
      <point x="130" y="233"/>
      <point x="197" y="333"/>
      <point x="313" y="333" type="curve"/>
      <point x="374" y="333"/>
      <point x="401" y="306"/>
      <point x="401" y="266" type="curve"/>
      <point x="401" y="145"/>
      <point x="60" y="66"/>
      <point x="60" y="66" type="curve"/>
      <point x="60" y="0" type="line"/>
      <point x="526" y="0" type="line"/>
      <point x="526" y="66" type="line"/>
      <point x="194" y="66" type="line"/>
      <point x="194" y="66"/>
      <point x="480" y="120"/>
    </contour>
  </outline>
</glyph>
<glyph name="zero.susp_prop" format="1">
  <advance width="544"/>
  <outline>
    <contour>
      <point x="50" y="195" type="curve"/>
      <point x="50" y="92"/>
      <point x="121" y="-10"/>
      <point x="272" y="-10" type="curve" smooth="yes"/>
      <point x="423" y="-10"/>
      <point x="494" y="92"/>
      <point x="494" y="195" type="curve" smooth="yes"/>
      <point x="494" y="298"/>
      <point x="423" y="400"/>
      <point x="272" y="400" type="curve" smooth="yes"/>
      <point x="121" y="400"/>
      <point x="50" y="298"/>
    </contour>
    <contour>
      <point x="139" y="195" type="curve"/>
      <point x="139" y="268"/>
      <point x="178" y="333"/>
      <point x="272" y="333" type="curve" smooth="yes"/>
      <point x="365" y="333"/>
      <point x="405" y="268"/>
      <point x="405" y="195" type="curve" smooth="yes"/>
      <point x="405" y="122"/>
      <point x="365" y="56"/>
      <point x="272" y="56" type="curve" smooth="yes"/>
      <point x="178" y="56"/>
      <point x="139" y="122"/>
    </contour>
  </outline>
</glyph>
